<svg xmlns="http://www.w3.org/2000/svg" xmlns:xlink="http://www.w3.org/1999/xlink" contentStyleType="text/css" data-diagram-type="CLASS" height="183px" preserveAspectRatio="none" style="width:820px;height:183px;background:#FFFFFF;" version="1.1" viewBox="0 0 820 183" width="820px" zoomAndPan="magnify"><defs/><g><path d="M165,6 L278.0205,6 A3.75,3.75 0 0 1 280.5205,8.5 L287.5205,29.6094 L292.0205,29.6094 A2.5,2.5 0 0 1 294.5205,32.1094 L294.5205,58.7188 A2.5,2.5 0 0 1 292.0205,61.2188 L165,61.2188 A2.5,2.5 0 0 1 162.5,58.7188 L162.5,8.5 A2.5,2.5 0 0 1 165,6 " fill="#F1F1F1" style="stroke:#181818;stroke-width:0.5;"/><line style="stroke:#181818;stroke-width:0.5;" x1="162.5" x2="287.5205" y1="29.6094" y2="29.6094"/><text fill="#000000" font-family="sans-serif" font-size="14" font-weight="bold" lengthAdjust="spacing" textLength="112.0205" x="166.5" y="22.5332">pingpy.hardware</text><path d="M8.5,121 L200.0791,121 A3.75,3.75 0 0 1 202.5791,123.5 L209.5791,144.6094 L214.0791,144.6094 A2.5,2.5 0 0 1 216.5791,147.1094 L216.5791,173.7188 A2.5,2.5 0 0 1 214.0791,176.2188 L8.5,176.2188 A2.5,2.5 0 0 1 6,173.7188 L6,123.5 A2.5,2.5 0 0 1 8.5,121 " fill="#F1F1F1" style="stroke:#181818;stroke-width:0.5;"/><line style="stroke:#181818;stroke-width:0.5;" x1="6" x2="209.5791" y1="144.6094" y2="144.6094"/><text fill="#000000" font-family="sans-serif" font-size="14" font-weight="bold" lengthAdjust="spacing" textLength="190.5791" x="10" y="137.5332">pingpy.hardware.autoSwitch</text><path d="M332.5,6 L514.7412,6 A3.75,3.75 0 0 1 517.2412,8.5 L524.2412,29.6094 L528.7412,29.6094 A2.5,2.5 0 0 1 531.2412,32.1094 L531.2412,58.7188 A2.5,2.5 0 0 1 528.7412,61.2188 L332.5,61.2188 A2.5,2.5 0 0 1 330,58.7188 L330,8.5 A2.5,2.5 0 0 1 332.5,6 " fill="#F1F1F1" style="stroke:#181818;stroke-width:0.5;"/><line style="stroke:#181818;stroke-width:0.5;" x1="330" x2="524.2412" y1="29.6094" y2="29.6094"/><text fill="#000000" font-family="sans-serif" font-size="14" font-weight="bold" lengthAdjust="spacing" textLength="181.2412" x="334" y="22.5332">pingpy.hardware.gpioMock</text><path d="M255,121 L424.0273,121 A3.75,3.75 0 0 1 426.5273,123.5 L433.5273,144.6094 L438.0273,144.6094 A2.5,2.5 0 0 1 440.5273,147.1094 L440.5273,173.7188 A2.5,2.5 0 0 1 438.0273,176.2188 L255,176.2188 A2.5,2.5 0 0 1 252.5,173.7188 L252.5,123.5 A2.5,2.5 0 0 1 255,121 " fill="#F1F1F1" style="stroke:#181818;stroke-width:0.5;"/><line style="stroke:#181818;stroke-width:0.5;" x1="252.5" x2="433.5273" y1="144.6094" y2="144.6094"/><text fill="#000000" font-family="sans-serif" font-size="14" font-weight="bold" lengthAdjust="spacing" textLength="168.0273" x="256.5" y="137.5332">pingpy.hardware.ledStrip</text><path d="M568.5,6 L796.6924,6 A3.75,3.75 0 0 1 799.1924,8.5 L806.1924,29.6094 L810.6924,29.6094 A2.5,2.5 0 0 1 813.1924,32.1094 L813.1924,58.7188 A2.5,2.5 0 0 1 810.6924,61.2188 L568.5,61.2188 A2.5,2.5 0 0 1 566,58.7188 L566,8.5 A2.5,2.5 0 0 1 568.5,6 " fill="#F1F1F1" style="stroke:#181818;stroke-width:0.5;"/><line style="stroke:#181818;stroke-width:0.5;" x1="566" x2="806.1924" y1="29.6094" y2="29.6094"/><text fill="#000000" font-family="sans-serif" font-size="14" font-weight="bold" lengthAdjust="spacing" textLength="227.1924" x="570" y="22.5332">pingpy.hardware.rpi_ws281xMock</text><!--link pingpy.hardware to pingpy.hardware.autoSwitch--><g id="link_pingpy.hardware_pingpy.hardware.autoSwitch"><path codeLine="12" d="M200.77,61.28 C182.12,79.29 161.9562,98.7722 143.3462,116.7422 " fill="transparent" id="pingpy.hardware-to-pingpy.hardware.autoSwitch" style="stroke:#181818;stroke-width:1;"/><polygon fill="#181818" points="139.03,120.91,148.2828,117.5358,142.6268,117.4369,142.7258,111.7809,139.03,120.91" style="stroke:#181818;stroke-width:1;"/></g><!--link pingpy.hardware to pingpy.hardware.ledStrip--><g id="link_pingpy.hardware_pingpy.hardware.ledStrip"><path codeLine="13" d="M256.46,61.28 C275.27,79.29 295.636,98.7907 314.406,116.7607 " fill="transparent" id="pingpy.hardware-to-pingpy.hardware.ledStrip" style="stroke:#181818;stroke-width:1;"/><polygon fill="#181818" points="318.74,120.91,315.0052,111.7968,315.1283,117.4523,309.4728,117.5754,318.74,120.91" style="stroke:#181818;stroke-width:1;"/></g><!--SRC=[ZP1D2i8m48NtFSNGVGkwSkKDNEK0CgH36gh9C8d48jxTGWbeIOFRz_FnU84YEBnJODIaY54mUW7d7JMBDA4XQDawmtC_eWm9XLh001iDNirxjz3Z8tgLRDHZgVjbrp66hRzuFHKXsQmZRZIeA9QBY6pM4SBsciBnT7ZkRlcDhBZDNrrthlpmLppF_G00]--></g></svg>