<svg xmlns="http://www.w3.org/2000/svg" xmlns:xlink="http://www.w3.org/1999/xlink" contentStyleType="text/css" data-diagram-type="CLASS" height="298px" preserveAspectRatio="none" style="width:680px;height:298px;background:#FFFFFF;" version="1.1" viewBox="0 0 680 298" width="680px" zoomAndPan="magnify"><defs/><g><path d="M72.5,6 L166.8037,6 A3.75,3.75 0 0 1 169.3037,8.5 L176.3037,29.6094 L180.8037,29.6094 A2.5,2.5 0 0 1 183.3037,32.1094 L183.3037,58.7188 A2.5,2.5 0 0 1 180.8037,61.2188 L72.5,61.2188 A2.5,2.5 0 0 1 70,58.7188 L70,8.5 A2.5,2.5 0 0 1 72.5,6 " fill="#F1F1F1" style="stroke:#181818;stroke-width:0.5;"/><line style="stroke:#181818;stroke-width:0.5;" x1="70" x2="176.3037" y1="29.6094" y2="29.6094"/><text fill="#000000" font-family="sans-serif" font-size="14" font-weight="bold" lengthAdjust="spacing" textLength="93.3037" x="74" y="22.5332">pingpy.output</text><path d="M27.5,121 L185.5898,121 A3.75,3.75 0 0 1 188.0898,123.5 L195.0898,144.6094 L199.5898,144.6094 A2.5,2.5 0 0 1 202.0898,147.1094 L202.0898,173.7188 A2.5,2.5 0 0 1 199.5898,176.2188 L27.5,176.2188 A2.5,2.5 0 0 1 25,173.7188 L25,123.5 A2.5,2.5 0 0 1 27.5,121 " fill="#F1F1F1" style="stroke:#181818;stroke-width:0.5;"/><line style="stroke:#181818;stroke-width:0.5;" x1="25" x2="195.0898" y1="144.6094" y2="144.6094"/><text fill="#000000" font-family="sans-serif" font-size="14" font-weight="bold" lengthAdjust="spacing" textLength="157.0898" x="29" y="137.5332">pingpy.output.UICorner</text><path d="M8.5,236 L158.0313,236 A3.75,3.75 0 0 1 160.5313,238.5 L167.5313,259.6094 L172.0313,259.6094 A2.5,2.5 0 0 1 174.5313,262.1094 L174.5313,288.7188 A2.5,2.5 0 0 1 172.0313,291.2188 L8.5,291.2188 A2.5,2.5 0 0 1 6,288.7188 L6,238.5 A2.5,2.5 0 0 1 8.5,236 " fill="#F1F1F1" style="stroke:#181818;stroke-width:0.5;"/><line style="stroke:#181818;stroke-width:0.5;" x1="6" x2="167.5313" y1="259.6094" y2="259.6094"/><text fill="#000000" font-family="sans-serif" font-size="14" font-weight="bold" lengthAdjust="spacing" textLength="148.5313" x="10" y="252.5332">pingpy.output.bumper</text><path d="M213,236 L406.1035,236 A3.75,3.75 0 0 1 408.6035,238.5 L415.6035,259.6094 L420.1035,259.6094 A2.5,2.5 0 0 1 422.6035,262.1094 L422.6035,288.7188 A2.5,2.5 0 0 1 420.1035,291.2188 L213,291.2188 A2.5,2.5 0 0 1 210.5,288.7188 L210.5,238.5 A2.5,2.5 0 0 1 213,236 " fill="#F1F1F1" style="stroke:#181818;stroke-width:0.5;"/><line style="stroke:#181818;stroke-width:0.5;" x1="210.5" x2="415.6035" y1="259.6094" y2="259.6094"/><text fill="#000000" font-family="sans-serif" font-size="14" font-weight="bold" lengthAdjust="spacing" textLength="192.1035" x="214.5" y="252.5332">pingpy.output.linearActuator</text><path d="M238.5,6 L380.2246,6 A3.75,3.75 0 0 1 382.7246,8.5 L389.7246,29.6094 L394.2246,29.6094 A2.5,2.5 0 0 1 396.7246,32.1094 L396.7246,58.7188 A2.5,2.5 0 0 1 394.2246,61.2188 L238.5,61.2188 A2.5,2.5 0 0 1 236,58.7188 L236,8.5 A2.5,2.5 0 0 1 238.5,6 " fill="#F1F1F1" style="stroke:#181818;stroke-width:0.5;"/><line style="stroke:#181818;stroke-width:0.5;" x1="236" x2="389.7246" y1="29.6094" y2="29.6094"/><text fill="#000000" font-family="sans-serif" font-size="14" font-weight="bold" lengthAdjust="spacing" textLength="140.7246" x="240" y="22.5332">pingpy.output.output</text><path d="M240,121 L379.4414,121 A3.75,3.75 0 0 1 381.9414,123.5 L388.9414,144.6094 L393.4414,144.6094 A2.5,2.5 0 0 1 395.9414,147.1094 L395.9414,173.7188 A2.5,2.5 0 0 1 393.4414,176.2188 L240,176.2188 A2.5,2.5 0 0 1 237.5,173.7188 L237.5,123.5 A2.5,2.5 0 0 1 240,121 " fill="#F1F1F1" style="stroke:#181818;stroke-width:0.5;"/><line style="stroke:#181818;stroke-width:0.5;" x1="237.5" x2="388.9414" y1="144.6094" y2="144.6094"/><text fill="#000000" font-family="sans-serif" font-size="14" font-weight="bold" lengthAdjust="spacing" textLength="138.4414" x="241.5" y="137.5332">pingpy.output.player</text><path d="M460.5,236 L656.7207,236 A3.75,3.75 0 0 1 659.2207,238.5 L666.2207,259.6094 L670.7207,259.6094 A2.5,2.5 0 0 1 673.2207,262.1094 L673.2207,288.7188 A2.5,2.5 0 0 1 670.7207,291.2188 L460.5,291.2188 A2.5,2.5 0 0 1 458,288.7188 L458,238.5 A2.5,2.5 0 0 1 460.5,236 " fill="#F1F1F1" style="stroke:#181818;stroke-width:0.5;"/><line style="stroke:#181818;stroke-width:0.5;" x1="458" x2="666.2207" y1="259.6094" y2="259.6094"/><text fill="#000000" font-family="sans-serif" font-size="14" font-weight="bold" lengthAdjust="spacing" textLength="195.2207" x="462" y="252.5332">pingpy.output.playerLedStrip</text><path d="M433,121 L584.124,121 A3.75,3.75 0 0 1 586.624,123.5 L593.624,144.6094 L598.124,144.6094 A2.5,2.5 0 0 1 600.624,147.1094 L600.624,173.7188 A2.5,2.5 0 0 1 598.124,176.2188 L433,176.2188 A2.5,2.5 0 0 1 430.5,173.7188 L430.5,123.5 A2.5,2.5 0 0 1 433,121 " fill="#F1F1F1" style="stroke:#181818;stroke-width:0.5;"/><line style="stroke:#181818;stroke-width:0.5;" x1="430.5" x2="593.624" y1="144.6094" y2="144.6094"/><text fill="#000000" font-family="sans-serif" font-size="14" font-weight="bold" lengthAdjust="spacing" textLength="150.124" x="434.5" y="137.5332">pingpy.output.speaker</text><!--link pingpy.output to pingpy.output--><g id="link_pingpy.output_pingpy.output"><path codeLine="18" d="M183.24,12.13 C202.51,12.01 218,19.14 218,33.5 C218,47.86 208.5099,55.0274 189.2399,54.9074 " fill="transparent" id="pingpy.output-to-pingpy.output" style="stroke:#181818;stroke-width:1;"/><polygon fill="#181818" points="183.24,54.87,192.2149,58.926,188.2399,54.9011,192.2647,50.9261,183.24,54.87" style="stroke:#181818;stroke-width:1;"/></g><!--link pingpy.output.output to pingpy.output.UICorner--><g id="link_pingpy.output.output_pingpy.output.UICorner"><path codeLine="19" d="M268.65,61.14 C236.3,79.15 198.982,99.9109 166.622,117.9309 " fill="transparent" id="pingpy.output.output-to-pingpy.output.UICorner" style="stroke:#181818;stroke-width:1;"/><polygon fill="#181818" points="161.38,120.85,171.1891,119.9661,165.7484,118.4174,167.297,112.9767,161.38,120.85" style="stroke:#181818;stroke-width:1;"/></g><!--link pingpy.output.output to pingpy.output.player--><g id="link_pingpy.output.output_pingpy.output.player"><path codeLine="20" d="M316.5,61.28 C316.5,79.29 316.5,96.94 316.5,114.91 " fill="transparent" id="pingpy.output.output-to-pingpy.output.player" style="stroke:#181818;stroke-width:1;"/><polygon fill="#181818" points="316.5,120.91,320.5,111.91,316.5,115.91,312.5,111.91,316.5,120.91" style="stroke:#181818;stroke-width:1;"/></g><!--link pingpy.output.output to pingpy.output.speaker--><g id="link_pingpy.output.output_pingpy.output.speaker"><path codeLine="21" d="M363.41,61.14 C395.12,79.15 431.6231,99.8663 463.3431,117.8863 " fill="transparent" id="pingpy.output.output-to-pingpy.output.speaker" style="stroke:#181818;stroke-width:1;"/><polygon fill="#181818" points="468.56,120.85,462.7104,112.9265,464.2126,118.3802,458.7588,119.8824,468.56,120.85" style="stroke:#181818;stroke-width:1;"/></g><!--link pingpy.output.player to pingpy.output.bumper--><g id="link_pingpy.output.player_pingpy.output.bumper"><path codeLine="22" d="M263.23,176.14 C227.21,194.15 185.196,215.1455 149.176,233.1655 " fill="transparent" id="pingpy.output.player-to-pingpy.output.bumper" style="stroke:#181818;stroke-width:1;"/><polygon fill="#181818" points="143.81,235.85,153.6486,235.4006,148.2816,233.6129,150.0693,228.246,143.81,235.85" style="stroke:#181818;stroke-width:1;"/></g><!--link pingpy.output.player to pingpy.output.linearActuator--><g id="link_pingpy.output.player_pingpy.output.linearActuator"><path codeLine="23" d="M316.5,176.28 C316.5,194.29 316.5,211.94 316.5,229.91 " fill="transparent" id="pingpy.output.player-to-pingpy.output.linearActuator" style="stroke:#181818;stroke-width:1;"/><polygon fill="#181818" points="316.5,235.91,320.5,226.91,316.5,230.91,312.5,226.91,316.5,235.91" style="stroke:#181818;stroke-width:1;"/></g><!--link pingpy.output.player to pingpy.output.playerLedStrip--><g id="link_pingpy.output.player_pingpy.output.playerLedStrip"><path codeLine="24" d="M375.19,176.14 C414.88,194.15 461.6167,215.3496 501.3067,233.3696 " fill="transparent" id="pingpy.output.player-to-pingpy.output.playerLedStrip" style="stroke:#181818;stroke-width:1;"/><polygon fill="#181818" points="506.77,235.85,500.2287,228.4872,502.2173,233.783,496.9215,235.7715,506.77,235.85" style="stroke:#181818;stroke-width:1;"/></g><!--SRC=[ZP9D2i8m48NtEKNelZs28Au4TyK3Z7KeeMqov6THf7TNIIs4_9ZjlEyzyZ9Zq7892ng20Niaq62Lvb99P9_H12FoXeGSQUsKi-Himy7mOC9VRCl0tVrwKLgYZbs7LB8_t499inTArbb817qUhFisIaI4G2agLxoYFysm9WjuuR_rXi_UQa7PY1zGYZA4C2MViIlU72orRKyXovBT8-pOQotlQzJI-uDPyZTZtDz9BHsUHAqhtCCR]--></g></svg>