<svg xmlns="http://www.w3.org/2000/svg" xmlns:xlink="http://www.w3.org/1999/xlink" contentStyleType="text/css" data-diagram-type="CLASS" height="183px" preserveAspectRatio="none" style="width:173px;height:183px;background:#FFFFFF;" version="1.1" viewBox="0 0 173 183" width="173px" zoomAndPan="magnify"><defs/><g><path d="M33,6 L125.7656,6 A3.75,3.75 0 0 1 128.2656,8.5 L135.2656,29.6094 L139.7656,29.6094 A2.5,2.5 0 0 1 142.2656,32.1094 L142.2656,58.7188 A2.5,2.5 0 0 1 139.7656,61.2188 L33,61.2188 A2.5,2.5 0 0 1 30.5,58.7188 L30.5,8.5 A2.5,2.5 0 0 1 33,6 " fill="#F1F1F1" style="stroke:#181818;stroke-width:0.5;"/><line style="stroke:#181818;stroke-width:0.5;" x1="30.5" x2="135.2656" y1="29.6094" y2="29.6094"/><text fill="#000000" font-family="sans-serif" font-size="14" font-weight="bold" lengthAdjust="spacing" textLength="91.7656" x="34.5" y="22.5332">pingpy.debug</text><path d="M8.5,121 L150.2656,121 A3.75,3.75 0 0 1 152.7656,123.5 L159.7656,144.6094 L164.2656,144.6094 A2.5,2.5 0 0 1 166.7656,147.1094 L166.7656,173.7188 A2.5,2.5 0 0 1 164.2656,176.2188 L8.5,176.2188 A2.5,2.5 0 0 1 6,173.7188 L6,123.5 A2.5,2.5 0 0 1 8.5,121 " fill="#F1F1F1" style="stroke:#181818;stroke-width:0.5;"/><line style="stroke:#181818;stroke-width:0.5;" x1="6" x2="159.7656" y1="144.6094" y2="144.6094"/><text fill="#000000" font-family="sans-serif" font-size="14" font-weight="bold" lengthAdjust="spacing" textLength="140.7656" x="10" y="137.5332">pingpy.debug.logFile</text><!--link pingpy.debug to pingpy.debug.logFile--><g id="link_pingpy.debug_pingpy.debug.logFile"><path codeLine="6" d="M86.5,61.28 C86.5,79.29 86.5,96.94 86.5,114.91 " fill="transparent" id="pingpy.debug-to-pingpy.debug.logFile" style="stroke:#181818;stroke-width:1;"/><polygon fill="#181818" points="86.5,120.91,90.5,111.91,86.5,115.91,82.5,111.91,86.5,120.91" style="stroke:#181818;stroke-width:1;"/></g><!--SRC=[AqujKSXBp4qjBaXCJWrEBKWiIYp9BrB8oyzBvG8APIUcfoee5MJcfHTKwgMa9fMcAoaa5YiW2oXKSzLYLwgNav_kbfcJYg459W7HYcoMhguTLfK0]--></g></svg>