<svg xmlns="http://www.w3.org/2000/svg" xmlns:xlink="http://www.w3.org/1999/xlink" contentStyleType="text/css" data-diagram-type="CLASS" height="298px" preserveAspectRatio="none" style="width:714px;height:298px;background:#FFFFFF;" version="1.1" viewBox="0 0 714 298" width="714px" zoomAndPan="magnify"><defs/><g><path d="M10.5,6 L95.4795,6 A3.75,3.75 0 0 1 97.9795,8.5 L104.9795,29.6094 L109.4795,29.6094 A2.5,2.5 0 0 1 111.9795,32.1094 L111.9795,58.7188 A2.5,2.5 0 0 1 109.4795,61.2188 L10.5,61.2188 A2.5,2.5 0 0 1 8,58.7188 L8,8.5 A2.5,2.5 0 0 1 10.5,6 " fill="#F1F1F1" style="stroke:#181818;stroke-width:0.5;"/><line style="stroke:#181818;stroke-width:0.5;" x1="8" x2="104.9795" y1="29.6094" y2="29.6094"/><text fill="#000000" font-family="sans-serif" font-size="14" font-weight="bold" lengthAdjust="spacing" textLength="83.9795" x="12" y="22.5332">pingpy.input</text><path d="M57.5,121 L206.2656,121 A3.75,3.75 0 0 1 208.7656,123.5 L215.7656,144.6094 L220.2656,144.6094 A2.5,2.5 0 0 1 222.7656,147.1094 L222.7656,173.7188 A2.5,2.5 0 0 1 220.2656,176.2188 L57.5,176.2188 A2.5,2.5 0 0 1 55,173.7188 L55,123.5 A2.5,2.5 0 0 1 57.5,121 " fill="#F1F1F1" style="stroke:#181818;stroke-width:0.5;"/><line style="stroke:#181818;stroke-width:0.5;" x1="55" x2="215.7656" y1="144.6094" y2="144.6094"/><text fill="#000000" font-family="sans-serif" font-size="14" font-weight="bold" lengthAdjust="spacing" textLength="147.7656" x="59" y="137.5332">pingpy.input.UICorner</text><path d="M8.5,236 L179.0586,236 A3.75,3.75 0 0 1 181.5586,238.5 L188.5586,259.6094 L193.0586,259.6094 A2.5,2.5 0 0 1 195.5586,262.1094 L195.5586,288.7188 A2.5,2.5 0 0 1 193.0586,291.2188 L8.5,291.2188 A2.5,2.5 0 0 1 6,288.7188 L6,238.5 A2.5,2.5 0 0 1 8.5,236 " fill="#F1F1F1" style="stroke:#181818;stroke-width:0.5;"/><line style="stroke:#181818;stroke-width:0.5;" x1="6" x2="188.5586" y1="259.6094" y2="259.6094"/><text fill="#000000" font-family="sans-serif" font-size="14" font-weight="bold" lengthAdjust="spacing" textLength="169.5586" x="10" y="252.5332">pingpy.input.beamSwitch</text><path d="M472,236 L664.3311,236 A3.75,3.75 0 0 1 666.8311,238.5 L673.8311,259.6094 L678.3311,259.6094 A2.5,2.5 0 0 1 680.8311,262.1094 L680.8311,288.7188 A2.5,2.5 0 0 1 678.3311,291.2188 L472,291.2188 A2.5,2.5 0 0 1 469.5,288.7188 L469.5,238.5 A2.5,2.5 0 0 1 472,236 " fill="#F1F1F1" style="stroke:#181818;stroke-width:0.5;"/><line style="stroke:#181818;stroke-width:0.5;" x1="469.5" x2="673.8311" y1="259.6094" y2="259.6094"/><text fill="#000000" font-family="sans-serif" font-size="14" font-weight="bold" lengthAdjust="spacing" textLength="191.3311" x="473.5" y="252.5332">pingpy.input.gameController</text><path d="M445.5,121 L690.707,121 A3.75,3.75 0 0 1 693.207,123.5 L700.207,144.6094 L704.707,144.6094 A2.5,2.5 0 0 1 707.207,147.1094 L707.207,173.7188 A2.5,2.5 0 0 1 704.707,176.2188 L445.5,176.2188 A2.5,2.5 0 0 1 443,173.7188 L443,123.5 A2.5,2.5 0 0 1 445.5,121 " fill="#F1F1F1" style="stroke:#181818;stroke-width:0.5;"/><line style="stroke:#181818;stroke-width:0.5;" x1="443" x2="700.207" y1="144.6094" y2="144.6094"/><text fill="#000000" font-family="sans-serif" font-size="14" font-weight="bold" lengthAdjust="spacing" textLength="244.207" x="447" y="137.5332">pingpy.input.gameController3Button</text><path d="M167.5,6 L290.5762,6 A3.75,3.75 0 0 1 293.0762,8.5 L300.0762,29.6094 L304.5762,29.6094 A2.5,2.5 0 0 1 307.0762,32.1094 L307.0762,58.7188 A2.5,2.5 0 0 1 304.5762,61.2188 L167.5,61.2188 A2.5,2.5 0 0 1 165,58.7188 L165,8.5 A2.5,2.5 0 0 1 167.5,6 " fill="#F1F1F1" style="stroke:#181818;stroke-width:0.5;"/><line style="stroke:#181818;stroke-width:0.5;" x1="165" x2="300.0762" y1="29.6094" y2="29.6094"/><text fill="#000000" font-family="sans-serif" font-size="14" font-weight="bold" lengthAdjust="spacing" textLength="122.0762" x="169" y="22.5332">pingpy.input.input</text><path d="M234,236 L417.7793,236 A3.75,3.75 0 0 1 420.2793,238.5 L427.2793,259.6094 L431.7793,259.6094 A2.5,2.5 0 0 1 434.2793,262.1094 L434.2793,288.7188 A2.5,2.5 0 0 1 431.7793,291.2188 L234,291.2188 A2.5,2.5 0 0 1 231.5,288.7188 L231.5,238.5 A2.5,2.5 0 0 1 234,236 " fill="#F1F1F1" style="stroke:#181818;stroke-width:0.5;"/><line style="stroke:#181818;stroke-width:0.5;" x1="231.5" x2="427.2793" y1="259.6094" y2="259.6094"/><text fill="#000000" font-family="sans-serif" font-size="14" font-weight="bold" lengthAdjust="spacing" textLength="182.7793" x="235.5" y="252.5332">pingpy.input.linearActuator</text><path d="M261,121 L391.1172,121 A3.75,3.75 0 0 1 393.6172,123.5 L400.6172,144.6094 L405.1172,144.6094 A2.5,2.5 0 0 1 407.6172,147.1094 L407.6172,173.7188 A2.5,2.5 0 0 1 405.1172,176.2188 L261,176.2188 A2.5,2.5 0 0 1 258.5,173.7188 L258.5,123.5 A2.5,2.5 0 0 1 261,121 " fill="#F1F1F1" style="stroke:#181818;stroke-width:0.5;"/><line style="stroke:#181818;stroke-width:0.5;" x1="258.5" x2="400.6172" y1="144.6094" y2="144.6094"/><text fill="#000000" font-family="sans-serif" font-size="14" font-weight="bold" lengthAdjust="spacing" textLength="129.1172" x="262.5" y="137.5332">pingpy.input.player</text><!--link pingpy.input to pingpy.input--><g id="link_pingpy.input_pingpy.input"><path codeLine="18" d="M112.24,12.16 C131.35,11.58 147,18.69 147,33.5 C147,48.31 137.3472,55.602 118.2372,55.022 " fill="transparent" id="pingpy.input-to-pingpy.input" style="stroke:#181818;stroke-width:1;"/><polygon fill="#181818" points="112.24,54.84,121.1145,59.1112,117.2377,54.9917,121.3572,51.1149,112.24,54.84" style="stroke:#181818;stroke-width:1;"/></g><!--link pingpy.input.gameController3Button to pingpy.input.gameController--><g id="link_pingpy.input.gameController3Button_pingpy.input.gameController"><path codeLine="19" d="M575,176.28 C575,194.29 575,211.94 575,229.91 " fill="transparent" id="pingpy.input.gameController3Button-to-pingpy.input.gameController" style="stroke:#181818;stroke-width:1;"/><polygon fill="#181818" points="575,235.91,579,226.91,575,230.91,571,226.91,575,235.91" style="stroke:#181818;stroke-width:1;"/></g><!--link pingpy.input.input to pingpy.input.UICorner--><g id="link_pingpy.input.input_pingpy.input.UICorner"><path codeLine="20" d="M213.01,61.28 C197.55,79.29 181.1587,98.3879 165.7287,116.3579 " fill="transparent" id="pingpy.input.input-to-pingpy.input.UICorner" style="stroke:#181818;stroke-width:1;"/><polygon fill="#181818" points="161.82,120.91,170.7178,116.6876,165.0773,117.1165,164.6483,111.476,161.82,120.91" style="stroke:#181818;stroke-width:1;"/></g><!--link pingpy.input.input to pingpy.input.player--><g id="link_pingpy.input.input_pingpy.input.player"><path codeLine="21" d="M258.99,61.28 C274.45,79.29 290.8413,98.3879 306.2713,116.3579 " fill="transparent" id="pingpy.input.input-to-pingpy.input.player" style="stroke:#181818;stroke-width:1;"/><polygon fill="#181818" points="310.18,120.91,307.3517,111.476,306.9227,117.1165,301.2822,116.6876,310.18,120.91" style="stroke:#181818;stroke-width:1;"/></g><!--link pingpy.input.player to pingpy.input.beamSwitch--><g id="link_pingpy.input.player_pingpy.input.beamSwitch"><path codeLine="22" d="M278.31,176.14 C241.34,194.15 198.0937,215.2017 161.1137,233.2217 " fill="transparent" id="pingpy.input.player-to-pingpy.input.beamSwitch" style="stroke:#181818;stroke-width:1;"/><polygon fill="#181818" points="155.72,235.85,165.5628,235.5034,160.2148,233.6597,162.0584,228.3117,155.72,235.85" style="stroke:#181818;stroke-width:1;"/></g><!--link pingpy.input.player to pingpy.input.gameController--><g id="link_pingpy.input.player_pingpy.input.gameController"><path codeLine="23" d="M390.04,176.14 C428.61,194.15 473.9038,215.2908 512.4838,233.3108 " fill="transparent" id="pingpy.input.player-to-pingpy.input.gameController" style="stroke:#181818;stroke-width:1;"/><polygon fill="#181818" points="517.92,235.85,511.4584,228.4171,513.3898,233.734,508.0729,235.6654,517.92,235.85" style="stroke:#181818;stroke-width:1;"/></g><!--link pingpy.input.player to pingpy.input.linearActuator--><g id="link_pingpy.input.player_pingpy.input.linearActuator"><path codeLine="24" d="M333,176.28 C333,194.29 333,211.94 333,229.91 " fill="transparent" id="pingpy.input.player-to-pingpy.input.linearActuator" style="stroke:#181818;stroke-width:1;"/><polygon fill="#181818" points="333,235.91,337,226.91,333,230.91,329,226.91,333,235.91" style="stroke:#181818;stroke-width:1;"/></g><!--SRC=[ZP9D3e8m48NtFKN37ZRkJPILQ-81HZB1nZ9jIeaXnhkBGONIMhgTzxwN-UlGSe8MEmqrLgZ1W5M6ao9aO-a63V9C2shqK0ZIlSquT7nPu0_s35kBywbKXj1up4-9m1U4jheBMrzzVDOY0SquLgd86YLbg0TNJmxQ7Njh5MtbVMoHsF0wDvSg1I6OGstxzwLytjKZGLh24DhBL9_0vPtpVEyOMSBqQsPbOu79FUJxAqdcgNaM6iZppb-Kve_r_eznh_42]--></g></svg>