<svg xmlns="http://www.w3.org/2000/svg" xmlns:xlink="http://www.w3.org/1999/xlink" contentStyleType="text/css" data-diagram-type="CLASS" height="183px" preserveAspectRatio="none" style="width:202px;height:183px;background:#FFFFFF;" version="1.1" viewBox="0 0 202 183" width="202px" zoomAndPan="magnify"><defs/><g><path d="M36.5,6 L151.8242,6 A3.75,3.75 0 0 1 154.3242,8.5 L161.3242,29.6094 L165.8242,29.6094 A2.5,2.5 0 0 1 168.3242,32.1094 L168.3242,58.7188 A2.5,2.5 0 0 1 165.8242,61.2188 L36.5,61.2188 A2.5,2.5 0 0 1 34,58.7188 L34,8.5 A2.5,2.5 0 0 1 36.5,6 " fill="#F1F1F1" style="stroke:#181818;stroke-width:0.5;"/><line style="stroke:#181818;stroke-width:0.5;" x1="34" x2="161.3242" y1="29.6094" y2="29.6094"/><text fill="#000000" font-family="sans-serif" font-size="14" font-weight="bold" lengthAdjust="spacing" textLength="114.3242" x="38" y="22.5332">pingpy.gitUpdate</text><path d="M8.5,121 L179.0313,121 A3.75,3.75 0 0 1 181.5313,123.5 L188.5313,144.6094 L193.0313,144.6094 A2.5,2.5 0 0 1 195.5313,147.1094 L195.5313,173.7188 A2.5,2.5 0 0 1 193.0313,176.2188 L8.5,176.2188 A2.5,2.5 0 0 1 6,173.7188 L6,123.5 A2.5,2.5 0 0 1 8.5,121 " fill="#F1F1F1" style="stroke:#181818;stroke-width:0.5;"/><line style="stroke:#181818;stroke-width:0.5;" x1="6" x2="188.5313" y1="144.6094" y2="144.6094"/><text fill="#000000" font-family="sans-serif" font-size="14" font-weight="bold" lengthAdjust="spacing" textLength="169.5313" x="10" y="137.5332">pingpy.gitUpdate.hotspot</text><!--link pingpy.gitUpdate to pingpy.gitUpdate.hotspot--><g id="link_pingpy.gitUpdate_pingpy.gitUpdate.hotspot"><path codeLine="6" d="M101,61.28 C101,79.29 101,96.94 101,114.91 " fill="transparent" id="pingpy.gitUpdate-to-pingpy.gitUpdate.hotspot" style="stroke:#181818;stroke-width:1;"/><polygon fill="#181818" points="101,120.91,105,111.91,101,115.91,97,111.91,101,120.91" style="stroke:#181818;stroke-width:1;"/></g><!--SRC=[TOmn2e0m303tlY9qRv_W9yG710srY4beiuZuTmLnANQzuwwI0UDELN6caHGBcXHWON8FsZ0HUCsSz8WfswGB6dd02Ys4qrtz9AvYLSL-qq- -Y_ORmj0jRW00]--></g></svg>