<svg xmlns="http://www.w3.org/2000/svg" xmlns:xlink="http://www.w3.org/1999/xlink" contentStyleType="text/css" data-diagram-type="CLASS" height="183px" preserveAspectRatio="none" style="width:1235px;height:183px;background:#FFFFFF;" version="1.1" viewBox="0 0 1235 183" width="1235px" zoomAndPan="magnify"><defs/><g><path d="M689.5,6 L736.3828,6 A3.75,3.75 0 0 1 738.8828,8.5 L745.8828,29.6094 L750.3828,29.6094 A2.5,2.5 0 0 1 752.8828,32.1094 L752.8828,58.7188 A2.5,2.5 0 0 1 750.3828,61.2188 L689.5,61.2188 A2.5,2.5 0 0 1 687,58.7188 L687,8.5 A2.5,2.5 0 0 1 689.5,6 " fill="#F1F1F1" style="stroke:#181818;stroke-width:0.5;"/><line style="stroke:#181818;stroke-width:0.5;" x1="687" x2="745.8828" y1="29.6094" y2="29.6094"/><text fill="#000000" font-family="sans-serif" font-size="14" font-weight="bold" lengthAdjust="spacing" textLength="45.8828" x="691" y="22.5332">pingpy</text><path d="M790.5,6 L883.2656,6 A3.75,3.75 0 0 1 885.7656,8.5 L892.7656,29.6094 L897.2656,29.6094 A2.5,2.5 0 0 1 899.7656,32.1094 L899.7656,58.7188 A2.5,2.5 0 0 1 897.2656,61.2188 L790.5,61.2188 A2.5,2.5 0 0 1 788,58.7188 L788,8.5 A2.5,2.5 0 0 1 790.5,6 " fill="#F1F1F1" style="stroke:#181818;stroke-width:0.5;"/><line style="stroke:#181818;stroke-width:0.5;" x1="788" x2="892.7656" y1="29.6094" y2="29.6094"/><text fill="#000000" font-family="sans-serif" font-size="14" font-weight="bold" lengthAdjust="spacing" textLength="91.7656" x="792" y="22.5332">pingpy.config</text><path d="M8.5,121 L101.2656,121 A3.75,3.75 0 0 1 103.7656,123.5 L110.7656,144.6094 L115.2656,144.6094 A2.5,2.5 0 0 1 117.7656,147.1094 L117.7656,173.7188 A2.5,2.5 0 0 1 115.2656,176.2188 L8.5,176.2188 A2.5,2.5 0 0 1 6,173.7188 L6,123.5 A2.5,2.5 0 0 1 8.5,121 " fill="#F1F1F1" style="stroke:#181818;stroke-width:0.5;"/><line style="stroke:#181818;stroke-width:0.5;" x1="6" x2="110.7656" y1="144.6094" y2="144.6094"/><text fill="#000000" font-family="sans-serif" font-size="14" font-weight="bold" lengthAdjust="spacing" textLength="91.7656" x="10" y="137.5332">pingpy.debug</text><path d="M156,121 L279.8965,121 A3.75,3.75 0 0 1 282.3965,123.5 L289.3965,144.6094 L293.8965,144.6094 A2.5,2.5 0 0 1 296.3965,147.1094 L296.3965,173.7188 A2.5,2.5 0 0 1 293.8965,176.2188 L156,176.2188 A2.5,2.5 0 0 1 153.5,173.7188 L153.5,123.5 A2.5,2.5 0 0 1 156,121 " fill="#F1F1F1" style="stroke:#181818;stroke-width:0.5;"/><line style="stroke:#181818;stroke-width:0.5;" x1="153.5" x2="289.3965" y1="144.6094" y2="144.6094"/><text fill="#000000" font-family="sans-serif" font-size="14" font-weight="bold" lengthAdjust="spacing" textLength="122.8965" x="157.5" y="137.5332">pingpy.gameMode</text><path d="M334.5,121 L449.8242,121 A3.75,3.75 0 0 1 452.3242,123.5 L459.3242,144.6094 L463.8242,144.6094 A2.5,2.5 0 0 1 466.3242,147.1094 L466.3242,173.7188 A2.5,2.5 0 0 1 463.8242,176.2188 L334.5,176.2188 A2.5,2.5 0 0 1 332,173.7188 L332,123.5 A2.5,2.5 0 0 1 334.5,121 " fill="#F1F1F1" style="stroke:#181818;stroke-width:0.5;"/><line style="stroke:#181818;stroke-width:0.5;" x1="332" x2="459.3242" y1="144.6094" y2="144.6094"/><text fill="#000000" font-family="sans-serif" font-size="14" font-weight="bold" lengthAdjust="spacing" textLength="114.3242" x="336" y="137.5332">pingpy.gitUpdate</text><path d="M503.5,121 L616.5205,121 A3.75,3.75 0 0 1 619.0205,123.5 L626.0205,144.6094 L630.5205,144.6094 A2.5,2.5 0 0 1 633.0205,147.1094 L633.0205,173.7188 A2.5,2.5 0 0 1 630.5205,176.2188 L503.5,176.2188 A2.5,2.5 0 0 1 501,173.7188 L501,123.5 A2.5,2.5 0 0 1 503.5,121 " fill="#F1F1F1" style="stroke:#181818;stroke-width:0.5;"/><line style="stroke:#181818;stroke-width:0.5;" x1="501" x2="626.0205" y1="144.6094" y2="144.6094"/><text fill="#000000" font-family="sans-serif" font-size="14" font-weight="bold" lengthAdjust="spacing" textLength="112.0205" x="505" y="137.5332">pingpy.hardware</text><path d="M670.5,121 L755.4795,121 A3.75,3.75 0 0 1 757.9795,123.5 L764.9795,144.6094 L769.4795,144.6094 A2.5,2.5 0 0 1 771.9795,147.1094 L771.9795,173.7188 A2.5,2.5 0 0 1 769.4795,176.2188 L670.5,176.2188 A2.5,2.5 0 0 1 668,173.7188 L668,123.5 A2.5,2.5 0 0 1 670.5,121 " fill="#F1F1F1" style="stroke:#181818;stroke-width:0.5;"/><line style="stroke:#181818;stroke-width:0.5;" x1="668" x2="764.9795" y1="144.6094" y2="144.6094"/><text fill="#000000" font-family="sans-serif" font-size="14" font-weight="bold" lengthAdjust="spacing" textLength="83.9795" x="672" y="137.5332">pingpy.input</text><path d="M810,121 L904.3037,121 A3.75,3.75 0 0 1 906.8037,123.5 L913.8037,144.6094 L918.3037,144.6094 A2.5,2.5 0 0 1 920.8037,147.1094 L920.8037,173.7188 A2.5,2.5 0 0 1 918.3037,176.2188 L810,176.2188 A2.5,2.5 0 0 1 807.5,173.7188 L807.5,123.5 A2.5,2.5 0 0 1 810,121 " fill="#F1F1F1" style="stroke:#181818;stroke-width:0.5;"/><line style="stroke:#181818;stroke-width:0.5;" x1="807.5" x2="913.8037" y1="144.6094" y2="144.6094"/><text fill="#000000" font-family="sans-serif" font-size="14" font-weight="bold" lengthAdjust="spacing" textLength="93.3037" x="811.5" y="137.5332">pingpy.output</text><path d="M958,121 L1038.3174,121 A3.75,3.75 0 0 1 1040.8174,123.5 L1047.8174,144.6094 L1052.3174,144.6094 A2.5,2.5 0 0 1 1054.8174,147.1094 L1054.8174,173.7188 A2.5,2.5 0 0 1 1052.3174,176.2188 L958,176.2188 A2.5,2.5 0 0 1 955.5,173.7188 L955.5,123.5 A2.5,2.5 0 0 1 958,121 " fill="#F1F1F1" style="stroke:#181818;stroke-width:0.5;"/><line style="stroke:#181818;stroke-width:0.5;" x1="955.5" x2="1047.8174" y1="144.6094" y2="144.6094"/><text fill="#000000" font-family="sans-serif" font-size="14" font-weight="bold" lengthAdjust="spacing" textLength="79.3174" x="959.5" y="137.5332">pingpy.ping</text><path d="M1092.5,121 L1211.7549,121 A3.75,3.75 0 0 1 1214.2549,123.5 L1221.2549,144.6094 L1225.7549,144.6094 A2.5,2.5 0 0 1 1228.2549,147.1094 L1228.2549,173.7188 A2.5,2.5 0 0 1 1225.7549,176.2188 L1092.5,176.2188 A2.5,2.5 0 0 1 1090,173.7188 L1090,123.5 A2.5,2.5 0 0 1 1092.5,121 " fill="#F1F1F1" style="stroke:#181818;stroke-width:0.5;"/><line style="stroke:#181818;stroke-width:0.5;" x1="1090" x2="1221.2549" y1="144.6094" y2="144.6094"/><text fill="#000000" font-family="sans-serif" font-size="14" font-weight="bold" lengthAdjust="spacing" textLength="118.2549" x="1094" y="137.5332">pingpy.serialHard</text><!--link pingpy to pingpy.debug--><g id="link_pingpy_pingpy.debug"><path codeLine="90" d="M686.95,37.1 C597.23,44.65 342.05,69.38 136,121 C130.18,122.46 129.8921,122.395 123.9321,124.275 " fill="transparent" id="pingpy-to-pingpy.debug" style="stroke:#181818;stroke-width:1;"/><polygon fill="#181818" points="118.21,126.08,127.9964,127.1873,122.9784,124.5759,125.5898,119.5579,118.21,126.08" style="stroke:#181818;stroke-width:1;"/></g><!--link pingpy to pingpy.gameMode--><g id="link_pingpy_pingpy.gameMode"><path codeLine="91" d="M686.9,40.63 C617.41,53.69 451.4,85.97 314,121 C308.38,122.43 308.3528,122.3903 302.5328,124.0003 " fill="transparent" id="pingpy-to-pingpy.gameMode" style="stroke:#181818;stroke-width:1;"/><polygon fill="#181818" points="296.75,125.6,306.4907,127.0556,301.569,124.2669,304.3577,119.3452,296.75,125.6" style="stroke:#181818;stroke-width:1;"/></g><!--link pingpy to pingpy.gitUpdate--><g id="link_pingpy_pingpy.gitUpdate"><path codeLine="92" d="M686.86,46.17 C635.04,64.41 539.4394,98.0571 471.9094,121.8371 " fill="transparent" id="pingpy-to-pingpy.gitUpdate" style="stroke:#181818;stroke-width:1;"/><polygon fill="#181818" points="466.25,123.83,476.0676,124.6136,470.9661,122.1693,473.4105,117.0678,466.25,123.83" style="stroke:#181818;stroke-width:1;"/></g><!--link pingpy to pingpy.hardware--><g id="link_pingpy_pingpy.hardware"><path codeLine="93" d="M686.8,59.02 C662.1,77.26 633.2564,98.5654 607.8964,117.2954 " fill="transparent" id="pingpy-to-pingpy.hardware" style="stroke:#181818;stroke-width:1;"/><polygon fill="#181818" points="603.07,120.86,612.6859,118.7307,607.092,117.8895,607.9332,112.2956,603.07,120.86" style="stroke:#181818;stroke-width:1;"/></g><!--link pingpy to pingpy.input--><g id="link_pingpy_pingpy.input"><path codeLine="94" d="M720,61.28 C720,79.29 720,96.94 720,114.91 " fill="transparent" id="pingpy-to-pingpy.input" style="stroke:#181818;stroke-width:1;"/><polygon fill="#181818" points="720,120.91,724,111.91,720,115.91,716,111.91,720,120.91" style="stroke:#181818;stroke-width:1;"/></g><!--link pingpy to pingpy.output--><g id="link_pingpy_pingpy.output"><path codeLine="95" d="M753.04,60.42 C776.12,78.54 802.1298,98.946 825.3998,117.206 " fill="transparent" id="pingpy-to-pingpy.output" style="stroke:#181818;stroke-width:1;"/><polygon fill="#181818" points="830.12,120.91,825.509,112.2072,826.1865,117.8234,820.5703,118.5009,830.12,120.91" style="stroke:#181818;stroke-width:1;"/></g><!--link pingpy to pingpy.ping--><g id="link_pingpy_pingpy.ping"><path codeLine="96" d="M753.18,60.64 C753.45,60.76 753.73,60.88 754,61 C826.27,92.59 847.21,93.16 921,121 C931.88,125.11 938.0702,127.6551 949.5202,131.8751 " fill="transparent" id="pingpy-to-pingpy.ping" style="stroke:#181818;stroke-width:1;"/><polygon fill="#181818" points="955.15,133.95,948.0886,127.0844,950.4585,132.2209,945.322,134.5908,955.15,133.95" style="stroke:#181818;stroke-width:1;"/></g><!--link pingpy.ping to pingpy--><g id="link_pingpy.ping_pingpy"><path codeLine="162" d="M955.57,120.84 C882.13,93.16 861.12,92.52 789,61 C777.48,55.96 770.4317,51.9094 758.5217,46.6094 " fill="transparent" id="pingpy.ping-to-pingpy" style="stroke:#181818;stroke-width:1;"/><polygon fill="#181818" points="753.04,44.17,759.6363,51.4836,757.6081,46.2028,762.8889,44.1746,753.04,44.17" style="stroke:#181818;stroke-width:1;"/></g><!--link pingpy to pingpy.serialHard--><g id="link_pingpy_pingpy.serialHard"><path codeLine="97" d="M753.14,53.42 C758.97,56.25 765.07,58.92 771,61 C899.69,106.23 939.7,87.75 1072,121 C1077.82,122.46 1078.054,122.4458 1084.064,124.1358 " fill="transparent" id="pingpy-to-pingpy.serialHard" style="stroke:#181818;stroke-width:1;"/><polygon fill="#181818" points="1089.84,125.76,1082.2588,119.4731,1085.0267,124.4065,1080.0932,127.1744,1089.84,125.76" style="stroke:#181818;stroke-width:1;"/></g><!--SRC=[fLXBRvmm4BxdLw1SSWfIaqjFbPfLcrPAf2hR77gglE2oA82HCTf4LVzx5up1Znd6jAVT-7im7hosltHS9GshUTUoZEzvooHJGYQDQFZ5UUY55JovRCkcQDyk4zOb-clo- -AF3wUPQ7wLXSMQHaRoLGBJKTKYlah2P-Nyq3kYSG1vqeYbbIW-bnKFH0P0dbISc_CeSaTdnf3d6JXbweVevKxKDMjooC1bJ1Mi61wOKXL_4c-i0Wjo2BJTsjpiIH8sLLaSrNTvXha4hMm2RLVpMkoEh6n0hncbZOQ_xyz_W3u6f6qapn-62TnBpfln6sWOqcZhxlpMxyGhw3TXjCc9bUeyz2H43HfPEBR6I_NSvaovdJA3s2etU7eKgck50iK6H9vyP38_CUays8mXppLmodebzgTIPKT8RS5e2sTkqPRYKMGle941QPkAvtibonQqCI1j8zlovwcxUV_k5Qt9fI3DBPksTzxAE82qTSJIvwyx8HltP-mYQFcQTk2i3b-AZn4cmzBTYKP9KLLGBIw-oUpshbTAD9JdH2EiuGRFRLwJLcN3cVoOgNuuRqCF5oVCsegzGNtIuyZg4BtogjSZoFhG8BX0F0WjTk8T-he53JH0oV7EWGJA3cl3qerLUTXw1uYJFm3x1aYWxBgMinUmd0b1riBmOOk63_2Ert5PikhBUHkowSieidWMGlff_-ts1XPh39sZHOHM8G37M6NWFWCIOkpqrvrx54EuUHFwFdrz_S6vb0BZvZo787FQ0fWvCW1et2I0SRra063u08QNwGsziU_Z_hJCNTlZpLTmY- -aW8K_tqg1pW1Ni4YXTKKA5Tub7TBFx-Pg_KQ-KGlLR1qnaGfdFmCqpksSVcEaBcPcc7PzTfYAck6I6JQMEOU4ZJeW2yGlRKAjzuUjgfYgJUBOABFpnOPP8Z9iUWXzhS0vm4HK1N7zKY1E47G0_fo1DjG1QRnwvfn4sq9K82X52aoI2UbswA9taZ1XqPDTObG4rqj9k4BVsAbzo0j2X9qTToYg5sYsqKrM-MyLHFDDWauXAmvXWuKXtJUDZgJhcx9Fzi80LSfqQu-TNqYFTFLNIAnY_ULWAhS9j0gy_IwoAHdH1x0V3F4-kGcGv4M_LJVB_GFFcqAymb-E57yAQ860N68ep-bfF1zRB9JEJQg8xe7UlRt0YYGZ7L4NSD5x0FO3zcahfvjFNTbE5v6LYU5VrXXsD_339KXAe1zl4BVfLgr9l9UtHeLICAY4zWkwj8XTXc175vY1HpLTOXPpn9Fyw3AN_pLigXAKZKN-1G00]--></g></svg>