<svg xmlns="http://www.w3.org/2000/svg" xmlns:xlink="http://www.w3.org/1999/xlink" contentStyleType="text/css" data-diagram-type="CLASS" height="68px" preserveAspectRatio="none" style="width:317px;height:68px;background:#FFFFFF;" version="1.1" viewBox="0 0 317 68" width="317px" zoomAndPan="magnify"><defs/><g><path d="M8.5,6 L101.2656,6 A3.75,3.75 0 0 1 103.7656,8.5 L110.7656,29.6094 L115.2656,29.6094 A2.5,2.5 0 0 1 117.7656,32.1094 L117.7656,58.7188 A2.5,2.5 0 0 1 115.2656,61.2188 L8.5,61.2188 A2.5,2.5 0 0 1 6,58.7188 L6,8.5 A2.5,2.5 0 0 1 8.5,6 " fill="#F1F1F1" style="stroke:#181818;stroke-width:0.5;"/><line style="stroke:#181818;stroke-width:0.5;" x1="6" x2="110.7656" y1="29.6094" y2="29.6094"/><text fill="#000000" font-family="sans-serif" font-size="14" font-weight="bold" lengthAdjust="spacing" textLength="91.7656" x="10" y="22.5332">pingpy.config</text><path d="M155.5,6 L294.1484,6 A3.75,3.75 0 0 1 296.6484,8.5 L303.6484,29.6094 L308.1484,29.6094 A2.5,2.5 0 0 1 310.6484,32.1094 L310.6484,58.7188 A2.5,2.5 0 0 1 308.1484,61.2188 L155.5,61.2188 A2.5,2.5 0 0 1 153,58.7188 L153,8.5 A2.5,2.5 0 0 1 155.5,6 " fill="#F1F1F1" style="stroke:#181818;stroke-width:0.5;"/><line style="stroke:#181818;stroke-width:0.5;" x1="153" x2="303.6484" y1="29.6094" y2="29.6094"/><text fill="#000000" font-family="sans-serif" font-size="14" font-weight="bold" lengthAdjust="spacing" textLength="137.6484" x="157" y="22.5332">pingpy.config.config</text><!--SRC=[AqujKSXBp4qjBaXCJWrEBKWiIYp9BrB8oyzBvG8APIUcfoee5MJcfHTKwYNdvwLbfYif91Ohe8WeL7FLub2CKm-ILW00]--></g></svg>