<svg xmlns="http://www.w3.org/2000/svg" xmlns:xlink="http://www.w3.org/1999/xlink" contentStyleType="text/css" data-diagram-type="CLASS" height="121px" preserveAspectRatio="none" style="width:355px;height:121px;background:#FFFFFF;" version="1.1" viewBox="0 0 355 121" width="355px" zoomAndPan="magnify"><defs/><g><!--class pingpy.debug.logFile.LogFile--><g id="elem_pingpy.debug.logFile.LogFile"><rect codeLine="2" fill="#F1F1F1" height="100.8281" id="pingpy.debug.logFile.LogFile" rx="2.5" ry="2.5" style="stroke:#181818;stroke-width:0.5;" width="334.1436" x="7" y="7"/><ellipse cx="146.8633" cy="23" fill="#ADD1B2" rx="11" ry="11" style="stroke:#181818;stroke-width:1;"/><path d="M149.6289,18.875 Q149.7852,18.6563 149.9727,18.5469 Q150.1602,18.4375 150.3789,18.4375 Q150.7539,18.4375 150.9883,18.7031 Q151.2227,18.9531 151.2227,19.5625 L151.2227,21.0156 Q151.2227,21.625 150.9883,21.8906 Q150.7539,22.1563 150.3789,22.1563 Q150.0352,22.1563 149.832,21.9531 Q149.6289,21.7656 149.5195,21.25 Q149.4727,20.8906 149.2852,20.7031 Q148.957,20.3281 148.3477,20.1094 Q147.7383,19.8906 147.1133,19.8906 Q146.3477,19.8906 145.707,20.2188 Q145.082,20.5469 144.582,21.2969 Q144.0977,22.0469 144.0977,23.0781 L144.0977,24.1719 Q144.0977,25.4063 144.9883,26.2344 Q145.8789,27.0469 147.4727,27.0469 Q148.4102,27.0469 149.0664,26.7969 Q149.457,26.6406 149.8789,26.2031 Q150.1445,25.9375 150.2852,25.8594 Q150.4414,25.7813 150.6445,25.7813 Q150.9727,25.7813 151.2227,26.0469 Q151.4883,26.2969 151.4883,26.6406 Q151.4883,26.9844 151.1445,27.3906 Q150.6445,27.9688 149.8477,28.2969 Q148.7695,28.75 147.4727,28.75 Q145.957,28.75 144.7539,28.125 Q143.7695,27.625 143.082,26.5625 Q142.3945,25.4844 142.3945,24.2031 L142.3945,23.0469 Q142.3945,21.7188 143.0039,20.5781 Q143.6289,19.4219 144.7227,18.8125 Q145.8164,18.1875 147.0508,18.1875 Q147.7852,18.1875 148.4258,18.3594 Q149.082,18.5156 149.6289,18.875 Z " fill="#000000"/><text fill="#000000" font-family="sans-serif" font-size="14" lengthAdjust="spacing" textLength="45.917" x="167.3633" y="28.7285">LogFile</text><line style="stroke:#181818;stroke-width:0.5;" x1="8" x2="340.1436" y1="39" y2="39"/><text fill="#000000" font-family="sans-serif" font-size="14" lengthAdjust="spacing" textLength="85.5859" x="13" y="57.5332">logFolder : str</text><line style="stroke:#181818;stroke-width:0.5;" x1="8" x2="340.1436" y1="64.6094" y2="64.6094"/><text fill="#000000" font-family="sans-serif" font-size="14" lengthAdjust="spacing" textLength="100.3857" x="13" y="83.1426">create_log_file()</text><text fill="#000000" font-family="sans-serif" font-size="14" lengthAdjust="spacing" textLength="322.1436" x="13" y="100.752">write_in_log(status, programme, function, message)</text></g><!--SRC=[BSun2iCm38NXFQTuP4eWv00zGATkFK1G7SKO7Db82gMKthqExVhzRtZ63g6ThLBWErTIygAG8jo5J6ReRoLUK-OUPAX9OdtDAp-EEETVcFy3l3lWj99NLbnWhas2CZalBInRMmrZiwUcHabE7Sp93vjGjKIbVUS9so71Kv49xPbHvB7xV040]--></g></svg>