<svg xmlns="http://www.w3.org/2000/svg" xmlns:xlink="http://www.w3.org/1999/xlink" contentStyleType="text/css" data-diagram-type="CLASS" height="298px" preserveAspectRatio="none" style="width:678px;height:298px;background:#FFFFFF;" version="1.1" viewBox="0 0 678 298" width="678px" zoomAndPan="magnify"><defs/><g><path d="M261.5,6 L380.7549,6 A3.75,3.75 0 0 1 383.2549,8.5 L390.2549,29.6094 L394.7549,29.6094 A2.5,2.5 0 0 1 397.2549,32.1094 L397.2549,58.7188 A2.5,2.5 0 0 1 394.7549,61.2188 L261.5,61.2188 A2.5,2.5 0 0 1 259,58.7188 L259,8.5 A2.5,2.5 0 0 1 261.5,6 " fill="#F1F1F1" style="stroke:#181818;stroke-width:0.5;"/><line style="stroke:#181818;stroke-width:0.5;" x1="259" x2="390.2549" y1="29.6094" y2="29.6094"/><text fill="#000000" font-family="sans-serif" font-size="14" font-weight="bold" lengthAdjust="spacing" textLength="118.2549" x="263" y="22.5332">pingpy.serialHard</text><path d="M8.5,121 L175.2305,121 A3.75,3.75 0 0 1 177.7305,123.5 L184.7305,144.6094 L189.2305,144.6094 A2.5,2.5 0 0 1 191.7305,147.1094 L191.7305,173.7188 A2.5,2.5 0 0 1 189.2305,176.2188 L8.5,176.2188 A2.5,2.5 0 0 1 6,173.7188 L6,123.5 A2.5,2.5 0 0 1 8.5,121 " fill="#F1F1F1" style="stroke:#181818;stroke-width:0.5;"/><line style="stroke:#181818;stroke-width:0.5;" x1="6" x2="184.7305" y1="144.6094" y2="144.6094"/><text fill="#000000" font-family="sans-serif" font-size="14" font-weight="bold" lengthAdjust="spacing" textLength="165.7305" x="10" y="137.5332">pingpy.serialHard.ESP32</text><path d="M229.5,121 L412.541,121 A3.75,3.75 0 0 1 415.041,123.5 L422.041,144.6094 L426.541,144.6094 A2.5,2.5 0 0 1 429.041,147.1094 L429.041,173.7188 A2.5,2.5 0 0 1 426.541,176.2188 L229.5,176.2188 A2.5,2.5 0 0 1 227,173.7188 L227,123.5 A2.5,2.5 0 0 1 229.5,121 " fill="#F1F1F1" style="stroke:#181818;stroke-width:0.5;"/><line style="stroke:#181818;stroke-width:0.5;" x1="227" x2="422.041" y1="144.6094" y2="144.6094"/><text fill="#000000" font-family="sans-serif" font-size="14" font-weight="bold" lengthAdjust="spacing" textLength="182.041" x="231" y="137.5332">pingpy.serialHard.UICorner</text><path d="M467,121 L654.71,121 A3.75,3.75 0 0 1 657.21,123.5 L664.21,144.6094 L668.71,144.6094 A2.5,2.5 0 0 1 671.21,147.1094 L671.21,173.7188 A2.5,2.5 0 0 1 668.71,176.2188 L467,176.2188 A2.5,2.5 0 0 1 464.5,173.7188 L464.5,123.5 A2.5,2.5 0 0 1 467,121 " fill="#F1F1F1" style="stroke:#181818;stroke-width:0.5;"/><line style="stroke:#181818;stroke-width:0.5;" x1="464.5" x2="664.21" y1="144.6094" y2="144.6094"/><text fill="#000000" font-family="sans-serif" font-size="14" font-weight="bold" lengthAdjust="spacing" textLength="186.71" x="468.5" y="137.5332">pingpy.serialHard.controller</text><path d="M225.5,236 L416.3408,236 A3.75,3.75 0 0 1 418.8408,238.5 L425.8408,259.6094 L430.3408,259.6094 A2.5,2.5 0 0 1 432.8408,262.1094 L432.8408,288.7188 A2.5,2.5 0 0 1 430.3408,291.2188 L225.5,291.2188 A2.5,2.5 0 0 1 223,288.7188 L223,238.5 A2.5,2.5 0 0 1 225.5,236 " fill="#F1F1F1" style="stroke:#181818;stroke-width:0.5;"/><line style="stroke:#181818;stroke-width:0.5;" x1="223" x2="425.8408" y1="259.6094" y2="259.6094"/><text fill="#000000" font-family="sans-serif" font-size="14" font-weight="bold" lengthAdjust="spacing" textLength="189.8408" x="227" y="252.5332">pingpy.serialHard.serialCom</text><!--link pingpy.serialHard to pingpy.serialHard.ESP32--><g id="link_pingpy.serialHard_pingpy.serialHard.ESP32"><path codeLine="12" d="M274.02,61.14 C237.52,79.15 194.9003,100.1745 158.3903,118.1945 " fill="transparent" id="pingpy.serialHard-to-pingpy.serialHard.ESP32" style="stroke:#181818;stroke-width:1;"/><polygon fill="#181818" points="153.01,120.85,162.8509,120.4536,157.4936,118.637,159.3102,113.2798,153.01,120.85" style="stroke:#181818;stroke-width:1;"/></g><!--link pingpy.serialHard to pingpy.serialHard.UICorner--><g id="link_pingpy.serialHard_pingpy.serialHard.UICorner"><path codeLine="13" d="M328,61.28 C328,79.29 328,96.94 328,114.91 " fill="transparent" id="pingpy.serialHard-to-pingpy.serialHard.UICorner" style="stroke:#181818;stroke-width:1;"/><polygon fill="#181818" points="328,120.91,332,111.91,328,115.91,324,111.91,328,120.91" style="stroke:#181818;stroke-width:1;"/></g><!--link pingpy.serialHard to pingpy.serialHard.controller--><g id="link_pingpy.serialHard_pingpy.serialHard.controller"><path codeLine="14" d="M384.57,61.14 C422.82,79.15 467.7122,100.2729 505.9622,118.2929 " fill="transparent" id="pingpy.serialHard-to-pingpy.serialHard.controller" style="stroke:#181818;stroke-width:1;"/><polygon fill="#181818" points="511.39,120.85,504.953,113.3958,506.8668,118.7191,501.5435,120.6329,511.39,120.85" style="stroke:#181818;stroke-width:1;"/></g><!--link pingpy.serialHard.ESP32 to pingpy.serialHard.serialCom--><g id="link_pingpy.serialHard.ESP32_pingpy.serialHard.serialCom"><path codeLine="15" d="M152.98,176.14 C189.48,194.15 232.0997,215.1745 268.6097,233.1945 " fill="transparent" id="pingpy.serialHard.ESP32-to-pingpy.serialHard.serialCom" style="stroke:#181818;stroke-width:1;"/><polygon fill="#181818" points="273.99,235.85,267.6898,228.2798,269.5064,233.637,264.1491,235.4536,273.99,235.85" style="stroke:#181818;stroke-width:1;"/></g><!--link pingpy.serialHard.UICorner to pingpy.serialHard.serialCom--><g id="link_pingpy.serialHard.UICorner_pingpy.serialHard.serialCom"><path codeLine="16" d="M328,176.28 C328,194.29 328,211.94 328,229.91 " fill="transparent" id="pingpy.serialHard.UICorner-to-pingpy.serialHard.serialCom" style="stroke:#181818;stroke-width:1;"/><polygon fill="#181818" points="328,235.91,332,226.91,328,230.91,324,226.91,328,235.91" style="stroke:#181818;stroke-width:1;"/></g><!--link pingpy.serialHard.controller to pingpy.serialHard.serialCom--><g id="link_pingpy.serialHard.controller_pingpy.serialHard.serialCom"><path codeLine="17" d="M511.43,176.14 C473.18,194.15 428.2878,215.2729 390.0378,233.2929 " fill="transparent" id="pingpy.serialHard.controller-to-pingpy.serialHard.serialCom" style="stroke:#181818;stroke-width:1;"/><polygon fill="#181818" points="384.61,235.85,394.4565,235.6329,389.1332,233.7191,391.047,228.3958,384.61,235.85" style="stroke:#181818;stroke-width:1;"/></g><!--SRC=[AqujKSXBp4qjBaXCJWrEBKWiIYp9BrB8oyzBvG8APIUcfoee5MJcfHTKwXMd5cKcvdWa5gKeAIGMAs28AbHprUBHfESQ761iX5qhH8wG0Q6Uplb5UQb5ECo0IHCo9Za_hwGeFoS7fq481OICWZ2TytDnc0INXnY44MAwkdQu0eDerJ1l4wq1uJqkN161NIFSDrnu0fzqhKZ1JK0p0000]--></g></svg>