<svg xmlns="http://www.w3.org/2000/svg" xmlns:xlink="http://www.w3.org/1999/xlink" contentStyleType="text/css" data-diagram-type="CLASS" height="504px" preserveAspectRatio="none" style="width:806px;height:504px;background:#FFFFFF;" version="1.1" viewBox="0 0 806 504" width="806px" zoomAndPan="magnify"><defs/><g><!--class pingpy.serialHard.controller.ControllerSerial--><g id="elem_pingpy.serialHard.controller.ControllerSerial"><rect codeLine="2" fill="#F1F1F1" height="100.8281" id="pingpy.serialHard.controller.ControllerSerial" rx="2.5" ry="2.5" style="stroke:#181818;stroke-width:0.5;" width="245.4473" x="7" y="33.5"/><ellipse cx="77.2324" cy="49.5" fill="#ADD1B2" rx="11" ry="11" style="stroke:#181818;stroke-width:1;"/><path d="M79.998,45.375 Q80.1543,45.1563 80.3418,45.0469 Q80.5293,44.9375 80.748,44.9375 Q81.123,44.9375 81.3574,45.2031 Q81.5918,45.4531 81.5918,46.0625 L81.5918,47.5156 Q81.5918,48.125 81.3574,48.3906 Q81.123,48.6563 80.748,48.6563 Q80.4043,48.6563 80.2012,48.4531 Q79.998,48.2656 79.8887,47.75 Q79.8418,47.3906 79.6543,47.2031 Q79.3262,46.8281 78.7168,46.6094 Q78.1074,46.3906 77.4824,46.3906 Q76.7168,46.3906 76.0762,46.7188 Q75.4512,47.0469 74.9512,47.7969 Q74.4668,48.5469 74.4668,49.5781 L74.4668,50.6719 Q74.4668,51.9063 75.3574,52.7344 Q76.248,53.5469 77.8418,53.5469 Q78.7793,53.5469 79.4355,53.2969 Q79.8262,53.1406 80.248,52.7031 Q80.5137,52.4375 80.6543,52.3594 Q80.8105,52.2813 81.0137,52.2813 Q81.3418,52.2813 81.5918,52.5469 Q81.8574,52.7969 81.8574,53.1406 Q81.8574,53.4844 81.5137,53.8906 Q81.0137,54.4688 80.2168,54.7969 Q79.1387,55.25 77.8418,55.25 Q76.3262,55.25 75.123,54.625 Q74.1387,54.125 73.4512,53.0625 Q72.7637,51.9844 72.7637,50.7031 L72.7637,49.5469 Q72.7637,48.2188 73.373,47.0781 Q73.998,45.9219 75.0918,45.3125 Q76.1855,44.6875 77.4199,44.6875 Q78.1543,44.6875 78.7949,44.8594 Q79.4512,45.0156 79.998,45.375 Z " fill="#000000"/><text fill="#000000" font-family="sans-serif" font-size="14" lengthAdjust="spacing" textLength="96.4824" x="97.7324" y="55.2285">ControllerSerial</text><line style="stroke:#181818;stroke-width:0.5;" x1="8" x2="251.4473" y1="65.5" y2="65.5"/><text fill="#000000" font-family="sans-serif" font-size="14" lengthAdjust="spacing" textLength="88.7168" x="13" y="84.0332">controllerInput</text><line style="stroke:#181818;stroke-width:0.5;" x1="8" x2="251.4473" y1="91.1094" y2="91.1094"/><text fill="#000000" font-family="sans-serif" font-size="14" lengthAdjust="spacing" textLength="233.4473" x="13" y="109.6426">read(controllerInput, controllerOutput)</text><text fill="#000000" font-family="sans-serif" font-size="14" lengthAdjust="spacing" textLength="223.3232" x="13" y="127.252">stopOnDisconnect(controllerOutput)</text></g><!--class pingpy.serialHard.ESP32.ESP32Serial--><g id="elem_pingpy.serialHard.ESP32.ESP32Serial"><rect codeLine="7" fill="#F1F1F1" height="136.0469" id="pingpy.serialHard.ESP32.ESP32Serial" rx="2.5" ry="2.5" style="stroke:#181818;stroke-width:0.5;" width="202.6543" x="287" y="16"/><ellipse cx="344.3877" cy="32" fill="#ADD1B2" rx="11" ry="11" style="stroke:#181818;stroke-width:1;"/><path d="M347.1533,27.875 Q347.3096,27.6563 347.4971,27.5469 Q347.6846,27.4375 347.9033,27.4375 Q348.2783,27.4375 348.5127,27.7031 Q348.7471,27.9531 348.7471,28.5625 L348.7471,30.0156 Q348.7471,30.625 348.5127,30.8906 Q348.2783,31.1563 347.9033,31.1563 Q347.5596,31.1563 347.3564,30.9531 Q347.1533,30.7656 347.0439,30.25 Q346.9971,29.8906 346.8096,29.7031 Q346.4814,29.3281 345.8721,29.1094 Q345.2627,28.8906 344.6377,28.8906 Q343.8721,28.8906 343.2314,29.2188 Q342.6064,29.5469 342.1064,30.2969 Q341.6221,31.0469 341.6221,32.0781 L341.6221,33.1719 Q341.6221,34.4063 342.5127,35.2344 Q343.4033,36.0469 344.9971,36.0469 Q345.9346,36.0469 346.5908,35.7969 Q346.9814,35.6406 347.4033,35.2031 Q347.6689,34.9375 347.8096,34.8594 Q347.9658,34.7813 348.1689,34.7813 Q348.4971,34.7813 348.7471,35.0469 Q349.0127,35.2969 349.0127,35.6406 Q349.0127,35.9844 348.6689,36.3906 Q348.1689,36.9688 347.3721,37.2969 Q346.2939,37.75 344.9971,37.75 Q343.4814,37.75 342.2783,37.125 Q341.2939,36.625 340.6064,35.5625 Q339.9189,34.4844 339.9189,33.2031 L339.9189,32.0469 Q339.9189,30.7188 340.5283,29.5781 Q341.1533,28.4219 342.2471,27.8125 Q343.3408,27.1875 344.5752,27.1875 Q345.3096,27.1875 345.9502,27.3594 Q346.6064,27.5156 347.1533,27.875 Z " fill="#000000"/><text fill="#000000" font-family="sans-serif" font-size="14" lengthAdjust="spacing" textLength="79.3789" x="364.8877" y="37.7285">ESP32Serial</text><line style="stroke:#181818;stroke-width:0.5;" x1="288" x2="488.6543" y1="48" y2="48"/><text fill="#000000" font-family="sans-serif" font-size="14" lengthAdjust="spacing" textLength="98.8203" x="293" y="66.5332">key_values : list</text><line style="stroke:#181818;stroke-width:0.5;" x1="288" x2="488.6543" y1="73.6094" y2="73.6094"/><text fill="#000000" font-family="sans-serif" font-size="14" lengthAdjust="spacing" textLength="190.6543" x="293" y="92.1426">process_key_values(input_ptr)</text><text fill="#000000" font-family="sans-serif" font-size="14" lengthAdjust="spacing" textLength="91.8271" x="293" y="109.752">read(input_ptr)</text><text fill="#000000" font-family="sans-serif" font-size="14" lengthAdjust="spacing" textLength="106.6201" x="293" y="127.3613">setup(output_ptr)</text><text fill="#000000" font-family="sans-serif" font-size="14" lengthAdjust="spacing" textLength="164.1924" x="293" y="144.9707">write(output_ptr, input_ptr)</text></g><!--class pingpy.serialHard.serialCom.SerialCom--><g id="elem_pingpy.serialHard.serialCom.SerialCom"><rect codeLine="14" fill="#F1F1F1" height="276.9219" id="pingpy.serialHard.serialCom.SerialCom" rx="2.5" ry="2.5" style="stroke:#181818;stroke-width:0.5;" width="237.6816" x="269.5" y="221"/><ellipse cx="351.415" cy="237" fill="#ADD1B2" rx="11" ry="11" style="stroke:#181818;stroke-width:1;"/><path d="M354.1807,232.875 Q354.3369,232.6563 354.5244,232.5469 Q354.7119,232.4375 354.9307,232.4375 Q355.3057,232.4375 355.54,232.7031 Q355.7744,232.9531 355.7744,233.5625 L355.7744,235.0156 Q355.7744,235.625 355.54,235.8906 Q355.3057,236.1563 354.9307,236.1563 Q354.5869,236.1563 354.3838,235.9531 Q354.1807,235.7656 354.0713,235.25 Q354.0244,234.8906 353.8369,234.7031 Q353.5088,234.3281 352.8994,234.1094 Q352.29,233.8906 351.665,233.8906 Q350.8994,233.8906 350.2588,234.2188 Q349.6338,234.5469 349.1338,235.2969 Q348.6494,236.0469 348.6494,237.0781 L348.6494,238.1719 Q348.6494,239.4063 349.54,240.2344 Q350.4307,241.0469 352.0244,241.0469 Q352.9619,241.0469 353.6182,240.7969 Q354.0088,240.6406 354.4307,240.2031 Q354.6963,239.9375 354.8369,239.8594 Q354.9932,239.7813 355.1963,239.7813 Q355.5244,239.7813 355.7744,240.0469 Q356.04,240.2969 356.04,240.6406 Q356.04,240.9844 355.6963,241.3906 Q355.1963,241.9688 354.3994,242.2969 Q353.3213,242.75 352.0244,242.75 Q350.5088,242.75 349.3057,242.125 Q348.3213,241.625 347.6338,240.5625 Q346.9463,239.4844 346.9463,238.2031 L346.9463,237.0469 Q346.9463,235.7188 347.5557,234.5781 Q348.1807,233.4219 349.2744,232.8125 Q350.3682,232.1875 351.6025,232.1875 Q352.3369,232.1875 352.9775,232.3594 Q353.6338,232.5156 354.1807,232.875 Z " fill="#000000"/><text fill="#000000" font-family="sans-serif" font-size="14" lengthAdjust="spacing" textLength="65.3516" x="371.915" y="242.7285">SerialCom</text><line style="stroke:#181818;stroke-width:0.5;" x1="270.5" x2="506.1816" y1="253" y2="253"/><text fill="#000000" font-family="sans-serif" font-size="14" lengthAdjust="spacing" textLength="55.2686" x="275.5" y="271.5332">baudrate</text><text fill="#000000" font-family="sans-serif" font-size="14" lengthAdjust="spacing" textLength="102.7441" x="275.5" y="289.1426">connected : bool</text><text fill="#000000" font-family="sans-serif" font-size="14" lengthAdjust="spacing" textLength="121.3994" x="275.5" y="306.752">failed_attempts : int</text><text fill="#000000" font-family="sans-serif" font-size="14" lengthAdjust="spacing" textLength="100.3857" x="275.5" y="324.3613">port : NoneType</text><text fill="#000000" font-family="sans-serif" font-size="14" lengthAdjust="spacing" textLength="67.71" x="275.5" y="341.9707">queue : list</text><text fill="#000000" font-family="sans-serif" font-size="14" lengthAdjust="spacing" textLength="139.2822" x="275.5" y="359.5801">ser : NoneType, Serial</text><text fill="#000000" font-family="sans-serif" font-size="14" lengthAdjust="spacing" textLength="46.6689" x="275.5" y="377.1895">symlink</text><text fill="#000000" font-family="sans-serif" font-size="14" lengthAdjust="spacing" textLength="45.9102" x="275.5" y="394.7988">timeout</text><line style="stroke:#181818;stroke-width:0.5;" x1="270.5" x2="506.1816" y1="401.875" y2="401.875"/><text fill="#000000" font-family="sans-serif" font-size="14" lengthAdjust="spacing" textLength="140.082" x="275.5" y="420.4082">consume_older_data()</text><text fill="#000000" font-family="sans-serif" font-size="14" lengthAdjust="spacing" textLength="225.6816" x="275.5" y="438.0176">read_data_task(onDisconnect, args)</text><text fill="#000000" font-family="sans-serif" font-size="14" lengthAdjust="spacing" textLength="101.9648" x="275.5" y="455.627">send_data(data)</text><text fill="#000000" font-family="sans-serif" font-size="14" lengthAdjust="spacing" textLength="43.5723" x="275.5" y="473.2363">setup()</text><text fill="#000000" font-family="sans-serif" font-size="14" lengthAdjust="spacing" textLength="90.2754" x="275.5" y="490.8457">stop_reading()</text></g><!--class pingpy.serialHard.UICorner.UICornerSerial--><g id="elem_pingpy.serialHard.UICorner.UICornerSerial"><rect codeLine="29" fill="#F1F1F1" height="153.6563" id="pingpy.serialHard.UICorner.UICornerSerial" rx="2.5" ry="2.5" style="stroke:#181818;stroke-width:0.5;" width="274.2744" x="525.5" y="7"/><ellipse cx="612.0942" cy="23" fill="#ADD1B2" rx="11" ry="11" style="stroke:#181818;stroke-width:1;"/><path d="M614.8599,18.875 Q615.0161,18.6563 615.2036,18.5469 Q615.3911,18.4375 615.6099,18.4375 Q615.9849,18.4375 616.2192,18.7031 Q616.4536,18.9531 616.4536,19.5625 L616.4536,21.0156 Q616.4536,21.625 616.2192,21.8906 Q615.9849,22.1563 615.6099,22.1563 Q615.2661,22.1563 615.063,21.9531 Q614.8599,21.7656 614.7505,21.25 Q614.7036,20.8906 614.5161,20.7031 Q614.188,20.3281 613.5786,20.1094 Q612.9692,19.8906 612.3442,19.8906 Q611.5786,19.8906 610.938,20.2188 Q610.313,20.5469 609.813,21.2969 Q609.3286,22.0469 609.3286,23.0781 L609.3286,24.1719 Q609.3286,25.4063 610.2192,26.2344 Q611.1099,27.0469 612.7036,27.0469 Q613.6411,27.0469 614.2974,26.7969 Q614.688,26.6406 615.1099,26.2031 Q615.3755,25.9375 615.5161,25.8594 Q615.6724,25.7813 615.8755,25.7813 Q616.2036,25.7813 616.4536,26.0469 Q616.7192,26.2969 616.7192,26.6406 Q616.7192,26.9844 616.3755,27.3906 Q615.8755,27.9688 615.0786,28.2969 Q614.0005,28.75 612.7036,28.75 Q611.188,28.75 609.9849,28.125 Q609.0005,27.625 608.313,26.5625 Q607.6255,25.4844 607.6255,24.2031 L607.6255,23.0469 Q607.6255,21.7188 608.2349,20.5781 Q608.8599,19.4219 609.9536,18.8125 Q611.0474,18.1875 612.2817,18.1875 Q613.0161,18.1875 613.6567,18.3594 Q614.313,18.5156 614.8599,18.875 Z " fill="#000000"/><text fill="#000000" font-family="sans-serif" font-size="14" lengthAdjust="spacing" textLength="92.5859" x="632.5942" y="28.7285">UICornerSerial</text><line style="stroke:#181818;stroke-width:0.5;" x1="526.5" x2="798.7744" y1="39" y2="39"/><text fill="#000000" font-family="sans-serif" font-size="14" lengthAdjust="spacing" textLength="217.0889" x="531.5" y="57.5332">lastResetPressedTime : NoneType</text><text fill="#000000" font-family="sans-serif" font-size="14" lengthAdjust="spacing" textLength="214.7988" x="531.5" y="75.1426">resetButtonState : NoneType, bool</text><line style="stroke:#181818;stroke-width:0.5;" x1="526.5" x2="798.7744" y1="82.2188" y2="82.2188"/><text fill="#000000" font-family="sans-serif" font-size="14" lengthAdjust="spacing" textLength="262.2744" x="531.5" y="100.752">manageResetButton(input_ptr, output_ptr)</text><text fill="#000000" font-family="sans-serif" font-size="14" lengthAdjust="spacing" textLength="162.6543" x="531.5" y="118.3613">read(input_ptr, output_ptr)</text><text fill="#000000" font-family="sans-serif" font-size="14" lengthAdjust="spacing" textLength="106.6201" x="531.5" y="135.9707">setup(output_ptr)</text><text fill="#000000" font-family="sans-serif" font-size="14" lengthAdjust="spacing" textLength="164.1924" x="531.5" y="153.5801">write(output_ptr, input_ptr)</text></g><!--link pingpy.serialHard.ESP32.ESP32Serial to pingpy.serialHard.serialCom.SerialCom--><g id="link_pingpy.serialHard.ESP32.ESP32Serial_pingpy.serialHard.serialCom.SerialCom"><path codeLine="37" d="M388.5,152.26 C388.5,173.13 388.5,178.95 388.5,202.81 " fill="transparent" id="pingpy.serialHard.ESP32.ESP32Serial-to-pingpy.serialHard.serialCom.SerialCom" style="stroke:#181818;stroke-width:1;"/><polygon fill="transparent" points="388.5,220.81,394.5,202.81,382.5,202.81,388.5,220.81" style="stroke:#181818;stroke-width:1;"/></g><!--link pingpy.serialHard.UICorner.UICornerSerial to pingpy.serialHard.serialCom.SerialCom--><g id="link_pingpy.serialHard.UICorner.UICornerSerial_pingpy.serialHard.serialCom.SerialCom"><path codeLine="38" d="M586.18,161.18 C561.79,185.53 546.9299,200.364 520.2599,226.984 " fill="transparent" id="pingpy.serialHard.UICorner.UICornerSerial-to-pingpy.serialHard.serialCom.SerialCom" style="stroke:#181818;stroke-width:1;"/><polygon fill="transparent" points="507.52,239.7,524.4985,231.2306,516.0212,222.7374,507.52,239.7" style="stroke:#181818;stroke-width:1;"/></g><!--link pingpy.serialHard.controller.ControllerSerial to pingpy.serialHard.serialCom.SerialCom--><g id="link_pingpy.serialHard.controller.ControllerSerial_pingpy.serialHard.serialCom.SerialCom"><path codeLine="39" d="M176.4,134.53 C202.57,162.16 224.0821,184.8815 257.0621,219.7015 " fill="transparent" id="pingpy.serialHard.controller.ControllerSerial-to-pingpy.serialHard.serialCom.SerialCom" style="stroke:#181818;stroke-width:1;"/><polygon fill="transparent" points="269.44,232.77,261.4182,215.5755,252.7059,223.8275,269.44,232.77" style="stroke:#181818;stroke-width:1;"/></g><!--SRC=[fLInRjim4Dtz5OGd1P0rD5k63dK3D4iJnEuidAMhGPWY6TwnWP7sttkaAajoaTH85q5wx_7uxjr1XAmiT4WU6joWXm3iWhBEug8nGAIMQsSvE6CmR31eC4i5fBosUt-iA2DV8BHLSv9LvoVKoqAfaR-pFh8W0Q4jpk1oehkFBCYLA8cTlxUVDGbfiU7YRz6lmUxjvk7wmvjEiwAQwBA_0nxh7s0YahfHHbDow8DhaAWUkK8dbxNdS3LqC4C8EVh2PLC3zXmqumGhrUJ8oNTlPUswLrpJm5SdPVQzWzZAqB2FEAM3hNImSyu8z1sqmRO6PkmyfzQqpPsvmFBnLUQyFVfq-2bYnB5rkMx2bwg_D177pcXxa3VM7ReyIRcOOeUrCos6kWM6OeWdVzKCT2ZSP8AbWh2dFZ7RYuhq63CSvbwdAf96CSdgsztQ1VkFXHn4rLoTGvCo_8XoqKEG-MAxbLRcSOJ4VehCpcvOufs5yIVS3YpiyN5KZhjGglaEp3Vbd7t7rboorglLpu-NRTBYylZ-g-XRFudB2_y6]--></g></svg>