<svg xmlns="http://www.w3.org/2000/svg" xmlns:xlink="http://www.w3.org/1999/xlink" contentStyleType="text/css" data-diagram-type="CLASS" height="645px" preserveAspectRatio="none" style="width:823px;height:645px;background:#FFFFFF;" version="1.1" viewBox="0 0 823 645" width="823px" zoomAndPan="magnify"><defs/><g><!--class pingpy.hardware.autoSwitch.AutoSwitch--><g id="elem_pingpy.hardware.autoSwitch.AutoSwitch"><rect codeLine="2" fill="#F1F1F1" height="171.2656" id="pingpy.hardware.autoSwitch.AutoSwitch" rx="2.5" ry="2.5" style="stroke:#181818;stroke-width:0.5;" width="234.5645" x="7" y="51"/><ellipse cx="85.0151" cy="67" fill="#ADD1B2" rx="11" ry="11" style="stroke:#181818;stroke-width:1;"/><path d="M87.7808,62.875 Q87.937,62.6563 88.1245,62.5469 Q88.312,62.4375 88.5308,62.4375 Q88.9058,62.4375 89.1401,62.7031 Q89.3745,62.9531 89.3745,63.5625 L89.3745,65.0156 Q89.3745,65.625 89.1401,65.8906 Q88.9058,66.1563 88.5308,66.1563 Q88.187,66.1563 87.9839,65.9531 Q87.7808,65.7656 87.6714,65.25 Q87.6245,64.8906 87.437,64.7031 Q87.1089,64.3281 86.4995,64.1094 Q85.8901,63.8906 85.2651,63.8906 Q84.4995,63.8906 83.8589,64.2188 Q83.2339,64.5469 82.7339,65.2969 Q82.2495,66.0469 82.2495,67.0781 L82.2495,68.1719 Q82.2495,69.4063 83.1401,70.2344 Q84.0308,71.0469 85.6245,71.0469 Q86.562,71.0469 87.2183,70.7969 Q87.6089,70.6406 88.0308,70.2031 Q88.2964,69.9375 88.437,69.8594 Q88.5933,69.7813 88.7964,69.7813 Q89.1245,69.7813 89.3745,70.0469 Q89.6401,70.2969 89.6401,70.6406 Q89.6401,70.9844 89.2964,71.3906 Q88.7964,71.9688 87.9995,72.2969 Q86.9214,72.75 85.6245,72.75 Q84.1089,72.75 82.9058,72.125 Q81.9214,71.625 81.2339,70.5625 Q80.5464,69.4844 80.5464,68.2031 L80.5464,67.0469 Q80.5464,65.7188 81.1558,64.5781 Q81.7808,63.4219 82.8745,62.8125 Q83.9683,62.1875 85.2026,62.1875 Q85.937,62.1875 86.5776,62.3594 Q87.2339,62.5156 87.7808,62.875 Z " fill="#000000"/><text fill="#000000" font-family="sans-serif" font-size="14" lengthAdjust="spacing" textLength="70.0342" x="105.5151" y="72.7285">AutoSwitch</text><line style="stroke:#181818;stroke-width:0.5;" x1="8" x2="240.5645" y1="83" y2="83"/><text fill="#000000" font-family="sans-serif" font-size="14" lengthAdjust="spacing" textLength="70.8408" x="13" y="101.5332">autoLedPin</text><text fill="#000000" font-family="sans-serif" font-size="14" lengthAdjust="spacing" textLength="100.4063" x="13" y="119.1426">autoMode : bool</text><text fill="#000000" font-family="sans-serif" font-size="14" lengthAdjust="spacing" textLength="88.7168" x="13" y="136.752">autoSwitchPin</text><text fill="#000000" font-family="sans-serif" font-size="14" lengthAdjust="spacing" textLength="89.5098" x="13" y="154.3613">ledState : bool</text><text fill="#000000" font-family="sans-serif" font-size="14" lengthAdjust="spacing" textLength="222.5645" x="13" y="171.9707">monitor_thread : NoneType, Thread</text><line style="stroke:#181818;stroke-width:0.5;" x1="8" x2="240.5645" y1="179.0469" y2="179.0469"/><text fill="#000000" font-family="sans-serif" font-size="14" lengthAdjust="spacing" textLength="102.6895" x="13" y="197.5801">monitor_switch()</text><text fill="#000000" font-family="sans-serif" font-size="14" lengthAdjust="spacing" textLength="43.5723" x="13" y="215.1895">setup()</text></g><!--class pingpy.hardware.rpi_ws281xMock.Color--><g id="elem_pingpy.hardware.rpi_ws281xMock.Color"><rect codeLine="11" fill="#F1F1F1" height="100.8281" id="pingpy.hardware.rpi_ws281xMock.Color" rx="2.5" ry="2.5" style="stroke:#181818;stroke-width:0.5;" width="65.4551" x="277" y="86"/><ellipse cx="292" cy="102" fill="#ADD1B2" rx="11" ry="11" style="stroke:#181818;stroke-width:1;"/><path d="M294.7656,97.875 Q294.9219,97.6563 295.1094,97.5469 Q295.2969,97.4375 295.5156,97.4375 Q295.8906,97.4375 296.125,97.7031 Q296.3594,97.9531 296.3594,98.5625 L296.3594,100.0156 Q296.3594,100.625 296.125,100.8906 Q295.8906,101.1563 295.5156,101.1563 Q295.1719,101.1563 294.9688,100.9531 Q294.7656,100.7656 294.6563,100.25 Q294.6094,99.8906 294.4219,99.7031 Q294.0938,99.3281 293.4844,99.1094 Q292.875,98.8906 292.25,98.8906 Q291.4844,98.8906 290.8438,99.2188 Q290.2188,99.5469 289.7188,100.2969 Q289.2344,101.0469 289.2344,102.0781 L289.2344,103.1719 Q289.2344,104.4063 290.125,105.2344 Q291.0156,106.0469 292.6094,106.0469 Q293.5469,106.0469 294.2031,105.7969 Q294.5938,105.6406 295.0156,105.2031 Q295.2813,104.9375 295.4219,104.8594 Q295.5781,104.7813 295.7813,104.7813 Q296.1094,104.7813 296.3594,105.0469 Q296.625,105.2969 296.625,105.6406 Q296.625,105.9844 296.2813,106.3906 Q295.7813,106.9688 294.9844,107.2969 Q293.9063,107.75 292.6094,107.75 Q291.0938,107.75 289.8906,107.125 Q288.9063,106.625 288.2188,105.5625 Q287.5313,104.4844 287.5313,103.2031 L287.5313,102.0469 Q287.5313,100.7188 288.1406,99.5781 Q288.7656,98.4219 289.8594,97.8125 Q290.9531,97.1875 292.1875,97.1875 Q292.9219,97.1875 293.5625,97.3594 Q294.2188,97.5156 294.7656,97.875 Z " fill="#000000"/><text fill="#000000" font-family="sans-serif" font-size="14" lengthAdjust="spacing" textLength="33.4551" x="306" y="107.7285">Color</text><line style="stroke:#181818;stroke-width:0.5;" x1="278" x2="341.4551" y1="118" y2="118"/><text fill="#000000" font-family="sans-serif" font-size="14" lengthAdjust="spacing" textLength="7.7861" x="283" y="136.5332">b</text><text fill="#000000" font-family="sans-serif" font-size="14" lengthAdjust="spacing" textLength="7.7861" x="283" y="154.1426">g</text><text fill="#000000" font-family="sans-serif" font-size="14" lengthAdjust="spacing" textLength="4.6621" x="283" y="171.752">r</text><line style="stroke:#181818;stroke-width:0.5;" x1="278" x2="341.4551" y1="178.8281" y2="178.8281"/></g><!--class pingpy.hardware.gpioMock.GPIO--><g id="elem_pingpy.hardware.gpioMock.GPIO"><rect codeLine="16" fill="#F1F1F1" height="259.3125" id="pingpy.hardware.gpioMock.GPIO" rx="2.5" ry="2.5" style="stroke:#181818;stroke-width:0.5;" width="118.5996" x="65" y="362"/><ellipse cx="103.2167" cy="378" fill="#ADD1B2" rx="11" ry="11" style="stroke:#181818;stroke-width:1;"/><path d="M105.9824,373.875 Q106.1386,373.6563 106.3261,373.5469 Q106.5136,373.4375 106.7324,373.4375 Q107.1074,373.4375 107.3417,373.7031 Q107.5761,373.9531 107.5761,374.5625 L107.5761,376.0156 Q107.5761,376.625 107.3417,376.8906 Q107.1074,377.1563 106.7324,377.1563 Q106.3886,377.1563 106.1855,376.9531 Q105.9824,376.7656 105.873,376.25 Q105.8261,375.8906 105.6386,375.7031 Q105.3105,375.3281 104.7011,375.1094 Q104.0917,374.8906 103.4667,374.8906 Q102.7011,374.8906 102.0605,375.2188 Q101.4355,375.5469 100.9355,376.2969 Q100.4511,377.0469 100.4511,378.0781 L100.4511,379.1719 Q100.4511,380.4063 101.3417,381.2344 Q102.2324,382.0469 103.8261,382.0469 Q104.7636,382.0469 105.4199,381.7969 Q105.8105,381.6406 106.2324,381.2031 Q106.498,380.9375 106.6386,380.8594 Q106.7949,380.7813 106.998,380.7813 Q107.3261,380.7813 107.5761,381.0469 Q107.8417,381.2969 107.8417,381.6406 Q107.8417,381.9844 107.498,382.3906 Q106.998,382.9688 106.2011,383.2969 Q105.123,383.75 103.8261,383.75 Q102.3105,383.75 101.1074,383.125 Q100.123,382.625 99.4355,381.5625 Q98.748,380.4844 98.748,379.2031 L98.748,378.0469 Q98.748,376.7188 99.3574,375.5781 Q99.9824,374.4219 101.0761,373.8125 Q102.1699,373.1875 103.4042,373.1875 Q104.1386,373.1875 104.7792,373.3594 Q105.4355,373.5156 105.9824,373.875 Z " fill="#000000"/><text fill="#000000" font-family="sans-serif" font-size="14" lengthAdjust="spacing" textLength="35.0068" x="122.376" y="383.7285">GPIO</text><line style="stroke:#181818;stroke-width:0.5;" x1="66" x2="182.5996" y1="394" y2="394"/><text fill="#000000" font-family="sans-serif" font-size="14" lengthAdjust="spacing" textLength="58.3311" x="71" y="412.5332">BCM : str</text><text fill="#000000" font-family="sans-serif" font-size="14" lengthAdjust="spacing" textLength="77.0068" x="71" y="430.1426">BOARD : str</text><text fill="#000000" font-family="sans-serif" font-size="14" lengthAdjust="spacing" textLength="73.1377" x="71" y="447.752">HIGH : bool</text><text fill="#000000" font-family="sans-serif" font-size="14" lengthAdjust="spacing" textLength="41.2207" x="71" y="465.3613">IN : str</text><text fill="#000000" font-family="sans-serif" font-size="14" lengthAdjust="spacing" textLength="70.0273" x="71" y="482.9707">LOW : bool</text><text fill="#000000" font-family="sans-serif" font-size="14" lengthAdjust="spacing" textLength="56.7725" x="71" y="500.5801">OUT : str</text><line style="stroke:#181818;stroke-width:0.5;" x1="66" x2="182.5996" y1="507.6563" y2="507.6563"/><text fill="#000000" font-family="sans-serif" font-size="14" lengthAdjust="spacing" textLength="58.3652" x="71" y="526.1895">cleanup()</text><text fill="#000000" font-family="sans-serif" font-size="14" lengthAdjust="spacing" textLength="58.3652" x="71" y="543.7988">input(pin)</text><text fill="#000000" font-family="sans-serif" font-size="14" lengthAdjust="spacing" textLength="105.0615" x="71" y="561.4082">output(pin, state)</text><text fill="#000000" font-family="sans-serif" font-size="14" lengthAdjust="spacing" textLength="98.041" x="71" y="579.0176">setmode(mode)</text><text fill="#000000" font-family="sans-serif" font-size="14" lengthAdjust="spacing" textLength="105.0547" x="71" y="596.627">setup(pin, mode)</text><text fill="#000000" font-family="sans-serif" font-size="14" lengthAdjust="spacing" textLength="106.5996" x="71" y="614.2363">setwarnings(flag)</text></g><!--class pingpy.hardware.ledStrip.LedStrip--><g id="elem_pingpy.hardware.ledStrip.LedStrip"><rect codeLine="30" fill="#F1F1F1" height="153.6563" id="pingpy.hardware.ledStrip.LedStrip" rx="2.5" ry="2.5" style="stroke:#181818;stroke-width:0.5;" width="320.0615" x="496.5" y="414.5"/><ellipse cx="626.2085" cy="430.5" fill="#ADD1B2" rx="11" ry="11" style="stroke:#181818;stroke-width:1;"/><path d="M628.9741,426.375 Q629.1304,426.1563 629.3179,426.0469 Q629.5054,425.9375 629.7241,425.9375 Q630.0991,425.9375 630.3335,426.2031 Q630.5679,426.4531 630.5679,427.0625 L630.5679,428.5156 Q630.5679,429.125 630.3335,429.3906 Q630.0991,429.6563 629.7241,429.6563 Q629.3804,429.6563 629.1772,429.4531 Q628.9741,429.2656 628.8647,428.75 Q628.8179,428.3906 628.6304,428.2031 Q628.3022,427.8281 627.6929,427.6094 Q627.0835,427.3906 626.4585,427.3906 Q625.6929,427.3906 625.0522,427.7188 Q624.4272,428.0469 623.9272,428.7969 Q623.4429,429.5469 623.4429,430.5781 L623.4429,431.6719 Q623.4429,432.9063 624.3335,433.7344 Q625.2241,434.5469 626.8179,434.5469 Q627.7554,434.5469 628.4116,434.2969 Q628.8022,434.1406 629.2241,433.7031 Q629.4897,433.4375 629.6304,433.3594 Q629.7866,433.2813 629.9897,433.2813 Q630.3179,433.2813 630.5679,433.5469 Q630.8335,433.7969 630.8335,434.1406 Q630.8335,434.4844 630.4897,434.8906 Q629.9897,435.4688 629.1929,435.7969 Q628.1147,436.25 626.8179,436.25 Q625.3022,436.25 624.0991,435.625 Q623.1147,435.125 622.4272,434.0625 Q621.7397,432.9844 621.7397,431.7031 L621.7397,430.5469 Q621.7397,429.2188 622.3491,428.0781 Q622.9741,426.9219 624.0679,426.3125 Q625.1616,425.6875 626.396,425.6875 Q627.1304,425.6875 627.771,425.8594 Q628.4272,426.0156 628.9741,426.375 Z " fill="#000000"/><text fill="#000000" font-family="sans-serif" font-size="14" lengthAdjust="spacing" textLength="52.1445" x="646.7085" y="436.2285">LedStrip</text><line style="stroke:#181818;stroke-width:0.5;" x1="497.5" x2="815.5615" y1="446.5" y2="446.5"/><text fill="#000000" font-family="sans-serif" font-size="14" lengthAdjust="spacing" textLength="26.4482" x="502.5" y="465.0332">strip</text><line style="stroke:#181818;stroke-width:0.5;" x1="497.5" x2="815.5615" y1="472.1094" y2="472.1094"/><text fill="#000000" font-family="sans-serif" font-size="14" lengthAdjust="spacing" textLength="39.6689" x="502.5" y="490.6426">clear()</text><text fill="#000000" font-family="sans-serif" font-size="14" lengthAdjust="spacing" textLength="112.834" x="502.5" y="508.252">onLedStrip(r, g, b)</text><text fill="#000000" font-family="sans-serif" font-size="14" lengthAdjust="spacing" textLength="308.0615" x="502.5" y="525.8613">setLedStrip(color, OFFSET_MIN, OFFSET_MAX)</text><text fill="#000000" font-family="sans-serif" font-size="14" lengthAdjust="spacing" textLength="43.5723" x="502.5" y="543.4707">setup()</text><text fill="#000000" font-family="sans-serif" font-size="14" lengthAdjust="spacing" textLength="42.0068" x="502.5" y="561.0801">show()</text></g><!--class pingpy.hardware.rpi_ws281xMock.PixelStrip--><g id="elem_pingpy.hardware.rpi_ws281xMock.PixelStrip"><rect codeLine="38" fill="#F1F1F1" height="259.3125" id="pingpy.hardware.rpi_ws281xMock.PixelStrip" rx="2.5" ry="2.5" style="stroke:#181818;stroke-width:0.5;" width="175.3926" x="569" y="7"/><ellipse cx="622.8809" cy="23" fill="#ADD1B2" rx="11" ry="11" style="stroke:#181818;stroke-width:1;"/><path d="M625.6465,18.875 Q625.8027,18.6563 625.9902,18.5469 Q626.1777,18.4375 626.3965,18.4375 Q626.7715,18.4375 627.0059,18.7031 Q627.2402,18.9531 627.2402,19.5625 L627.2402,21.0156 Q627.2402,21.625 627.0059,21.8906 Q626.7715,22.1563 626.3965,22.1563 Q626.0527,22.1563 625.8496,21.9531 Q625.6465,21.7656 625.5371,21.25 Q625.4902,20.8906 625.3027,20.7031 Q624.9746,20.3281 624.3652,20.1094 Q623.7559,19.8906 623.1309,19.8906 Q622.3652,19.8906 621.7246,20.2188 Q621.0996,20.5469 620.5996,21.2969 Q620.1152,22.0469 620.1152,23.0781 L620.1152,24.1719 Q620.1152,25.4063 621.0059,26.2344 Q621.8965,27.0469 623.4902,27.0469 Q624.4277,27.0469 625.084,26.7969 Q625.4746,26.6406 625.8965,26.2031 Q626.1621,25.9375 626.3027,25.8594 Q626.459,25.7813 626.6621,25.7813 Q626.9902,25.7813 627.2402,26.0469 Q627.5059,26.2969 627.5059,26.6406 Q627.5059,26.9844 627.1621,27.3906 Q626.6621,27.9688 625.8652,28.2969 Q624.7871,28.75 623.4902,28.75 Q621.9746,28.75 620.7715,28.125 Q619.7871,27.625 619.0996,26.5625 Q618.4121,25.4844 618.4121,24.2031 L618.4121,23.0469 Q618.4121,21.7188 619.0215,20.5781 Q619.6465,19.4219 620.7402,18.8125 Q621.834,18.1875 623.0684,18.1875 Q623.8027,18.1875 624.4434,18.3594 Q625.0996,18.5156 625.6465,18.875 Z " fill="#000000"/><text fill="#000000" font-family="sans-serif" font-size="14" lengthAdjust="spacing" textLength="59.1309" x="643.3809" y="28.7285">PixelStrip</text><line style="stroke:#181818;stroke-width:0.5;" x1="570" x2="743.3926" y1="39" y2="39"/><text fill="#000000" font-family="sans-serif" font-size="14" lengthAdjust="spacing" textLength="91.0479" x="575" y="57.5332">brightness : int</text><text fill="#000000" font-family="sans-serif" font-size="14" lengthAdjust="spacing" textLength="84.0615" x="575" y="75.1426">dma_channel</text><text fill="#000000" font-family="sans-serif" font-size="14" lengthAdjust="spacing" textLength="46.6963" x="575" y="92.752">freq_hz</text><text fill="#000000" font-family="sans-serif" font-size="14" lengthAdjust="spacing" textLength="72.3721" x="575" y="110.3613">invert : bool</text><text fill="#000000" font-family="sans-serif" font-size="14" lengthAdjust="spacing" textLength="70.8135" x="575" y="127.9707">num_pixels</text><text fill="#000000" font-family="sans-serif" font-size="14" lengthAdjust="spacing" textLength="18.6826" x="575" y="145.5801">pin</text><text fill="#000000" font-family="sans-serif" font-size="14" lengthAdjust="spacing" textLength="35.793" x="575" y="163.1895">pixels</text><line style="stroke:#181818;stroke-width:0.5;" x1="570" x2="743.3926" y1="170.2656" y2="170.2656"/><text fill="#000000" font-family="sans-serif" font-size="14" lengthAdjust="spacing" textLength="43.5791" x="575" y="188.7988">begin()</text><text fill="#000000" font-family="sans-serif" font-size="14" lengthAdjust="spacing" textLength="73.9033" x="575" y="206.4082">numPixels()</text><text fill="#000000" font-family="sans-serif" font-size="14" lengthAdjust="spacing" textLength="158.7373" x="575" y="224.0176">setBrightness(brightness)</text><text fill="#000000" font-family="sans-serif" font-size="14" lengthAdjust="spacing" textLength="163.3926" x="575" y="241.627">setPixelColor(index, color)</text><text fill="#000000" font-family="sans-serif" font-size="14" lengthAdjust="spacing" textLength="42.0068" x="575" y="259.2363">show()</text></g><!--class pingpy.hardware.ledStrip.PlayerLedStrip--><g id="elem_pingpy.hardware.ledStrip.PlayerLedStrip"><rect codeLine="52" fill="#F1F1F1" height="294.5313" id="pingpy.hardware.ledStrip.PlayerLedStrip" rx="2.5" ry="2.5" style="stroke:#181818;stroke-width:0.5;" width="241.5918" x="219.5" y="344"/><ellipse cx="290.1323" cy="360" fill="#ADD1B2" rx="11" ry="11" style="stroke:#181818;stroke-width:1;"/><path d="M292.8979,355.875 Q293.0542,355.6563 293.2417,355.5469 Q293.4292,355.4375 293.6479,355.4375 Q294.0229,355.4375 294.2573,355.7031 Q294.4917,355.9531 294.4917,356.5625 L294.4917,358.0156 Q294.4917,358.625 294.2573,358.8906 Q294.0229,359.1563 293.6479,359.1563 Q293.3042,359.1563 293.1011,358.9531 Q292.8979,358.7656 292.7886,358.25 Q292.7417,357.8906 292.5542,357.7031 Q292.2261,357.3281 291.6167,357.1094 Q291.0073,356.8906 290.3823,356.8906 Q289.6167,356.8906 288.9761,357.2188 Q288.3511,357.5469 287.8511,358.2969 Q287.3667,359.0469 287.3667,360.0781 L287.3667,361.1719 Q287.3667,362.4063 288.2573,363.2344 Q289.1479,364.0469 290.7417,364.0469 Q291.6792,364.0469 292.3354,363.7969 Q292.7261,363.6406 293.1479,363.2031 Q293.4136,362.9375 293.5542,362.8594 Q293.7104,362.7813 293.9136,362.7813 Q294.2417,362.7813 294.4917,363.0469 Q294.7573,363.2969 294.7573,363.6406 Q294.7573,363.9844 294.4136,364.3906 Q293.9136,364.9688 293.1167,365.2969 Q292.0386,365.75 290.7417,365.75 Q289.2261,365.75 288.0229,365.125 Q287.0386,364.625 286.3511,363.5625 Q285.6636,362.4844 285.6636,361.2031 L285.6636,360.0469 Q285.6636,358.7188 286.2729,357.5781 Q286.8979,356.4219 287.9917,355.8125 Q289.0854,355.1875 290.3198,355.1875 Q291.0542,355.1875 291.6948,355.3594 Q292.3511,355.5156 292.8979,355.875 Z " fill="#000000"/><text fill="#000000" font-family="sans-serif" font-size="14" lengthAdjust="spacing" textLength="91.8271" x="310.6323" y="365.7285">PlayerLedStrip</text><line style="stroke:#181818;stroke-width:0.5;" x1="220.5" x2="460.0918" y1="376" y2="376"/><text fill="#000000" font-family="sans-serif" font-size="14" lengthAdjust="spacing" textLength="102.7236" x="225.5" y="394.5332">brightness : float</text><text fill="#000000" font-family="sans-serif" font-size="14" lengthAdjust="spacing" textLength="47.4688" x="225.5" y="412.1426">ledStrip</text><text fill="#000000" font-family="sans-serif" font-size="14" lengthAdjust="spacing" textLength="49.793" x="225.5" y="429.752">len_mm</text><text fill="#000000" font-family="sans-serif" font-size="14" lengthAdjust="spacing" textLength="26.4482" x="225.5" y="447.3613">max</text><text fill="#000000" font-family="sans-serif" font-size="14" lengthAdjust="spacing" textLength="57.5586" x="225.5" y="464.9707">max_mm</text><text fill="#000000" font-family="sans-serif" font-size="14" lengthAdjust="spacing" textLength="22.5586" x="225.5" y="482.5801">min</text><text fill="#000000" font-family="sans-serif" font-size="14" lengthAdjust="spacing" textLength="53.6689" x="225.5" y="500.1895">min_mm</text><text fill="#000000" font-family="sans-serif" font-size="14" lengthAdjust="spacing" textLength="34.2549" x="225.5" y="517.7988">n_led</text><text fill="#000000" font-family="sans-serif" font-size="14" lengthAdjust="spacing" textLength="131.5166" x="225.5" y="535.4082">n_led_per_mm : float</text><line style="stroke:#181818;stroke-width:0.5;" x1="220.5" x2="460.0918" y1="542.4844" y2="542.4844"/><text fill="#000000" font-family="sans-serif" font-size="14" lengthAdjust="spacing" textLength="79.3516" x="225.5" y="561.0176">clearPlayer()</text><text fill="#000000" font-family="sans-serif" font-size="14" lengthAdjust="spacing" textLength="94.9238" x="225.5" y="578.627">onPlayer(color)</text><text fill="#000000" font-family="sans-serif" font-size="14" lengthAdjust="spacing" textLength="164.9717" x="225.5" y="596.2363">set_brightness(brightness)</text><text fill="#000000" font-family="sans-serif" font-size="14" lengthAdjust="spacing" textLength="229.5918" x="225.5" y="613.8457">set_led_index(area_led_index, color)</text><text fill="#000000" font-family="sans-serif" font-size="14" lengthAdjust="spacing" textLength="156.3652" x="225.5" y="631.4551">set_mm(area_mm, color)</text></g><!--link pingpy.hardware.rpi_ws281xMock.PixelStrip to pingpy.hardware.ledStrip.LedStrip--><g id="link_pingpy.hardware.rpi_ws281xMock.PixelStrip_pingpy.hardware.ledStrip.LedStrip"><path codeLine="68" d="M656.5,266.44 C656.5,316.17 656.5,359.34 656.5,402.5 " fill="transparent" id="pingpy.hardware.rpi_ws281xMock.PixelStrip-to-pingpy.hardware.ledStrip.LedStrip" style="stroke:#181818;stroke-width:1;"/><polygon fill="#181818" points="656.5,414.5,660.5,408.5,656.5,402.5,652.5,408.5,656.5,414.5" style="stroke:#181818;stroke-width:1;"/><text fill="#000000" font-family="sans-serif" font-size="13" lengthAdjust="spacing" textLength="24.5591" x="657.5" y="310.4951">strip</text></g><!--SRC=[ZLDBZzCm4BxtLrXx2YXR2Kwej-woZqfzYHR1BNAJQMBX5xPBMz3-TyQE4mUse1wIU6O-pyptpSI28v8Ai9gMi05D3NNA4AaaZ4fEhIKtquDJcoDpPND3g2MQoLgVnmqrrP4Q6DC-F4v8ycj4Y8_CeLep6Os5ge1Co4uf7ZqjkaLmg3QEkW52ACcmcy8r1cY5_YMsjJrhoCask0OO6p9bRz1bmHqqdbuw1lUAAtEnUQDPSRJlFxmxBLJvRHo0eVSTFZK-9cLvMizM5vFKcgbmtIF2xRlx1NPhdV7drVJJnzvwdZqz9uApPH-Ohxua_-hpjW-K7AWCV0XXKXzSXlMzeGukMZb2KRZ8NQ3AcNybBG9cuCAs9PAmsPxJUY3Kt8_0C7sH9e_1SOSALAq_nJPDQ5B93f2PdDGvsSMglRlqCkTazVYuUTWMYzaodQTVXnF4KwEEmr6ksGdultlyQvu9tGxLiBfn4Z3H1BLqwAe4BSg6IWbUzxs1xqNpCoZz0unB4v47KMYVpQAXmxxsvWvg9aEtY0ebRRU7Ttt5B1MFiO0C6vSnMS4f9q6NYwmvFOEvRZf_Ob_ptdD5NVUxjRFZ80iX_Cz4J-qxce4dlbjJ5dYd-nOQ3Be72SC6jDNZ7aGZqG9NxFwZICWRjCYG4atcK1g42T76XUW3BwFhL-7szkqLoprfL_it]--></g></svg>