<svg xmlns="http://www.w3.org/2000/svg" xmlns:xlink="http://www.w3.org/1999/xlink" contentStyleType="text/css" data-diagram-type="CLASS" height="613px" preserveAspectRatio="none" style="width:760px;height:613px;background:#FFFFFF;" version="1.1" viewBox="0 0 760 613" width="760px" zoomAndPan="magnify"><defs/><g><!--class pingpy.output.bumper.BumperOutput--><g id="elem_pingpy.output.bumper.BumperOutput"><rect codeLine="2" fill="#F1F1F1" height="65.6094" id="pingpy.output.bumper.BumperOutput" rx="2.5" ry="2.5" style="stroke:#181818;stroke-width:0.5;" width="123.0479" x="7" y="68.5"/><ellipse cx="22" cy="84.5" fill="#ADD1B2" rx="11" ry="11" style="stroke:#181818;stroke-width:1;"/><path d="M24.7656,80.375 Q24.9219,80.1563 25.1094,80.0469 Q25.2969,79.9375 25.5156,79.9375 Q25.8906,79.9375 26.125,80.2031 Q26.3594,80.4531 26.3594,81.0625 L26.3594,82.5156 Q26.3594,83.125 26.125,83.3906 Q25.8906,83.6563 25.5156,83.6563 Q25.1719,83.6563 24.9688,83.4531 Q24.7656,83.2656 24.6563,82.75 Q24.6094,82.3906 24.4219,82.2031 Q24.0938,81.8281 23.4844,81.6094 Q22.875,81.3906 22.25,81.3906 Q21.4844,81.3906 20.8438,81.7188 Q20.2188,82.0469 19.7188,82.7969 Q19.2344,83.5469 19.2344,84.5781 L19.2344,85.6719 Q19.2344,86.9063 20.125,87.7344 Q21.0156,88.5469 22.6094,88.5469 Q23.5469,88.5469 24.2031,88.2969 Q24.5938,88.1406 25.0156,87.7031 Q25.2813,87.4375 25.4219,87.3594 Q25.5781,87.2813 25.7813,87.2813 Q26.1094,87.2813 26.3594,87.5469 Q26.625,87.7969 26.625,88.1406 Q26.625,88.4844 26.2813,88.8906 Q25.7813,89.4688 24.9844,89.7969 Q23.9063,90.25 22.6094,90.25 Q21.0938,90.25 19.8906,89.625 Q18.9063,89.125 18.2188,88.0625 Q17.5313,86.9844 17.5313,85.7031 L17.5313,84.5469 Q17.5313,83.2188 18.1406,82.0781 Q18.7656,80.9219 19.8594,80.3125 Q20.9531,79.6875 22.1875,79.6875 Q22.9219,79.6875 23.5625,79.8594 Q24.2188,80.0156 24.7656,80.375 Z " fill="#000000"/><text fill="#000000" font-family="sans-serif" font-size="14" lengthAdjust="spacing" textLength="91.0479" x="36" y="90.2285">BumperOutput</text><line style="stroke:#181818;stroke-width:0.5;" x1="8" x2="129.0479" y1="100.5" y2="100.5"/><text fill="#000000" font-family="sans-serif" font-size="14" lengthAdjust="spacing" textLength="106.6133" x="13" y="119.0332">state : NoneType</text><line style="stroke:#181818;stroke-width:0.5;" x1="8" x2="129.0479" y1="126.1094" y2="126.1094"/></g><!--class pingpy.output.linearActuator.LinearActuatorOutput--><g id="elem_pingpy.output.linearActuator.LinearActuatorOutput"><rect codeLine="5" fill="#F1F1F1" height="188.875" id="pingpy.output.linearActuator.LinearActuatorOutput" rx="2.5" ry="2.5" style="stroke:#181818;stroke-width:0.5;" width="246.2471" x="165.5" y="7"/><ellipse cx="217.8325" cy="23" fill="#ADD1B2" rx="11" ry="11" style="stroke:#181818;stroke-width:1;"/><path d="M220.5981,18.875 Q220.7544,18.6563 220.9419,18.5469 Q221.1294,18.4375 221.3481,18.4375 Q221.7231,18.4375 221.9575,18.7031 Q222.1919,18.9531 222.1919,19.5625 L222.1919,21.0156 Q222.1919,21.625 221.9575,21.8906 Q221.7231,22.1563 221.3481,22.1563 Q221.0044,22.1563 220.8013,21.9531 Q220.5981,21.7656 220.4888,21.25 Q220.4419,20.8906 220.2544,20.7031 Q219.9263,20.3281 219.3169,20.1094 Q218.7075,19.8906 218.0825,19.8906 Q217.3169,19.8906 216.6763,20.2188 Q216.0513,20.5469 215.5513,21.2969 Q215.0669,22.0469 215.0669,23.0781 L215.0669,24.1719 Q215.0669,25.4063 215.9575,26.2344 Q216.8481,27.0469 218.4419,27.0469 Q219.3794,27.0469 220.0356,26.7969 Q220.4263,26.6406 220.8481,26.2031 Q221.1138,25.9375 221.2544,25.8594 Q221.4106,25.7813 221.6138,25.7813 Q221.9419,25.7813 222.1919,26.0469 Q222.4575,26.2969 222.4575,26.6406 Q222.4575,26.9844 222.1138,27.3906 Q221.6138,27.9688 220.8169,28.2969 Q219.7388,28.75 218.4419,28.75 Q216.9263,28.75 215.7231,28.125 Q214.7388,27.625 214.0513,26.5625 Q213.3638,25.4844 213.3638,24.2031 L213.3638,23.0469 Q213.3638,21.7188 213.9731,20.5781 Q214.5981,19.4219 215.6919,18.8125 Q216.7856,18.1875 218.02,18.1875 Q218.7544,18.1875 219.395,18.3594 Q220.0513,18.5156 220.5981,18.875 Z " fill="#000000"/><text fill="#000000" font-family="sans-serif" font-size="14" lengthAdjust="spacing" textLength="133.082" x="238.3325" y="28.7285">LinearActuatorOutput</text><line style="stroke:#181818;stroke-width:0.5;" x1="166.5" x2="410.7471" y1="39" y2="39"/><text fill="#000000" font-family="sans-serif" font-size="14" lengthAdjust="spacing" textLength="185.9717" x="171.5" y="57.5332">askForCalibration : NoneType</text><text fill="#000000" font-family="sans-serif" font-size="14" lengthAdjust="spacing" textLength="126.834" x="171.5" y="75.1426">moveTo : NoneType</text><text fill="#000000" font-family="sans-serif" font-size="14" lengthAdjust="spacing" textLength="150.1855" x="171.5" y="92.752">moveToLeft : NoneType</text><text fill="#000000" font-family="sans-serif" font-size="14" lengthAdjust="spacing" textLength="159.5166" x="171.5" y="110.3613">moveToRight : NoneType</text><text fill="#000000" font-family="sans-serif" font-size="14" lengthAdjust="spacing" textLength="234.2471" x="171.5" y="127.9707">preventWhenMoveEnded : NoneType</text><text fill="#000000" font-family="sans-serif" font-size="14" lengthAdjust="spacing" textLength="155.6201" x="171.5" y="145.5801">setMaxAccel : NoneType</text><text fill="#000000" font-family="sans-serif" font-size="14" lengthAdjust="spacing" textLength="161.8682" x="171.5" y="163.1895">setMaxSpeed : NoneType</text><text fill="#000000" font-family="sans-serif" font-size="14" lengthAdjust="spacing" textLength="102.7236" x="171.5" y="180.7988">stop : NoneType</text><line style="stroke:#181818;stroke-width:0.5;" x1="166.5" x2="410.7471" y1="187.875" y2="187.875"/></g><!--class pingpy.output.output.Output--><g id="elem_pingpy.output.output.Output"><rect codeLine="15" fill="#F1F1F1" height="100.8281" id="pingpy.output.output.Output" rx="2.5" ry="2.5" style="stroke:#181818;stroke-width:0.5;" width="74.0273" x="420.5" y="506"/><ellipse cx="435.5" cy="522" fill="#ADD1B2" rx="11" ry="11" style="stroke:#181818;stroke-width:1;"/><path d="M438.2656,517.875 Q438.4219,517.6563 438.6094,517.5469 Q438.7969,517.4375 439.0156,517.4375 Q439.3906,517.4375 439.625,517.7031 Q439.8594,517.9531 439.8594,518.5625 L439.8594,520.0156 Q439.8594,520.625 439.625,520.8906 Q439.3906,521.1563 439.0156,521.1563 Q438.6719,521.1563 438.4688,520.9531 Q438.2656,520.7656 438.1563,520.25 Q438.1094,519.8906 437.9219,519.7031 Q437.5938,519.3281 436.9844,519.1094 Q436.375,518.8906 435.75,518.8906 Q434.9844,518.8906 434.3438,519.2188 Q433.7188,519.5469 433.2188,520.2969 Q432.7344,521.0469 432.7344,522.0781 L432.7344,523.1719 Q432.7344,524.4063 433.625,525.2344 Q434.5156,526.0469 436.1094,526.0469 Q437.0469,526.0469 437.7031,525.7969 Q438.0938,525.6406 438.5156,525.2031 Q438.7813,524.9375 438.9219,524.8594 Q439.0781,524.7813 439.2813,524.7813 Q439.6094,524.7813 439.8594,525.0469 Q440.125,525.2969 440.125,525.6406 Q440.125,525.9844 439.7813,526.3906 Q439.2813,526.9688 438.4844,527.2969 Q437.4063,527.75 436.1094,527.75 Q434.5938,527.75 433.3906,527.125 Q432.4063,526.625 431.7188,525.5625 Q431.0313,524.4844 431.0313,523.2031 L431.0313,522.0469 Q431.0313,520.7188 431.6406,519.5781 Q432.2656,518.4219 433.3594,517.8125 Q434.4531,517.1875 435.6875,517.1875 Q436.4219,517.1875 437.0625,517.3594 Q437.7188,517.5156 438.2656,517.875 Z " fill="#000000"/><text fill="#000000" font-family="sans-serif" font-size="14" lengthAdjust="spacing" textLength="42.0273" x="449.5" y="527.7285">Output</text><line style="stroke:#181818;stroke-width:0.5;" x1="421.5" x2="493.5273" y1="538" y2="538"/><text fill="#000000" font-family="sans-serif" font-size="14" lengthAdjust="spacing" textLength="56.793" x="426.5" y="556.5332">UICorner</text><text fill="#000000" font-family="sans-serif" font-size="14" lengthAdjust="spacing" textLength="38.1309" x="426.5" y="574.1426">player</text><text fill="#000000" font-family="sans-serif" font-size="14" lengthAdjust="spacing" textLength="49.8066" x="426.5" y="591.752">speaker</text><line style="stroke:#181818;stroke-width:0.5;" x1="421.5" x2="493.5273" y1="598.8281" y2="598.8281"/></g><!--class pingpy.output.playerLedStrip.PlayerLedStripOutput--><g id="elem_pingpy.output.playerLedStrip.PlayerLedStripOutput"><rect codeLine="20" fill="#F1F1F1" height="100.8281" id="pingpy.output.playerLedStrip.PlayerLedStripOutput" rx="2.5" ry="2.5" style="stroke:#181818;stroke-width:0.5;" width="165.8545" x="446.5" y="51"/><ellipse cx="461.5" cy="67" fill="#ADD1B2" rx="11" ry="11" style="stroke:#181818;stroke-width:1;"/><path d="M464.2656,62.875 Q464.4219,62.6563 464.6094,62.5469 Q464.7969,62.4375 465.0156,62.4375 Q465.3906,62.4375 465.625,62.7031 Q465.8594,62.9531 465.8594,63.5625 L465.8594,65.0156 Q465.8594,65.625 465.625,65.8906 Q465.3906,66.1563 465.0156,66.1563 Q464.6719,66.1563 464.4688,65.9531 Q464.2656,65.7656 464.1563,65.25 Q464.1094,64.8906 463.9219,64.7031 Q463.5938,64.3281 462.9844,64.1094 Q462.375,63.8906 461.75,63.8906 Q460.9844,63.8906 460.3438,64.2188 Q459.7188,64.5469 459.2188,65.2969 Q458.7344,66.0469 458.7344,67.0781 L458.7344,68.1719 Q458.7344,69.4063 459.625,70.2344 Q460.5156,71.0469 462.1094,71.0469 Q463.0469,71.0469 463.7031,70.7969 Q464.0938,70.6406 464.5156,70.2031 Q464.7813,69.9375 464.9219,69.8594 Q465.0781,69.7813 465.2813,69.7813 Q465.6094,69.7813 465.8594,70.0469 Q466.125,70.2969 466.125,70.6406 Q466.125,70.9844 465.7813,71.3906 Q465.2813,71.9688 464.4844,72.2969 Q463.4063,72.75 462.1094,72.75 Q460.5938,72.75 459.3906,72.125 Q458.4063,71.625 457.7188,70.5625 Q457.0313,69.4844 457.0313,68.2031 L457.0313,67.0469 Q457.0313,65.7188 457.6406,64.5781 Q458.2656,63.4219 459.3594,62.8125 Q460.4531,62.1875 461.6875,62.1875 Q462.4219,62.1875 463.0625,62.3594 Q463.7188,62.5156 464.2656,62.875 Z " fill="#000000"/><text fill="#000000" font-family="sans-serif" font-size="14" lengthAdjust="spacing" textLength="133.8545" x="475.5" y="72.7285">PlayerLedStripOutput</text><line style="stroke:#181818;stroke-width:0.5;" x1="447.5" x2="611.3545" y1="83" y2="83"/><text fill="#000000" font-family="sans-serif" font-size="14" lengthAdjust="spacing" textLength="104.2822" x="452.5" y="101.5332">area : NoneType</text><text fill="#000000" font-family="sans-serif" font-size="14" lengthAdjust="spacing" textLength="140.8545" x="452.5" y="119.1426">brightness : NoneType</text><text fill="#000000" font-family="sans-serif" font-size="14" lengthAdjust="spacing" textLength="106.6064" x="452.5" y="136.752">color : NoneType</text><line style="stroke:#181818;stroke-width:0.5;" x1="447.5" x2="611.3545" y1="143.8281" y2="143.8281"/></g><!--class pingpy.output.player.PlayerOutput--><g id="elem_pingpy.output.player.PlayerOutput"><rect codeLine="25" fill="#F1F1F1" height="100.8281" id="pingpy.output.player.PlayerOutput" rx="2.5" ry="2.5" style="stroke:#181818;stroke-width:0.5;" width="113.71" x="231.5" y="300.5"/><ellipse cx="246.5" cy="316.5" fill="#ADD1B2" rx="11" ry="11" style="stroke:#181818;stroke-width:1;"/><path d="M249.2656,312.375 Q249.4219,312.1563 249.6094,312.0469 Q249.7969,311.9375 250.0156,311.9375 Q250.3906,311.9375 250.625,312.2031 Q250.8594,312.4531 250.8594,313.0625 L250.8594,314.5156 Q250.8594,315.125 250.625,315.3906 Q250.3906,315.6563 250.0156,315.6563 Q249.6719,315.6563 249.4688,315.4531 Q249.2656,315.2656 249.1563,314.75 Q249.1094,314.3906 248.9219,314.2031 Q248.5938,313.8281 247.9844,313.6094 Q247.375,313.3906 246.75,313.3906 Q245.9844,313.3906 245.3438,313.7188 Q244.7188,314.0469 244.2188,314.7969 Q243.7344,315.5469 243.7344,316.5781 L243.7344,317.6719 Q243.7344,318.9063 244.625,319.7344 Q245.5156,320.5469 247.1094,320.5469 Q248.0469,320.5469 248.7031,320.2969 Q249.0938,320.1406 249.5156,319.7031 Q249.7813,319.4375 249.9219,319.3594 Q250.0781,319.2813 250.2813,319.2813 Q250.6094,319.2813 250.8594,319.5469 Q251.125,319.7969 251.125,320.1406 Q251.125,320.4844 250.7813,320.8906 Q250.2813,321.4688 249.4844,321.7969 Q248.4063,322.25 247.1094,322.25 Q245.5938,322.25 244.3906,321.625 Q243.4063,321.125 242.7188,320.0625 Q242.0313,318.9844 242.0313,317.7031 L242.0313,316.5469 Q242.0313,315.2188 242.6406,314.0781 Q243.2656,312.9219 244.3594,312.3125 Q245.4531,311.6875 246.6875,311.6875 Q247.4219,311.6875 248.0625,311.8594 Q248.7188,312.0156 249.2656,312.375 Z " fill="#000000"/><text fill="#000000" font-family="sans-serif" font-size="14" lengthAdjust="spacing" textLength="81.71" x="260.5" y="322.2285">PlayerOutput</text><line style="stroke:#181818;stroke-width:0.5;" x1="232.5" x2="344.21" y1="332.5" y2="332.5"/><text fill="#000000" font-family="sans-serif" font-size="14" lengthAdjust="spacing" textLength="47.4688" x="237.5" y="351.0332">bumper</text><text fill="#000000" font-family="sans-serif" font-size="14" lengthAdjust="spacing" textLength="86.3789" x="237.5" y="368.6426">linearActuator</text><text fill="#000000" font-family="sans-serif" font-size="14" lengthAdjust="spacing" textLength="90.2754" x="237.5" y="386.252">playerLedStrip</text><line style="stroke:#181818;stroke-width:0.5;" x1="232.5" x2="344.21" y1="393.3281" y2="393.3281"/></g><!--class pingpy.output.speaker.SpeakerOutput--><g id="elem_pingpy.output.speaker.SpeakerOutput"><rect codeLine="30" fill="#F1F1F1" height="153.6563" id="pingpy.output.speaker.SpeakerOutput" rx="2.5" ry="2.5" style="stroke:#181818;stroke-width:0.5;" width="153.6406" x="380.5" y="274"/><ellipse cx="407.8609" cy="290" fill="#ADD1B2" rx="11" ry="11" style="stroke:#181818;stroke-width:1;"/><path d="M410.6266,285.875 Q410.7828,285.6563 410.9703,285.5469 Q411.1578,285.4375 411.3766,285.4375 Q411.7516,285.4375 411.9859,285.7031 Q412.2203,285.9531 412.2203,286.5625 L412.2203,288.0156 Q412.2203,288.625 411.9859,288.8906 Q411.7516,289.1563 411.3766,289.1563 Q411.0328,289.1563 410.8297,288.9531 Q410.6266,288.7656 410.5172,288.25 Q410.4703,287.8906 410.2828,287.7031 Q409.9547,287.3281 409.3453,287.1094 Q408.7359,286.8906 408.1109,286.8906 Q407.3453,286.8906 406.7047,287.2188 Q406.0797,287.5469 405.5797,288.2969 Q405.0953,289.0469 405.0953,290.0781 L405.0953,291.1719 Q405.0953,292.4063 405.9859,293.2344 Q406.8766,294.0469 408.4703,294.0469 Q409.4078,294.0469 410.0641,293.7969 Q410.4547,293.6406 410.8766,293.2031 Q411.1422,292.9375 411.2828,292.8594 Q411.4391,292.7813 411.6422,292.7813 Q411.9703,292.7813 412.2203,293.0469 Q412.4859,293.2969 412.4859,293.6406 Q412.4859,293.9844 412.1422,294.3906 Q411.6422,294.9688 410.8453,295.2969 Q409.7672,295.75 408.4703,295.75 Q406.9547,295.75 405.7516,295.125 Q404.7672,294.625 404.0797,293.5625 Q403.3922,292.4844 403.3922,291.2031 L403.3922,290.0469 Q403.3922,288.7188 404.0016,287.5781 Q404.6266,286.4219 405.7203,285.8125 Q406.8141,285.1875 408.0484,285.1875 Q408.7828,285.1875 409.4234,285.3594 Q410.0797,285.5156 410.6266,285.875 Z " fill="#000000"/><text fill="#000000" font-family="sans-serif" font-size="14" lengthAdjust="spacing" textLength="94.1719" x="424.6078" y="295.7285">SpeakerOutput</text><line style="stroke:#181818;stroke-width:0.5;" x1="381.5" x2="533.1406" y1="306" y2="306"/><text fill="#000000" font-family="sans-serif" font-size="14" lengthAdjust="spacing" textLength="141.6406" x="386.5" y="324.5332">audioPiste : NoneType</text><text fill="#000000" font-family="sans-serif" font-size="14" lengthAdjust="spacing" textLength="79.3721" x="386.5" y="342.1426">isBusy : bool</text><text fill="#000000" font-family="sans-serif" font-size="14" lengthAdjust="spacing" textLength="64.5996" x="386.5" y="359.752">stop : bool</text><text fill="#000000" font-family="sans-serif" font-size="14" lengthAdjust="spacing" textLength="121.3926" x="386.5" y="377.3613">volume : NoneType</text><line style="stroke:#181818;stroke-width:0.5;" x1="381.5" x2="533.1406" y1="384.4375" y2="384.4375"/><text fill="#000000" font-family="sans-serif" font-size="14" lengthAdjust="spacing" textLength="119.8545" x="386.5" y="402.9707">duration(audio_file)</text><text fill="#000000" font-family="sans-serif" font-size="14" lengthAdjust="spacing" textLength="35.0068" x="386.5" y="420.5801">play()</text></g><!--class pingpy.output.UICorner.UICornerOutput--><g id="elem_pingpy.output.UICorner.UICornerOutput"><rect codeLine="38" fill="#F1F1F1" height="83.2188" id="pingpy.output.UICorner.UICornerOutput" rx="2.5" ry="2.5" style="stroke:#181818;stroke-width:0.5;" width="183.1992" x="570" y="309.5"/><ellipse cx="608.5705" cy="325.5" fill="#ADD1B2" rx="11" ry="11" style="stroke:#181818;stroke-width:1;"/><path d="M611.3361,321.375 Q611.4924,321.1563 611.6799,321.0469 Q611.8674,320.9375 612.0861,320.9375 Q612.4611,320.9375 612.6955,321.2031 Q612.9299,321.4531 612.9299,322.0625 L612.9299,323.5156 Q612.9299,324.125 612.6955,324.3906 Q612.4611,324.6563 612.0861,324.6563 Q611.7424,324.6563 611.5393,324.4531 Q611.3361,324.2656 611.2268,323.75 Q611.1799,323.3906 610.9924,323.2031 Q610.6643,322.8281 610.0549,322.6094 Q609.4455,322.3906 608.8205,322.3906 Q608.0549,322.3906 607.4143,322.7188 Q606.7893,323.0469 606.2893,323.7969 Q605.8049,324.5469 605.8049,325.5781 L605.8049,326.6719 Q605.8049,327.9063 606.6955,328.7344 Q607.5861,329.5469 609.1799,329.5469 Q610.1174,329.5469 610.7736,329.2969 Q611.1643,329.1406 611.5861,328.7031 Q611.8518,328.4375 611.9924,328.3594 Q612.1486,328.2813 612.3518,328.2813 Q612.6799,328.2813 612.9299,328.5469 Q613.1955,328.7969 613.1955,329.1406 Q613.1955,329.4844 612.8518,329.8906 Q612.3518,330.4688 611.5549,330.7969 Q610.4768,331.25 609.1799,331.25 Q607.6643,331.25 606.4611,330.625 Q605.4768,330.125 604.7893,329.0625 Q604.1018,327.9844 604.1018,326.7031 L604.1018,325.5469 Q604.1018,324.2188 604.7111,323.0781 Q605.3361,321.9219 606.4299,321.3125 Q607.5236,320.6875 608.758,320.6875 Q609.4924,320.6875 610.133,320.8594 Q610.7893,321.0156 611.3361,321.375 Z " fill="#000000"/><text fill="#000000" font-family="sans-serif" font-size="14" lengthAdjust="spacing" textLength="98.8203" x="627.8084" y="331.2285">UICornerOutput</text><line style="stroke:#181818;stroke-width:0.5;" x1="571" x2="752.1992" y1="341.5" y2="341.5"/><text fill="#000000" font-family="sans-serif" font-size="14" lengthAdjust="spacing" textLength="171.1992" x="576" y="360.0332">askForStatusSettings : bool</text><text fill="#000000" font-family="sans-serif" font-size="14" lengthAdjust="spacing" textLength="136.9717" x="576" y="377.6426">statusLed : NoneType</text><line style="stroke:#181818;stroke-width:0.5;" x1="571" x2="752.1992" y1="384.7188" y2="384.7188"/></g><!--link pingpy.output.UICorner.UICornerOutput to pingpy.output.output.Output--><g id="link_pingpy.output.UICorner.UICornerOutput_pingpy.output.output.Output"><path codeLine="42" d="M620.71,392.69 C583.97,429.34 538.906,474.2955 503.286,509.8255 " fill="transparent" id="pingpy.output.UICorner.UICornerOutput-to-pingpy.output.output.Output" style="stroke:#181818;stroke-width:1;"/><polygon fill="#181818" points="494.79,518.3,501.8629,516.8947,503.286,509.8255,496.2132,511.2307,494.79,518.3" style="stroke:#181818;stroke-width:1;"/><text fill="#000000" font-family="sans-serif" font-size="13" lengthAdjust="spacing" textLength="52.7363" x="553.5" y="472.4951">UICorner</text></g><!--link pingpy.output.bumper.BumperOutput to pingpy.output.player.PlayerOutput--><g id="link_pingpy.output.bumper.BumperOutput_pingpy.output.player.PlayerOutput"><path codeLine="43" d="M95.24,134.79 C110.4,152.93 129.81,175.89 147.5,196 C178.5,231.25 206.0644,261.4374 233.7944,291.3674 " fill="transparent" id="pingpy.output.bumper.BumperOutput-to-pingpy.output.player.PlayerOutput" style="stroke:#181818;stroke-width:1;"/><polygon fill="#181818" points="241.95,300.17,240.8064,293.0502,233.7944,291.3674,234.938,298.4872,241.95,300.17" style="stroke:#181818;stroke-width:1;"/><text fill="#000000" font-family="sans-serif" font-size="13" lengthAdjust="spacing" textLength="44.0781" x="191.5" y="240.4951">bumper</text></g><!--link pingpy.output.linearActuator.LinearActuatorOutput to pingpy.output.player.PlayerOutput--><g id="link_pingpy.output.linearActuator.LinearActuatorOutput_pingpy.output.player.PlayerOutput"><path codeLine="44" d="M288.5,196.07 C288.5,231.52 288.5,258.5 288.5,288.36 " fill="transparent" id="pingpy.output.linearActuator.LinearActuatorOutput-to-pingpy.output.player.PlayerOutput" style="stroke:#181818;stroke-width:1;"/><polygon fill="#181818" points="288.5,300.36,292.5,294.36,288.5,288.36,284.5,294.36,288.5,300.36" style="stroke:#181818;stroke-width:1;"/><text fill="#000000" font-family="sans-serif" font-size="13" lengthAdjust="spacing" textLength="80.209" x="289.5" y="240.4951">linearActuator</text></g><!--link pingpy.output.playerLedStrip.PlayerLedStripOutput to pingpy.output.player.PlayerOutput--><g id="link_pingpy.output.playerLedStrip.PlayerLedStripOutput_pingpy.output.player.PlayerOutput"><path codeLine="45" d="M481.02,152.29 C439.1,195.34 387.1716,248.6626 345.2716,291.6926 " fill="transparent" id="pingpy.output.playerLedStrip.PlayerLedStripOutput-to-pingpy.output.player.PlayerOutput" style="stroke:#181818;stroke-width:1;"/><polygon fill="#181818" points="336.9,300.29,343.9516,298.7818,345.2716,291.6926,338.22,293.2007,336.9,300.29" style="stroke:#181818;stroke-width:1;"/><text fill="#000000" font-family="sans-serif" font-size="13" lengthAdjust="spacing" textLength="83.8271" x="409.5" y="240.4951">playerLedStrip</text></g><!--link pingpy.output.speaker.SpeakerOutput to pingpy.output.output.Output--><g id="link_pingpy.output.speaker.SpeakerOutput_pingpy.output.output.Output"><path codeLine="46" d="M457.5,428.07 C457.5,454.03 457.5,470.38 457.5,493.74 " fill="transparent" id="pingpy.output.speaker.SpeakerOutput-to-pingpy.output.output.Output" style="stroke:#181818;stroke-width:1;"/><polygon fill="#181818" points="457.5,505.74,461.5,499.74,457.5,493.74,453.5,499.74,457.5,505.74" style="stroke:#181818;stroke-width:1;"/><text fill="#000000" font-family="sans-serif" font-size="13" lengthAdjust="spacing" textLength="46.249" x="458.5" y="472.4951">speaker</text></g><!--link pingpy.output.player.PlayerOutput to pingpy.output.output.Output--><g id="link_pingpy.output.player.PlayerOutput_pingpy.output.output.Output"><path codeLine="47" d="M329.63,401.52 C357.28,434.82 385.7647,469.1173 412.5647,501.3973 " fill="transparent" id="pingpy.output.player.PlayerOutput-to-pingpy.output.output.Output" style="stroke:#181818;stroke-width:1;"/><polygon fill="#181818" points="420.23,510.63,419.4749,503.4585,412.5647,501.3973,413.3198,508.5688,420.23,510.63" style="stroke:#181818;stroke-width:1;"/><text fill="#000000" font-family="sans-serif" font-size="13" lengthAdjust="spacing" textLength="52.749" x="388.5" y="472.4951">4 players</text></g><!--SRC=[bLJBRi8m4Bpp5HOdgDISUk86g9KgXHOrL3rMJhA0XMDRVg165VzUvqNYa3JX56UzEpEx7bk1HWmde0IE80219TPS8iOPJ2AAbKBJbKa4o7UZXT5JX1KIX1r4wl4yueNvjjVCGhyJX9J66j02lLceNIfWSga0VS80osMaJSRL2qoTDA-hAYV2wlJ2vHfJ4bhnXBCcAK89FyEETyLysEkk-0Sv75iRGi8PcFuw0jlOd6SMG-ncAD0R_BEC8g1T6u60cmhDHUTyUYTIVXgzVxwkkMGWCuaKf_b22S0dkxhYRVCT7-90Io9wqOMJvdLL5VEMWDrEGfbDZ84bS-8HfzPBNIqMu0DIl6PMJbrupIvSRroxhzJMH44nZ5wcSbYUarUqQMB2jqIv9aQ8g9LHgOs5dDFw6Ck_CwScQLN4fl3bB8VytXCAyrBoR5vBhSwoLskLuBcPZKiGs3jdL01QsqBLr9Z5VTU1byau-CV7XtzzkAXTEFmot89rdVMYEkdxNuIn12q7tNyLnXArd3d6ViCJh-xui81XhATIele3]--></g></svg>