<svg xmlns="http://www.w3.org/2000/svg" xmlns:xlink="http://www.w3.org/1999/xlink" contentStyleType="text/css" data-diagram-type="CLASS" height="628px" preserveAspectRatio="none" style="width:1230px;height:628px;background:#FFFFFF;" version="1.1" viewBox="0 0 1230 628" width="1230px" zoomAndPan="magnify"><defs/><g><!--class pingpy.gameMode.atYourCommand.AtYourCommand--><g id="elem_pingpy.gameMode.atYourCommand.AtYourCommand"><rect codeLine="2" fill="#F1F1F1" height="48" id="pingpy.gameMode.atYourCommand.AtYourCommand" rx="2.5" ry="2.5" style="stroke:#181818;stroke-width:0.5;" width="139.3789" x="7" y="192"/><ellipse cx="22" cy="208" fill="#ADD1B2" rx="11" ry="11" style="stroke:#181818;stroke-width:1;"/><path d="M24.7656,203.875 Q24.9219,203.6563 25.1094,203.5469 Q25.2969,203.4375 25.5156,203.4375 Q25.8906,203.4375 26.125,203.7031 Q26.3594,203.9531 26.3594,204.5625 L26.3594,206.0156 Q26.3594,206.625 26.125,206.8906 Q25.8906,207.1563 25.5156,207.1563 Q25.1719,207.1563 24.9688,206.9531 Q24.7656,206.7656 24.6563,206.25 Q24.6094,205.8906 24.4219,205.7031 Q24.0938,205.3281 23.4844,205.1094 Q22.875,204.8906 22.25,204.8906 Q21.4844,204.8906 20.8438,205.2188 Q20.2188,205.5469 19.7188,206.2969 Q19.2344,207.0469 19.2344,208.0781 L19.2344,209.1719 Q19.2344,210.4063 20.125,211.2344 Q21.0156,212.0469 22.6094,212.0469 Q23.5469,212.0469 24.2031,211.7969 Q24.5938,211.6406 25.0156,211.2031 Q25.2813,210.9375 25.4219,210.8594 Q25.5781,210.7813 25.7813,210.7813 Q26.1094,210.7813 26.3594,211.0469 Q26.625,211.2969 26.625,211.6406 Q26.625,211.9844 26.2813,212.3906 Q25.7813,212.9688 24.9844,213.2969 Q23.9063,213.75 22.6094,213.75 Q21.0938,213.75 19.8906,213.125 Q18.9063,212.625 18.2188,211.5625 Q17.5313,210.4844 17.5313,209.2031 L17.5313,208.0469 Q17.5313,206.7188 18.1406,205.5781 Q18.7656,204.4219 19.8594,203.8125 Q20.9531,203.1875 22.1875,203.1875 Q22.9219,203.1875 23.5625,203.3594 Q24.2188,203.5156 24.7656,203.875 Z " fill="#000000"/><text fill="#000000" font-family="sans-serif" font-size="14" lengthAdjust="spacing" textLength="107.3789" x="36" y="213.7285">AtYourCommand</text><line style="stroke:#181818;stroke-width:0.5;" x1="8" x2="145.3789" y1="224" y2="224"/><line style="stroke:#181818;stroke-width:0.5;" x1="8" x2="145.3789" y1="232" y2="232"/></g><!--class pingpy.gameMode.battleRoyale.BattleRoyale--><g id="elem_pingpy.gameMode.battleRoyale.BattleRoyale"><rect codeLine="4" fill="#F1F1F1" height="48" id="pingpy.gameMode.battleRoyale.BattleRoyale" rx="2.5" ry="2.5" style="stroke:#181818;stroke-width:0.5;" width="111.3789" x="181" y="192"/><ellipse cx="196" cy="208" fill="#ADD1B2" rx="11" ry="11" style="stroke:#181818;stroke-width:1;"/><path d="M198.7656,203.875 Q198.9219,203.6563 199.1094,203.5469 Q199.2969,203.4375 199.5156,203.4375 Q199.8906,203.4375 200.125,203.7031 Q200.3594,203.9531 200.3594,204.5625 L200.3594,206.0156 Q200.3594,206.625 200.125,206.8906 Q199.8906,207.1563 199.5156,207.1563 Q199.1719,207.1563 198.9688,206.9531 Q198.7656,206.7656 198.6563,206.25 Q198.6094,205.8906 198.4219,205.7031 Q198.0938,205.3281 197.4844,205.1094 Q196.875,204.8906 196.25,204.8906 Q195.4844,204.8906 194.8438,205.2188 Q194.2188,205.5469 193.7188,206.2969 Q193.2344,207.0469 193.2344,208.0781 L193.2344,209.1719 Q193.2344,210.4063 194.125,211.2344 Q195.0156,212.0469 196.6094,212.0469 Q197.5469,212.0469 198.2031,211.7969 Q198.5938,211.6406 199.0156,211.2031 Q199.2813,210.9375 199.4219,210.8594 Q199.5781,210.7813 199.7813,210.7813 Q200.1094,210.7813 200.3594,211.0469 Q200.625,211.2969 200.625,211.6406 Q200.625,211.9844 200.2813,212.3906 Q199.7813,212.9688 198.9844,213.2969 Q197.9063,213.75 196.6094,213.75 Q195.0938,213.75 193.8906,213.125 Q192.9063,212.625 192.2188,211.5625 Q191.5313,210.4844 191.5313,209.2031 L191.5313,208.0469 Q191.5313,206.7188 192.1406,205.5781 Q192.7656,204.4219 193.8594,203.8125 Q194.9531,203.1875 196.1875,203.1875 Q196.9219,203.1875 197.5625,203.3594 Q198.2188,203.5156 198.7656,203.875 Z " fill="#000000"/><text fill="#000000" font-family="sans-serif" font-size="14" lengthAdjust="spacing" textLength="79.3789" x="210" y="213.7285">BattleRoyale</text><line style="stroke:#181818;stroke-width:0.5;" x1="182" x2="291.3789" y1="224" y2="224"/><line style="stroke:#181818;stroke-width:0.5;" x1="182" x2="291.3789" y1="232" y2="232"/></g><!--class pingpy.gameMode.gameMode.GameMode--><g id="elem_pingpy.gameMode.gameMode.GameMode"><rect codeLine="6" fill="#F1F1F1" height="136.0469" id="pingpy.gameMode.gameMode.GameMode" rx="2.5" ry="2.5" style="stroke:#181818;stroke-width:0.5;" width="220.5713" x="817" y="485"/><ellipse cx="886.4634" cy="501" fill="#ADD1B2" rx="11" ry="11" style="stroke:#181818;stroke-width:1;"/><path d="M889.229,496.875 Q889.3853,496.6563 889.5728,496.5469 Q889.7603,496.4375 889.979,496.4375 Q890.354,496.4375 890.5884,496.7031 Q890.8228,496.9531 890.8228,497.5625 L890.8228,499.0156 Q890.8228,499.625 890.5884,499.8906 Q890.354,500.1563 889.979,500.1563 Q889.6353,500.1563 889.4321,499.9531 Q889.229,499.7656 889.1196,499.25 Q889.0728,498.8906 888.8853,498.7031 Q888.5571,498.3281 887.9478,498.1094 Q887.3384,497.8906 886.7134,497.8906 Q885.9478,497.8906 885.3071,498.2188 Q884.6821,498.5469 884.1821,499.2969 Q883.6978,500.0469 883.6978,501.0781 L883.6978,502.1719 Q883.6978,503.4063 884.5884,504.2344 Q885.479,505.0469 887.0728,505.0469 Q888.0103,505.0469 888.6665,504.7969 Q889.0571,504.6406 889.479,504.2031 Q889.7446,503.9375 889.8853,503.8594 Q890.0415,503.7813 890.2446,503.7813 Q890.5728,503.7813 890.8228,504.0469 Q891.0884,504.2969 891.0884,504.6406 Q891.0884,504.9844 890.7446,505.3906 Q890.2446,505.9688 889.4478,506.2969 Q888.3696,506.75 887.0728,506.75 Q885.5571,506.75 884.354,506.125 Q883.3696,505.625 882.6821,504.5625 Q881.9946,503.4844 881.9946,502.2031 L881.9946,501.0469 Q881.9946,499.7188 882.604,498.5781 Q883.229,497.4219 884.3228,496.8125 Q885.4165,496.1875 886.6509,496.1875 Q887.3853,496.1875 888.0259,496.3594 Q888.6821,496.5156 889.229,496.875 Z " fill="#000000"/><text fill="#000000" font-family="sans-serif" font-size="14" lengthAdjust="spacing" textLength="73.1445" x="906.9634" y="506.7285">GameMode</text><line style="stroke:#181818;stroke-width:0.5;" x1="818" x2="1036.5713" y1="517" y2="517"/><text fill="#000000" font-family="sans-serif" font-size="14" lengthAdjust="spacing" textLength="208.5713" x="823" y="535.5332">descriptionAudioPath : NoneType</text><text fill="#000000" font-family="sans-serif" font-size="14" lengthAdjust="spacing" textLength="87.1582" x="823" y="553.1426">inGame : bool</text><line style="stroke:#181818;stroke-width:0.5;" x1="818" x2="1036.5713" y1="560.2188" y2="560.2188"/><text fill="#000000" font-family="sans-serif" font-size="14" font-style="italic" lengthAdjust="spacing" textLength="140.082" x="823" y="578.752">compute(input, output)</text><text fill="#000000" font-family="sans-serif" font-size="14" font-style="italic" lengthAdjust="spacing" textLength="82.4961" x="823" y="596.3613">setup(output)</text><text fill="#000000" font-family="sans-serif" font-size="14" font-style="italic" lengthAdjust="spacing" textLength="66.9238" x="823" y="613.9707">stop(Input)</text></g><!--class pingpy.gameMode.lightTracker.LightTracker--><g id="elem_pingpy.gameMode.lightTracker.LightTracker"><rect codeLine="13" fill="#F1F1F1" height="329.75" id="pingpy.gameMode.lightTracker.LightTracker" rx="2.5" ry="2.5" style="stroke:#181818;stroke-width:0.5;" width="226.7578" x="327" y="51"/><ellipse cx="397.2256" cy="67" fill="#ADD1B2" rx="11" ry="11" style="stroke:#181818;stroke-width:1;"/><path d="M399.9912,62.875 Q400.1475,62.6563 400.335,62.5469 Q400.5225,62.4375 400.7412,62.4375 Q401.1162,62.4375 401.3506,62.7031 Q401.585,62.9531 401.585,63.5625 L401.585,65.0156 Q401.585,65.625 401.3506,65.8906 Q401.1162,66.1563 400.7412,66.1563 Q400.3975,66.1563 400.1943,65.9531 Q399.9912,65.7656 399.8818,65.25 Q399.835,64.8906 399.6475,64.7031 Q399.3193,64.3281 398.71,64.1094 Q398.1006,63.8906 397.4756,63.8906 Q396.71,63.8906 396.0693,64.2188 Q395.4443,64.5469 394.9443,65.2969 Q394.46,66.0469 394.46,67.0781 L394.46,68.1719 Q394.46,69.4063 395.3506,70.2344 Q396.2412,71.0469 397.835,71.0469 Q398.7725,71.0469 399.4287,70.7969 Q399.8193,70.6406 400.2412,70.2031 Q400.5068,69.9375 400.6475,69.8594 Q400.8037,69.7813 401.0068,69.7813 Q401.335,69.7813 401.585,70.0469 Q401.8506,70.2969 401.8506,70.6406 Q401.8506,70.9844 401.5068,71.3906 Q401.0068,71.9688 400.21,72.2969 Q399.1318,72.75 397.835,72.75 Q396.3193,72.75 395.1162,72.125 Q394.1318,71.625 393.4443,70.5625 Q392.7568,69.4844 392.7568,68.2031 L392.7568,67.0469 Q392.7568,65.7188 393.3662,64.5781 Q393.9912,63.4219 395.085,62.8125 Q396.1787,62.1875 397.4131,62.1875 Q398.1475,62.1875 398.7881,62.3594 Q399.4443,62.5156 399.9912,62.875 Z " fill="#000000"/><text fill="#000000" font-family="sans-serif" font-size="14" lengthAdjust="spacing" textLength="77.8066" x="417.7256" y="72.7285">LightTracker</text><line style="stroke:#181818;stroke-width:0.5;" x1="328" x2="552.7578" y1="83" y2="83"/><text fill="#000000" font-family="sans-serif" font-size="14" lengthAdjust="spacing" textLength="105.0684" x="333" y="101.5332">actualRound : int</text><text fill="#000000" font-family="sans-serif" font-size="14" lengthAdjust="spacing" textLength="102.7236" x="333" y="119.1426">areaLed : int, list</text><text fill="#000000" font-family="sans-serif" font-size="14" lengthAdjust="spacing" textLength="97.2959" x="333" y="136.752">areaLength : int</text><text fill="#000000" font-family="sans-serif" font-size="14" lengthAdjust="spacing" textLength="30.3447" x="333" y="154.3613">color</text><text fill="#000000" font-family="sans-serif" font-size="14" lengthAdjust="spacing" textLength="102.7236" x="333" y="171.9707">count_move : int</text><text fill="#000000" font-family="sans-serif" font-size="14" lengthAdjust="spacing" textLength="87.1582" x="333" y="189.5801">ledCenter : int</text><line style="stroke:#181818;stroke-width:0.5;" x1="328" x2="552.7578" y1="196.6563" y2="196.6563"/><text fill="#000000" font-family="sans-serif" font-size="14" lengthAdjust="spacing" textLength="136.9648" x="333" y="215.1895">check_distance(Input)</text><text fill="#000000" font-family="sans-serif" font-size="14" lengthAdjust="spacing" textLength="150.1992" x="333" y="232.7988">check_end_move(Input)</text><text fill="#000000" font-family="sans-serif" font-size="14" lengthAdjust="spacing" textLength="158.7373" x="333" y="250.4082">check_move(PlayerInput)</text><text fill="#000000" font-family="sans-serif" font-size="14" lengthAdjust="spacing" textLength="214.7578" x="333" y="268.0176">check_victory(PlayerInput, Output)</text><text fill="#000000" font-family="sans-serif" font-size="14" lengthAdjust="spacing" textLength="156.3994" x="333" y="285.627">modif_score(PlayerInput)</text><text fill="#000000" font-family="sans-serif" font-size="14" lengthAdjust="spacing" textLength="203.8682" x="333" y="303.2363">move(PlayerInput, PlayerOutput)</text><text fill="#000000" font-family="sans-serif" font-size="14" lengthAdjust="spacing" textLength="159.5439" x="333" y="320.8457">new_round(Input, Output)</text><text fill="#000000" font-family="sans-serif" font-size="14" lengthAdjust="spacing" textLength="110.5029" x="333" y="338.4551">run(Input, Output)</text><text fill="#000000" font-family="sans-serif" font-size="14" lengthAdjust="spacing" textLength="124.5166" x="333" y="356.0645">setup(Input, Output)</text><text fill="#000000" font-family="sans-serif" font-size="14" lengthAdjust="spacing" textLength="116.7305" x="333" y="373.6738">stop(Input, Output)</text></g><!--class pingpy.gameMode.memoChain.MemoChain--><g id="elem_pingpy.gameMode.memoChain.MemoChain"><rect codeLine="31" fill="#F1F1F1" height="48" id="pingpy.gameMode.memoChain.MemoChain" rx="2.5" ry="2.5" style="stroke:#181818;stroke-width:0.5;" width="107.4756" x="23" y="529"/><ellipse cx="38" cy="545" fill="#ADD1B2" rx="11" ry="11" style="stroke:#181818;stroke-width:1;"/><path d="M40.7656,540.875 Q40.9219,540.6563 41.1094,540.5469 Q41.2969,540.4375 41.5156,540.4375 Q41.8906,540.4375 42.125,540.7031 Q42.3594,540.9531 42.3594,541.5625 L42.3594,543.0156 Q42.3594,543.625 42.125,543.8906 Q41.8906,544.1563 41.5156,544.1563 Q41.1719,544.1563 40.9688,543.9531 Q40.7656,543.7656 40.6563,543.25 Q40.6094,542.8906 40.4219,542.7031 Q40.0938,542.3281 39.4844,542.1094 Q38.875,541.8906 38.25,541.8906 Q37.4844,541.8906 36.8438,542.2188 Q36.2188,542.5469 35.7188,543.2969 Q35.2344,544.0469 35.2344,545.0781 L35.2344,546.1719 Q35.2344,547.4063 36.125,548.2344 Q37.0156,549.0469 38.6094,549.0469 Q39.5469,549.0469 40.2031,548.7969 Q40.5938,548.6406 41.0156,548.2031 Q41.2813,547.9375 41.4219,547.8594 Q41.5781,547.7813 41.7813,547.7813 Q42.1094,547.7813 42.3594,548.0469 Q42.625,548.2969 42.625,548.6406 Q42.625,548.9844 42.2813,549.3906 Q41.7813,549.9688 40.9844,550.2969 Q39.9063,550.75 38.6094,550.75 Q37.0938,550.75 35.8906,550.125 Q34.9063,549.625 34.2188,548.5625 Q33.5313,547.4844 33.5313,546.2031 L33.5313,545.0469 Q33.5313,543.7188 34.1406,542.5781 Q34.7656,541.4219 35.8594,540.8125 Q36.9531,540.1875 38.1875,540.1875 Q38.9219,540.1875 39.5625,540.3594 Q40.2188,540.5156 40.7656,540.875 Z " fill="#000000"/><text fill="#000000" font-family="sans-serif" font-size="14" lengthAdjust="spacing" textLength="75.4756" x="52" y="550.7285">MemoChain</text><line style="stroke:#181818;stroke-width:0.5;" x1="24" x2="129.4756" y1="561" y2="561"/><line style="stroke:#181818;stroke-width:0.5;" x1="24" x2="129.4756" y1="569" y2="569"/></g><!--class pingpy.gameMode.pingGame.PingGame--><g id="elem_pingpy.gameMode.pingGame.PingGame"><rect codeLine="33" fill="#F1F1F1" height="83.2188" id="pingpy.gameMode.pingGame.PingGame" rx="2.5" ry="2.5" style="stroke:#181818;stroke-width:0.5;" width="98.1445" x="165.5" y="511.5"/><ellipse cx="180.5" cy="527.5" fill="#ADD1B2" rx="11" ry="11" style="stroke:#181818;stroke-width:1;"/><path d="M183.2656,523.375 Q183.4219,523.1563 183.6094,523.0469 Q183.7969,522.9375 184.0156,522.9375 Q184.3906,522.9375 184.625,523.2031 Q184.8594,523.4531 184.8594,524.0625 L184.8594,525.5156 Q184.8594,526.125 184.625,526.3906 Q184.3906,526.6563 184.0156,526.6563 Q183.6719,526.6563 183.4688,526.4531 Q183.2656,526.2656 183.1563,525.75 Q183.1094,525.3906 182.9219,525.2031 Q182.5938,524.8281 181.9844,524.6094 Q181.375,524.3906 180.75,524.3906 Q179.9844,524.3906 179.3438,524.7188 Q178.7188,525.0469 178.2188,525.7969 Q177.7344,526.5469 177.7344,527.5781 L177.7344,528.6719 Q177.7344,529.9063 178.625,530.7344 Q179.5156,531.5469 181.1094,531.5469 Q182.0469,531.5469 182.7031,531.2969 Q183.0938,531.1406 183.5156,530.7031 Q183.7813,530.4375 183.9219,530.3594 Q184.0781,530.2813 184.2813,530.2813 Q184.6094,530.2813 184.8594,530.5469 Q185.125,530.7969 185.125,531.1406 Q185.125,531.4844 184.7813,531.8906 Q184.2813,532.4688 183.4844,532.7969 Q182.4063,533.25 181.1094,533.25 Q179.5938,533.25 178.3906,532.625 Q177.4063,532.125 176.7188,531.0625 Q176.0313,529.9844 176.0313,528.7031 L176.0313,527.5469 Q176.0313,526.2188 176.6406,525.0781 Q177.2656,523.9219 178.3594,523.3125 Q179.4531,522.6875 180.6875,522.6875 Q181.4219,522.6875 182.0625,522.8594 Q182.7188,523.0156 183.2656,523.375 Z " fill="#000000"/><text fill="#000000" font-family="sans-serif" font-size="14" lengthAdjust="spacing" textLength="66.1445" x="194.5" y="533.2285">PingGame</text><line style="stroke:#181818;stroke-width:0.5;" x1="166.5" x2="262.6445" y1="543.5" y2="543.5"/><line style="stroke:#181818;stroke-width:0.5;" x1="166.5" x2="262.6445" y1="551.5" y2="551.5"/><text fill="#000000" font-family="sans-serif" font-size="14" font-style="italic" lengthAdjust="spacing" textLength="29.5586" x="171.5" y="570.0332">run()</text><text fill="#000000" font-family="sans-serif" font-size="14" font-style="italic" lengthAdjust="spacing" textLength="35.7861" x="171.5" y="587.6426">stop()</text></g><!--class pingpy.gameMode.redLightGreenLight.RedLightGreenLight--><g id="elem_pingpy.gameMode.redLightGreenLight.RedLightGreenLight"><rect codeLine="37" fill="#F1F1F1" height="417.7969" id="pingpy.gameMode.redLightGreenLight.RedLightGreenLight" rx="2.5" ry="2.5" style="stroke:#181818;stroke-width:0.5;" width="342.709" x="589" y="7"/><ellipse cx="693.4497" cy="23" fill="#ADD1B2" rx="11" ry="11" style="stroke:#181818;stroke-width:1;"/><path d="M696.2153,18.875 Q696.3716,18.6563 696.5591,18.5469 Q696.7466,18.4375 696.9653,18.4375 Q697.3403,18.4375 697.5747,18.7031 Q697.8091,18.9531 697.8091,19.5625 L697.8091,21.0156 Q697.8091,21.625 697.5747,21.8906 Q697.3403,22.1563 696.9653,22.1563 Q696.6216,22.1563 696.4185,21.9531 Q696.2153,21.7656 696.106,21.25 Q696.0591,20.8906 695.8716,20.7031 Q695.5435,20.3281 694.9341,20.1094 Q694.3247,19.8906 693.6997,19.8906 Q692.9341,19.8906 692.2935,20.2188 Q691.6685,20.5469 691.1685,21.2969 Q690.6841,22.0469 690.6841,23.0781 L690.6841,24.1719 Q690.6841,25.4063 691.5747,26.2344 Q692.4653,27.0469 694.0591,27.0469 Q694.9966,27.0469 695.6528,26.7969 Q696.0435,26.6406 696.4653,26.2031 Q696.731,25.9375 696.8716,25.8594 Q697.0278,25.7813 697.231,25.7813 Q697.5591,25.7813 697.8091,26.0469 Q698.0747,26.2969 698.0747,26.6406 Q698.0747,26.9844 697.731,27.3906 Q697.231,27.9688 696.4341,28.2969 Q695.356,28.75 694.0591,28.75 Q692.5435,28.75 691.3403,28.125 Q690.356,27.625 689.6685,26.5625 Q688.981,25.4844 688.981,24.2031 L688.981,23.0469 Q688.981,21.7188 689.5903,20.5781 Q690.2153,19.4219 691.3091,18.8125 Q692.4028,18.1875 693.6372,18.1875 Q694.3716,18.1875 695.0122,18.3594 Q695.6685,18.5156 696.2153,18.875 Z " fill="#000000"/><text fill="#000000" font-family="sans-serif" font-size="14" lengthAdjust="spacing" textLength="125.3096" x="713.9497" y="28.7285">RedLightGreenLight</text><line style="stroke:#181818;stroke-width:0.5;" x1="590" x2="930.709" y1="39" y2="39"/><text fill="#000000" font-family="sans-serif" font-size="14" lengthAdjust="spacing" textLength="72.3721" x="595" y="57.5332">color : tuple</text><text fill="#000000" font-family="sans-serif" font-size="14" lengthAdjust="spacing" textLength="159.5303" x="595" y="75.1426">descriptionAudioPath : str</text><text fill="#000000" font-family="sans-serif" font-size="14" lengthAdjust="spacing" textLength="196.123" x="595" y="92.752">durationGreenLight : NoneType</text><text fill="#000000" font-family="sans-serif" font-size="14" lengthAdjust="spacing" textLength="182.8955" x="595" y="110.3613">durationRedLight : NoneType</text><text fill="#000000" font-family="sans-serif" font-size="14" lengthAdjust="spacing" textLength="87.1582" x="595" y="127.9707">inGame : bool</text><text fill="#000000" font-family="sans-serif" font-size="14" lengthAdjust="spacing" textLength="117.5166" x="595" y="145.5801">isLightGreen : bool</text><text fill="#000000" font-family="sans-serif" font-size="14" lengthAdjust="spacing" textLength="119.0479" x="595" y="163.1895">reactionTime : float</text><text fill="#000000" font-family="sans-serif" font-size="14" lengthAdjust="spacing" textLength="87.1719" x="595" y="180.7988">standby : bool</text><text fill="#000000" font-family="sans-serif" font-size="14" lengthAdjust="spacing" textLength="71.5791" x="595" y="198.4082">timeInit : int</text><text fill="#000000" font-family="sans-serif" font-size="14" lengthAdjust="spacing" textLength="113.5996" x="595" y="216.0176">waitForStart : bool</text><line style="stroke:#181818;stroke-width:0.5;" x1="590" x2="930.709" y1="223.0938" y2="223.0938"/><text fill="#000000" font-family="sans-serif" font-size="14" lengthAdjust="spacing" textLength="148.5996" x="595" y="241.627">can_move(currentTime)</text><text fill="#000000" font-family="sans-serif" font-size="14" lengthAdjust="spacing" textLength="330.709" x="595" y="259.2363">check_action(playerInput, playerOutput, currentTime)</text><text fill="#000000" font-family="sans-serif" font-size="14" lengthAdjust="spacing" textLength="251.3369" x="595" y="276.8457">check_victory(playerInput, playerOutput)</text><text fill="#000000" font-family="sans-serif" font-size="14" lengthAdjust="spacing" textLength="143.9648" x="595" y="294.4551">compute(Input, Output)</text><text fill="#000000" font-family="sans-serif" font-size="14" lengthAdjust="spacing" textLength="165.71" x="595" y="312.0645">cycle(currentTime, Output)</text><text fill="#000000" font-family="sans-serif" font-size="14" lengthAdjust="spacing" textLength="115.165" x="595" y="329.6738">lose(playerOutput)</text><text fill="#000000" font-family="sans-serif" font-size="14" lengthAdjust="spacing" textLength="172.7168" x="595" y="347.2832">makeWin(Output, winnerID)</text><text fill="#000000" font-family="sans-serif" font-size="14" lengthAdjust="spacing" textLength="175.0957" x="595" y="364.8926">randomize_duration(Output)</text><text fill="#000000" font-family="sans-serif" font-size="14" lengthAdjust="spacing" textLength="124.5166" x="595" y="382.502">setup(Input, Output)</text><text fill="#000000" font-family="sans-serif" font-size="14" lengthAdjust="spacing" textLength="98.834" x="595" y="400.1113">stop(output_ptr)</text><text fill="#000000" font-family="sans-serif" font-size="14" lengthAdjust="spacing" textLength="174.3027" x="595" y="417.7207">wait_for_start(Input, Output)</text></g><!--class pingpy.gameMode.sandBox.SandBox--><g id="elem_pingpy.gameMode.sandBox.SandBox"><rect codeLine="60" fill="#F1F1F1" height="48" id="pingpy.gameMode.sandBox.SandBox" rx="2.5" ry="2.5" style="stroke:#181818;stroke-width:0.5;" width="88.8203" x="299" y="529"/><ellipse cx="314" cy="545" fill="#ADD1B2" rx="11" ry="11" style="stroke:#181818;stroke-width:1;"/><path d="M316.7656,540.875 Q316.9219,540.6563 317.1094,540.5469 Q317.2969,540.4375 317.5156,540.4375 Q317.8906,540.4375 318.125,540.7031 Q318.3594,540.9531 318.3594,541.5625 L318.3594,543.0156 Q318.3594,543.625 318.125,543.8906 Q317.8906,544.1563 317.5156,544.1563 Q317.1719,544.1563 316.9688,543.9531 Q316.7656,543.7656 316.6563,543.25 Q316.6094,542.8906 316.4219,542.7031 Q316.0938,542.3281 315.4844,542.1094 Q314.875,541.8906 314.25,541.8906 Q313.4844,541.8906 312.8438,542.2188 Q312.2188,542.5469 311.7188,543.2969 Q311.2344,544.0469 311.2344,545.0781 L311.2344,546.1719 Q311.2344,547.4063 312.125,548.2344 Q313.0156,549.0469 314.6094,549.0469 Q315.5469,549.0469 316.2031,548.7969 Q316.5938,548.6406 317.0156,548.2031 Q317.2813,547.9375 317.4219,547.8594 Q317.5781,547.7813 317.7813,547.7813 Q318.1094,547.7813 318.3594,548.0469 Q318.625,548.2969 318.625,548.6406 Q318.625,548.9844 318.2813,549.3906 Q317.7813,549.9688 316.9844,550.2969 Q315.9063,550.75 314.6094,550.75 Q313.0938,550.75 311.8906,550.125 Q310.9063,549.625 310.2188,548.5625 Q309.5313,547.4844 309.5313,546.2031 L309.5313,545.0469 Q309.5313,543.7188 310.1406,542.5781 Q310.7656,541.4219 311.8594,540.8125 Q312.9531,540.1875 314.1875,540.1875 Q314.9219,540.1875 315.5625,540.3594 Q316.2188,540.5156 316.7656,540.875 Z " fill="#000000"/><text fill="#000000" font-family="sans-serif" font-size="14" lengthAdjust="spacing" textLength="56.8203" x="328" y="550.7285">SandBox</text><line style="stroke:#181818;stroke-width:0.5;" x1="300" x2="386.8203" y1="561" y2="561"/><line style="stroke:#181818;stroke-width:0.5;" x1="300" x2="386.8203" y1="569" y2="569"/></g><!--class pingpy.gameMode.waitingRoom.WaitingRoom--><g id="elem_pingpy.gameMode.waitingRoom.WaitingRoom"><rect codeLine="62" fill="#F1F1F1" height="259.3125" id="pingpy.gameMode.waitingRoom.WaitingRoom" rx="2.5" ry="2.5" style="stroke:#181818;stroke-width:0.5;" width="256.3506" x="967.5" y="86.5"/><ellipse cx="1049.4116" cy="102.5" fill="#ADD1B2" rx="11" ry="11" style="stroke:#181818;stroke-width:1;"/><path d="M1052.1772,98.375 Q1052.3335,98.1563 1052.521,98.0469 Q1052.7085,97.9375 1052.9272,97.9375 Q1053.3022,97.9375 1053.5366,98.2031 Q1053.771,98.4531 1053.771,99.0625 L1053.771,100.5156 Q1053.771,101.125 1053.5366,101.3906 Q1053.3022,101.6563 1052.9272,101.6563 Q1052.5835,101.6563 1052.3804,101.4531 Q1052.1772,101.2656 1052.0679,100.75 Q1052.021,100.3906 1051.8335,100.2031 Q1051.5054,99.8281 1050.896,99.6094 Q1050.2866,99.3906 1049.6616,99.3906 Q1048.896,99.3906 1048.2554,99.7188 Q1047.6304,100.0469 1047.1304,100.7969 Q1046.646,101.5469 1046.646,102.5781 L1046.646,103.6719 Q1046.646,104.9063 1047.5366,105.7344 Q1048.4272,106.5469 1050.021,106.5469 Q1050.9585,106.5469 1051.6147,106.2969 Q1052.0054,106.1406 1052.4272,105.7031 Q1052.6929,105.4375 1052.8335,105.3594 Q1052.9897,105.2813 1053.1929,105.2813 Q1053.521,105.2813 1053.771,105.5469 Q1054.0366,105.7969 1054.0366,106.1406 Q1054.0366,106.4844 1053.6929,106.8906 Q1053.1929,107.4688 1052.396,107.7969 Q1051.3179,108.25 1050.021,108.25 Q1048.5054,108.25 1047.3022,107.625 Q1046.3179,107.125 1045.6304,106.0625 Q1044.9429,104.9844 1044.9429,103.7031 L1044.9429,102.5469 Q1044.9429,101.2188 1045.5522,100.0781 Q1046.1772,98.9219 1047.271,98.3125 Q1048.3647,97.6875 1049.5991,97.6875 Q1050.3335,97.6875 1050.9741,97.8594 Q1051.6304,98.0156 1052.1772,98.375 Z " fill="#000000"/><text fill="#000000" font-family="sans-serif" font-size="14" lengthAdjust="spacing" textLength="84.0273" x="1069.9116" y="108.2285">WaitingRoom</text><line style="stroke:#181818;stroke-width:0.5;" x1="968.5" x2="1222.8506" y1="118.5" y2="118.5"/><text fill="#000000" font-family="sans-serif" font-size="14" lengthAdjust="spacing" textLength="171.2129" x="973.5" y="137.0332">brightness_blink_rate : float</text><text fill="#000000" font-family="sans-serif" font-size="14" lengthAdjust="spacing" textLength="72.3721" x="973.5" y="154.6426">color : tuple</text><text fill="#000000" font-family="sans-serif" font-size="14" lengthAdjust="spacing" textLength="119.0547" x="973.5" y="172.252">currentColor : tuple</text><text fill="#000000" font-family="sans-serif" font-size="14" lengthAdjust="spacing" textLength="116.7168" x="973.5" y="189.8613">currentGameMode</text><text fill="#000000" font-family="sans-serif" font-size="14" lengthAdjust="spacing" textLength="177.4404" x="973.5" y="207.4707">currentLed_brightness : float</text><text fill="#000000" font-family="sans-serif" font-size="14" lengthAdjust="spacing" textLength="91.8271" x="973.5" y="225.0801">gameModeList</text><text fill="#000000" font-family="sans-serif" font-size="14" lengthAdjust="spacing" textLength="56.0205" x="973.5" y="242.6895">last_time</text><text fill="#000000" font-family="sans-serif" font-size="14" lengthAdjust="spacing" textLength="244.3506" x="973.5" y="260.2988">preselectedGameMode : NoneType, int</text><text fill="#000000" font-family="sans-serif" font-size="14" lengthAdjust="spacing" textLength="210.8955" x="973.5" y="277.9082">preselectedGameModeFlag : bool</text><line style="stroke:#181818;stroke-width:0.5;" x1="968.5" x2="1222.8506" y1="284.9844" y2="284.9844"/><text fill="#000000" font-family="sans-serif" font-size="14" lengthAdjust="spacing" textLength="140.082" x="973.5" y="303.5176">compute(input, output)</text><text fill="#000000" font-family="sans-serif" font-size="14" lengthAdjust="spacing" textLength="120.6338" x="973.5" y="321.127">setup(input, output)</text><text fill="#000000" font-family="sans-serif" font-size="14" font-style="italic" lengthAdjust="spacing" textLength="98.834" x="973.5" y="338.7363">stop(output_ptr)</text></g><!--link pingpy.gameMode.redLightGreenLight.RedLightGreenLight to pingpy.gameMode.gameMode.GameMode--><g id="link_pingpy.gameMode.redLightGreenLight.RedLightGreenLight_pingpy.gameMode.gameMode.GameMode"><path codeLine="76" d="M864.36,425.35 C874.98,446.64 877.0845,450.8831 886.0245,468.8031 " fill="transparent" id="pingpy.gameMode.redLightGreenLight.RedLightGreenLight-to-pingpy.gameMode.gameMode.GameMode" style="stroke:#181818;stroke-width:1;"/><polygon fill="transparent" points="894.06,484.91,891.3935,466.1246,880.6556,471.4816,894.06,484.91" style="stroke:#181818;stroke-width:1;"/></g><!--link pingpy.gameMode.waitingRoom.WaitingRoom to pingpy.gameMode.gameMode.GameMode--><g id="link_pingpy.gameMode.waitingRoom.WaitingRoom_pingpy.gameMode.gameMode.GameMode"><path codeLine="77" d="M1031.03,345.56 C1007.25,392.98 989.3192,428.72 969.3292,468.58 " fill="transparent" id="pingpy.gameMode.waitingRoom.WaitingRoom-to-pingpy.gameMode.gameMode.GameMode" style="stroke:#181818;stroke-width:1;"/><polygon fill="transparent" points="961.26,484.67,974.6925,471.2697,963.9659,465.8903,961.26,484.67" style="stroke:#181818;stroke-width:1;"/></g><!--SRC=[dLLDJ-Cm4BttLrYSWbJo0pYi15s1a60N5IIqfyXrfgrLnsFP3jqiot_VYVFbDYcWFSMPUVF6C_DiE_1CymASuGAUm73BFLgcKSDCAEuSExlolx2q2omAhlCpnXqpKczCbMuexW5pI7cCI0_mx6tstX5TS-yLBB7Y2YPvLX4WZT4nossBdcJe5nsA8XdBmGahZPUehyfSuYFtMtR9Vb2HpvK1GaXT1v1jXQZe_usldBTS-7U1XIaz95BJPywmzFGzFu0uyAL99ZqUJNAdWxqlu5vkjlwP_3kmaqMe2936w50CyPPSBR6avbxIndrjiy3leVsVCoNTODMRK6m35AZGXc-fVLRWA_Gk1Va2jASiFNWBOfVbHCQrWAwEpWuw3mJ7zc1xLBm2U-HvbOAqLSNEEVlPjwt0NAup9z2Eueyvvwpv6O8rx3DRzoGPyTfIZutDpCRcVc23jH_S0nIus7Af9wTMTDwqnyMoVIHuhR79MDCwqmuL9Zteg2vXGbdHtfQG1wNSMW0TLfE9x0YMZYD3yg0KaWArIS7fCqJRgPqbNHlaYJWEZbVdxt9zVFYa6pOqM4dCekPubW6xLiXzc1ZTCgjgm7dotsdfUndlkVGtQ9yyjtw02QuRgOhIMj9zJJj8jKcLc5Xo9fBSd4s6TGe_6HUWxOqo4f-eX3hOJ-nKw20vfYhu3bwaJhfDxQNMbFTxa3tr1Glv1xAk-ydNvDzSP9dnzhpjNhP6cxcwVoVFnXDbkyRVaw9pZIzjCV6fU25sGYyHYydG_U1F8snGwChMAj7WNBPIKkyogZ9Mnh62syOkfitTWp5Ow4BDXXmHSRUx- -QQfKfyLgkEriQ20mN2Gzw_G8FMvwqY9r0tYcyYSPvwT9gvVVGM7K_mVVP_Ty35nTzldp-liwyEx6jq_m00]--></g></svg>