<svg xmlns="http://www.w3.org/2000/svg" xmlns:xlink="http://www.w3.org/1999/xlink" contentStyleType="text/css" data-diagram-type="CLASS" height="792px" preserveAspectRatio="none" style="width:566px;height:792px;background:#FFFFFF;" version="1.1" viewBox="0 0 566 792" width="566px" zoomAndPan="magnify"><defs/><g><!--class pingpy.input.beamSwitch.BeamSwitchInput--><g id="elem_pingpy.input.beamSwitch.BeamSwitchInput"><rect codeLine="2" fill="#F1F1F1" height="65.6094" id="pingpy.input.beamSwitch.BeamSwitchInput" rx="2.5" ry="2.5" style="stroke:#181818;stroke-width:0.5;" width="140.9443" x="7" y="212"/><ellipse cx="22" cy="228" fill="#ADD1B2" rx="11" ry="11" style="stroke:#181818;stroke-width:1;"/><path d="M24.7656,223.875 Q24.9219,223.6563 25.1094,223.5469 Q25.2969,223.4375 25.5156,223.4375 Q25.8906,223.4375 26.125,223.7031 Q26.3594,223.9531 26.3594,224.5625 L26.3594,226.0156 Q26.3594,226.625 26.125,226.8906 Q25.8906,227.1563 25.5156,227.1563 Q25.1719,227.1563 24.9688,226.9531 Q24.7656,226.7656 24.6563,226.25 Q24.6094,225.8906 24.4219,225.7031 Q24.0938,225.3281 23.4844,225.1094 Q22.875,224.8906 22.25,224.8906 Q21.4844,224.8906 20.8438,225.2188 Q20.2188,225.5469 19.7188,226.2969 Q19.2344,227.0469 19.2344,228.0781 L19.2344,229.1719 Q19.2344,230.4063 20.125,231.2344 Q21.0156,232.0469 22.6094,232.0469 Q23.5469,232.0469 24.2031,231.7969 Q24.5938,231.6406 25.0156,231.2031 Q25.2813,230.9375 25.4219,230.8594 Q25.5781,230.7813 25.7813,230.7813 Q26.1094,230.7813 26.3594,231.0469 Q26.625,231.2969 26.625,231.6406 Q26.625,231.9844 26.2813,232.3906 Q25.7813,232.9688 24.9844,233.2969 Q23.9063,233.75 22.6094,233.75 Q21.0938,233.75 19.8906,233.125 Q18.9063,232.625 18.2188,231.5625 Q17.5313,230.4844 17.5313,229.2031 L17.5313,228.0469 Q17.5313,226.7188 18.1406,225.5781 Q18.7656,224.4219 19.8594,223.8125 Q20.9531,223.1875 22.1875,223.1875 Q22.9219,223.1875 23.5625,223.3594 Q24.2188,223.5156 24.7656,223.875 Z " fill="#000000"/><text fill="#000000" font-family="sans-serif" font-size="14" lengthAdjust="spacing" textLength="108.9443" x="36" y="233.7285">BeamSwitchInput</text><line style="stroke:#181818;stroke-width:0.5;" x1="8" x2="146.9443" y1="244" y2="244"/><text fill="#000000" font-family="sans-serif" font-size="14" lengthAdjust="spacing" textLength="106.6133" x="13" y="262.5332">state : NoneType</text><line style="stroke:#181818;stroke-width:0.5;" x1="8" x2="146.9443" y1="269.6094" y2="269.6094"/></g><!--class pingpy.input.gameController3Button.GameController3ButtonInput--><g id="elem_pingpy.input.gameController3Button.GameController3ButtonInput"><rect codeLine="5" fill="#F1F1F1" height="118.4375" id="pingpy.input.gameController3Button.GameController3ButtonInput" rx="2.5" ry="2.5" style="stroke:#181818;stroke-width:0.5;" width="210.2129" x="159.5" y="7"/><ellipse cx="174.5" cy="23" fill="#ADD1B2" rx="11" ry="11" style="stroke:#181818;stroke-width:1;"/><path d="M177.2656,18.875 Q177.4219,18.6563 177.6094,18.5469 Q177.7969,18.4375 178.0156,18.4375 Q178.3906,18.4375 178.625,18.7031 Q178.8594,18.9531 178.8594,19.5625 L178.8594,21.0156 Q178.8594,21.625 178.625,21.8906 Q178.3906,22.1563 178.0156,22.1563 Q177.6719,22.1563 177.4688,21.9531 Q177.2656,21.7656 177.1563,21.25 Q177.1094,20.8906 176.9219,20.7031 Q176.5938,20.3281 175.9844,20.1094 Q175.375,19.8906 174.75,19.8906 Q173.9844,19.8906 173.3438,20.2188 Q172.7188,20.5469 172.2188,21.2969 Q171.7344,22.0469 171.7344,23.0781 L171.7344,24.1719 Q171.7344,25.4063 172.625,26.2344 Q173.5156,27.0469 175.1094,27.0469 Q176.0469,27.0469 176.7031,26.7969 Q177.0938,26.6406 177.5156,26.2031 Q177.7813,25.9375 177.9219,25.8594 Q178.0781,25.7813 178.2813,25.7813 Q178.6094,25.7813 178.8594,26.0469 Q179.125,26.2969 179.125,26.6406 Q179.125,26.9844 178.7813,27.3906 Q178.2813,27.9688 177.4844,28.2969 Q176.4063,28.75 175.1094,28.75 Q173.5938,28.75 172.3906,28.125 Q171.4063,27.625 170.7188,26.5625 Q170.0313,25.4844 170.0313,24.2031 L170.0313,23.0469 Q170.0313,21.7188 170.6406,20.5781 Q171.2656,19.4219 172.3594,18.8125 Q173.4531,18.1875 174.6875,18.1875 Q175.4219,18.1875 176.0625,18.3594 Q176.7188,18.5156 177.2656,18.875 Z " fill="#000000"/><text fill="#000000" font-family="sans-serif" font-size="14" lengthAdjust="spacing" textLength="178.2129" x="188.5" y="28.7285">GameController3ButtonInput</text><line style="stroke:#181818;stroke-width:0.5;" x1="160.5" x2="368.7129" y1="39" y2="39"/><text fill="#000000" font-family="sans-serif" font-size="14" lengthAdjust="spacing" textLength="101.1787" x="165.5" y="57.5332">countButton : int</text><text fill="#000000" font-family="sans-serif" font-size="14" lengthAdjust="spacing" textLength="56.8135" x="165.5" y="75.1426">left : bool</text><text fill="#000000" font-family="sans-serif" font-size="14" lengthAdjust="spacing" textLength="65.3721" x="165.5" y="92.752">right : bool</text><text fill="#000000" font-family="sans-serif" font-size="14" lengthAdjust="spacing" textLength="72.3857" x="165.5" y="110.3613">shoot : bool</text><line style="stroke:#181818;stroke-width:0.5;" x1="160.5" x2="368.7129" y1="117.4375" y2="117.4375"/></g><!--class pingpy.input.gameController.GameControllerInput--><g id="elem_pingpy.input.gameController.GameControllerInput"><rect codeLine="11" fill="#F1F1F1" height="65.6094" id="pingpy.input.gameController.GameControllerInput" rx="2.5" ry="2.5" style="stroke:#181818;stroke-width:0.5;" width="161.9512" x="183.5" y="212"/><ellipse cx="198.5" cy="228" fill="#ADD1B2" rx="11" ry="11" style="stroke:#181818;stroke-width:1;"/><path d="M201.2656,223.875 Q201.4219,223.6563 201.6094,223.5469 Q201.7969,223.4375 202.0156,223.4375 Q202.3906,223.4375 202.625,223.7031 Q202.8594,223.9531 202.8594,224.5625 L202.8594,226.0156 Q202.8594,226.625 202.625,226.8906 Q202.3906,227.1563 202.0156,227.1563 Q201.6719,227.1563 201.4688,226.9531 Q201.2656,226.7656 201.1563,226.25 Q201.1094,225.8906 200.9219,225.7031 Q200.5938,225.3281 199.9844,225.1094 Q199.375,224.8906 198.75,224.8906 Q197.9844,224.8906 197.3438,225.2188 Q196.7188,225.5469 196.2188,226.2969 Q195.7344,227.0469 195.7344,228.0781 L195.7344,229.1719 Q195.7344,230.4063 196.625,231.2344 Q197.5156,232.0469 199.1094,232.0469 Q200.0469,232.0469 200.7031,231.7969 Q201.0938,231.6406 201.5156,231.2031 Q201.7813,230.9375 201.9219,230.8594 Q202.0781,230.7813 202.2813,230.7813 Q202.6094,230.7813 202.8594,231.0469 Q203.125,231.2969 203.125,231.6406 Q203.125,231.9844 202.7813,232.3906 Q202.2813,232.9688 201.4844,233.2969 Q200.4063,233.75 199.1094,233.75 Q197.5938,233.75 196.3906,233.125 Q195.4063,232.625 194.7188,231.5625 Q194.0313,230.4844 194.0313,229.2031 L194.0313,228.0469 Q194.0313,226.7188 194.6406,225.5781 Q195.2656,224.4219 196.3594,223.8125 Q197.4531,223.1875 198.6875,223.1875 Q199.4219,223.1875 200.0625,223.3594 Q200.7188,223.5156 201.2656,223.875 Z " fill="#000000"/><text fill="#000000" font-family="sans-serif" font-size="14" lengthAdjust="spacing" textLength="129.9512" x="212.5" y="233.7285">GameControllerInput</text><line style="stroke:#181818;stroke-width:0.5;" x1="184.5" x2="344.4512" y1="244" y2="244"/><text fill="#000000" font-family="sans-serif" font-size="14" lengthAdjust="spacing" textLength="87.9443" x="189.5" y="262.5332">inAction : bool</text><line style="stroke:#181818;stroke-width:0.5;" x1="184.5" x2="344.4512" y1="269.6094" y2="269.6094"/></g><!--class pingpy.input.input.Input--><g id="elem_pingpy.input.input.Input"><rect codeLine="14" fill="#F1F1F1" height="83.2188" id="pingpy.input.input.Input" rx="2.5" ry="2.5" style="stroke:#181818;stroke-width:0.5;" width="68.793" x="331" y="702"/><ellipse cx="348.5449" cy="718" fill="#ADD1B2" rx="11" ry="11" style="stroke:#181818;stroke-width:1;"/><path d="M351.3105,713.875 Q351.4667,713.6563 351.6542,713.5469 Q351.8417,713.4375 352.0605,713.4375 Q352.4355,713.4375 352.6699,713.7031 Q352.9042,713.9531 352.9042,714.5625 L352.9042,716.0156 Q352.9042,716.625 352.6699,716.8906 Q352.4355,717.1563 352.0605,717.1563 Q351.7167,717.1563 351.5136,716.9531 Q351.3105,716.7656 351.2011,716.25 Q351.1542,715.8906 350.9667,715.7031 Q350.6386,715.3281 350.0292,715.1094 Q349.4199,714.8906 348.7949,714.8906 Q348.0292,714.8906 347.3886,715.2188 Q346.7636,715.5469 346.2636,716.2969 Q345.7792,717.0469 345.7792,718.0781 L345.7792,719.1719 Q345.7792,720.4063 346.6699,721.2344 Q347.5605,722.0469 349.1542,722.0469 Q350.0917,722.0469 350.748,721.7969 Q351.1386,721.6406 351.5605,721.2031 Q351.8261,720.9375 351.9667,720.8594 Q352.123,720.7813 352.3261,720.7813 Q352.6542,720.7813 352.9042,721.0469 Q353.1699,721.2969 353.1699,721.6406 Q353.1699,721.9844 352.8261,722.3906 Q352.3261,722.9688 351.5292,723.2969 Q350.4511,723.75 349.1542,723.75 Q347.6386,723.75 346.4355,723.125 Q345.4511,722.625 344.7636,721.5625 Q344.0761,720.4844 344.0761,719.2031 L344.0761,718.0469 Q344.0761,716.7188 344.6855,715.5781 Q345.3105,714.4219 346.4042,713.8125 Q347.498,713.1875 348.7324,713.1875 Q349.4667,713.1875 350.1074,713.3594 Q350.7636,713.5156 351.3105,713.875 Z " fill="#000000"/><text fill="#000000" font-family="sans-serif" font-size="14" lengthAdjust="spacing" textLength="31.1377" x="363.1104" y="723.7285">Input</text><line style="stroke:#181818;stroke-width:0.5;" x1="332" x2="398.793" y1="734" y2="734"/><text fill="#000000" font-family="sans-serif" font-size="14" lengthAdjust="spacing" textLength="56.793" x="337" y="752.5332">UICorner</text><text fill="#000000" font-family="sans-serif" font-size="14" lengthAdjust="spacing" textLength="38.1309" x="337" y="770.1426">player</text><line style="stroke:#181818;stroke-width:0.5;" x1="332" x2="398.793" y1="777.2188" y2="777.2188"/></g><!--class pingpy.input.linearActuator.LinearActuatorInput--><g id="elem_pingpy.input.linearActuator.LinearActuatorInput"><rect codeLine="18" fill="#F1F1F1" height="118.4375" id="pingpy.input.linearActuator.LinearActuatorInput" rx="2.5" ry="2.5" style="stroke:#181818;stroke-width:0.5;" width="163.7441" x="380.5" y="186"/><ellipse cx="399.7983" cy="202" fill="#ADD1B2" rx="11" ry="11" style="stroke:#181818;stroke-width:1;"/><path d="M402.5639,197.875 Q402.7202,197.6563 402.9077,197.5469 Q403.0952,197.4375 403.3139,197.4375 Q403.6889,197.4375 403.9233,197.7031 Q404.1577,197.9531 404.1577,198.5625 L404.1577,200.0156 Q404.1577,200.625 403.9233,200.8906 Q403.6889,201.1563 403.3139,201.1563 Q402.9702,201.1563 402.767,200.9531 Q402.5639,200.7656 402.4545,200.25 Q402.4077,199.8906 402.2202,199.7031 Q401.892,199.3281 401.2827,199.1094 Q400.6733,198.8906 400.0483,198.8906 Q399.2827,198.8906 398.642,199.2188 Q398.017,199.5469 397.517,200.2969 Q397.0327,201.0469 397.0327,202.0781 L397.0327,203.1719 Q397.0327,204.4063 397.9233,205.2344 Q398.8139,206.0469 400.4077,206.0469 Q401.3452,206.0469 402.0014,205.7969 Q402.392,205.6406 402.8139,205.2031 Q403.0795,204.9375 403.2202,204.8594 Q403.3764,204.7813 403.5795,204.7813 Q403.9077,204.7813 404.1577,205.0469 Q404.4233,205.2969 404.4233,205.6406 Q404.4233,205.9844 404.0795,206.3906 Q403.5795,206.9688 402.7827,207.2969 Q401.7045,207.75 400.4077,207.75 Q398.892,207.75 397.6889,207.125 Q396.7045,206.625 396.017,205.5625 Q395.3295,204.4844 395.3295,203.2031 L395.3295,202.0469 Q395.3295,200.7188 395.9389,199.5781 Q396.5639,198.4219 397.6577,197.8125 Q398.7514,197.1875 399.9858,197.1875 Q400.7202,197.1875 401.3608,197.3594 Q402.017,197.5156 402.5639,197.875 Z " fill="#000000"/><text fill="#000000" font-family="sans-serif" font-size="14" lengthAdjust="spacing" textLength="122.1924" x="414.7535" y="207.7285">LinearActuatorInput</text><line style="stroke:#181818;stroke-width:0.5;" x1="381.5" x2="543.2441" y1="218" y2="218"/><text fill="#000000" font-family="sans-serif" font-size="14" lengthAdjust="spacing" textLength="151.7441" x="386.5" y="236.5332">currentPose : NoneType</text><text fill="#000000" font-family="sans-serif" font-size="14" lengthAdjust="spacing" textLength="124.4961" x="386.5" y="254.1426">leftLimit : NoneType</text><text fill="#000000" font-family="sans-serif" font-size="14" lengthAdjust="spacing" textLength="83.2686" x="386.5" y="271.752">moving : bool</text><text fill="#000000" font-family="sans-serif" font-size="14" lengthAdjust="spacing" textLength="133.0547" x="386.5" y="289.3613">rightLimit : NoneType</text><line style="stroke:#181818;stroke-width:0.5;" x1="381.5" x2="543.2441" y1="296.4375" y2="296.4375"/></g><!--class pingpy.input.player.PlayerInput--><g id="elem_pingpy.input.player.PlayerInput"><rect codeLine="24" fill="#F1F1F1" height="136.0469" id="pingpy.input.player.PlayerInput" rx="2.5" ry="2.5" style="stroke:#181818;stroke-width:0.5;" width="142.7236" x="193" y="435"/><ellipse cx="225.9565" cy="451" fill="#ADD1B2" rx="11" ry="11" style="stroke:#181818;stroke-width:1;"/><path d="M228.7221,446.875 Q228.8784,446.6563 229.0659,446.5469 Q229.2534,446.4375 229.4721,446.4375 Q229.8471,446.4375 230.0815,446.7031 Q230.3159,446.9531 230.3159,447.5625 L230.3159,449.0156 Q230.3159,449.625 230.0815,449.8906 Q229.8471,450.1563 229.4721,450.1563 Q229.1284,450.1563 228.9252,449.9531 Q228.7221,449.7656 228.6127,449.25 Q228.5659,448.8906 228.3784,448.7031 Q228.0502,448.3281 227.4409,448.1094 Q226.8315,447.8906 226.2065,447.8906 Q225.4409,447.8906 224.8002,448.2188 Q224.1752,448.5469 223.6752,449.2969 Q223.1909,450.0469 223.1909,451.0781 L223.1909,452.1719 Q223.1909,453.4063 224.0815,454.2344 Q224.9721,455.0469 226.5659,455.0469 Q227.5034,455.0469 228.1596,454.7969 Q228.5502,454.6406 228.9721,454.2031 Q229.2377,453.9375 229.3784,453.8594 Q229.5346,453.7813 229.7377,453.7813 Q230.0659,453.7813 230.3159,454.0469 Q230.5815,454.2969 230.5815,454.6406 Q230.5815,454.9844 230.2377,455.3906 Q229.7377,455.9688 228.9409,456.2969 Q227.8627,456.75 226.5659,456.75 Q225.0502,456.75 223.8471,456.125 Q222.8627,455.625 222.1752,454.5625 Q221.4877,453.4844 221.4877,452.2031 L221.4877,451.0469 Q221.4877,449.7188 222.0971,448.5781 Q222.7221,447.4219 223.8159,446.8125 Q224.9096,446.1875 226.144,446.1875 Q226.8784,446.1875 227.519,446.3594 Q228.1752,446.5156 228.7221,446.875 Z " fill="#000000"/><text fill="#000000" font-family="sans-serif" font-size="14" lengthAdjust="spacing" textLength="70.8203" x="243.9468" y="456.7285">PlayerInput</text><line style="stroke:#181818;stroke-width:0.5;" x1="194" x2="334.7236" y1="467" y2="467"/><text fill="#000000" font-family="sans-serif" font-size="14" lengthAdjust="spacing" textLength="76.2549" x="199" y="485.5332">beamSwitch</text><text fill="#000000" font-family="sans-serif" font-size="14" lengthAdjust="spacing" textLength="95.71" x="199" y="503.1426">gameController</text><text fill="#000000" font-family="sans-serif" font-size="14" lengthAdjust="spacing" textLength="86.3789" x="199" y="520.752">linearActuator</text><text fill="#000000" font-family="sans-serif" font-size="14" lengthAdjust="spacing" textLength="106.6201" x="199" y="538.3613">pointCounter : int</text><text fill="#000000" font-family="sans-serif" font-size="14" lengthAdjust="spacing" textLength="130.7236" x="199" y="555.9707">usb : ControllerSerial</text><line style="stroke:#181818;stroke-width:0.5;" x1="194" x2="334.7236" y1="563.0469" y2="563.0469"/></g><!--class pingpy.input.UICorner.UICornerInput--><g id="elem_pingpy.input.UICorner.UICornerInput"><rect codeLine="31" fill="#F1F1F1" height="241.7031" id="pingpy.input.UICorner.UICornerInput" rx="2.5" ry="2.5" style="stroke:#181818;stroke-width:0.5;" width="188.6338" x="371" y="382"/><ellipse cx="417.1016" cy="398" fill="#ADD1B2" rx="11" ry="11" style="stroke:#181818;stroke-width:1;"/><path d="M419.8672,393.875 Q420.0234,393.6563 420.2109,393.5469 Q420.3984,393.4375 420.6172,393.4375 Q420.9922,393.4375 421.2266,393.7031 Q421.4609,393.9531 421.4609,394.5625 L421.4609,396.0156 Q421.4609,396.625 421.2266,396.8906 Q420.9922,397.1563 420.6172,397.1563 Q420.2734,397.1563 420.0703,396.9531 Q419.8672,396.7656 419.7578,396.25 Q419.7109,395.8906 419.5234,395.7031 Q419.1953,395.3281 418.5859,395.1094 Q417.9766,394.8906 417.3516,394.8906 Q416.5859,394.8906 415.9453,395.2188 Q415.3203,395.5469 414.8203,396.2969 Q414.3359,397.0469 414.3359,398.0781 L414.3359,399.1719 Q414.3359,400.4063 415.2266,401.2344 Q416.1172,402.0469 417.7109,402.0469 Q418.6484,402.0469 419.3047,401.7969 Q419.6953,401.6406 420.1172,401.2031 Q420.3828,400.9375 420.5234,400.8594 Q420.6797,400.7813 420.8828,400.7813 Q421.2109,400.7813 421.4609,401.0469 Q421.7266,401.2969 421.7266,401.6406 Q421.7266,401.9844 421.3828,402.3906 Q420.8828,402.9688 420.0859,403.2969 Q419.0078,403.75 417.7109,403.75 Q416.1953,403.75 414.9922,403.125 Q414.0078,402.625 413.3203,401.5625 Q412.6328,400.4844 412.6328,399.2031 L412.6328,398.0469 Q412.6328,396.7188 413.2422,395.5781 Q413.8672,394.4219 414.9609,393.8125 Q416.0547,393.1875 417.2891,393.1875 Q418.0234,393.1875 418.6641,393.3594 Q419.3203,393.5156 419.8672,393.875 Z " fill="#000000"/><text fill="#000000" font-family="sans-serif" font-size="14" lengthAdjust="spacing" textLength="87.9307" x="437.6016" y="403.7285">UICornerInput</text><line style="stroke:#181818;stroke-width:0.5;" x1="372" x2="558.6338" y1="414" y2="414"/><text fill="#000000" font-family="sans-serif" font-size="14" lengthAdjust="spacing" textLength="105.0547" x="377" y="432.5332">level : NoneType</text><text fill="#000000" font-family="sans-serif" font-size="14" lengthAdjust="spacing" textLength="101.9443" x="377" y="450.1426">light : NoneType</text><text fill="#000000" font-family="sans-serif" font-size="14" lengthAdjust="spacing" textLength="136.1787" x="377" y="467.752">modeDec : NoneType</text><text fill="#000000" font-family="sans-serif" font-size="14" lengthAdjust="spacing" textLength="129.958" x="377" y="485.3613">modeInc : NoneType</text><text fill="#000000" font-family="sans-serif" font-size="14" lengthAdjust="spacing" textLength="143.1924" x="377" y="502.9707">modePush : NoneType</text><text fill="#000000" font-family="sans-serif" font-size="14" lengthAdjust="spacing" textLength="162.6475" x="377" y="520.5801">modeRelease : NoneType</text><text fill="#000000" font-family="sans-serif" font-size="14" lengthAdjust="spacing" textLength="174.3164" x="377" y="538.1895">resetLongPress : NoneType</text><text fill="#000000" font-family="sans-serif" font-size="14" lengthAdjust="spacing" textLength="139.2959" x="377" y="555.7988">resetPush : NoneType</text><text fill="#000000" font-family="sans-serif" font-size="14" lengthAdjust="spacing" textLength="158.751" x="377" y="573.4082">resetRelease : NoneType</text><text fill="#000000" font-family="sans-serif" font-size="14" lengthAdjust="spacing" textLength="176.6338" x="377" y="591.0176">resetShortPress : NoneType</text><text fill="#000000" font-family="sans-serif" font-size="14" lengthAdjust="spacing" textLength="121.3926" x="377" y="608.627">volume : NoneType</text><line style="stroke:#181818;stroke-width:0.5;" x1="372" x2="558.6338" y1="615.7031" y2="615.7031"/></g><!--link pingpy.input.gameController3Button.GameController3ButtonInput to pingpy.input.gameController.GameControllerInput--><g id="link_pingpy.input.gameController3Button.GameController3ButtonInput_pingpy.input.gameController.GameControllerInput"><path codeLine="44" d="M264.5,125.45 C264.5,154.25 264.5,169.86 264.5,193.93 " fill="transparent" id="pingpy.input.gameController3Button.GameController3ButtonInput-to-pingpy.input.gameController.GameControllerInput" style="stroke:#181818;stroke-width:1;"/><polygon fill="transparent" points="264.5,211.93,270.5,193.93,258.5,193.93,264.5,211.93" style="stroke:#181818;stroke-width:1;"/></g><!--link pingpy.input.UICorner.UICornerInput to pingpy.input.input.Input--><g id="link_pingpy.input.UICorner.UICornerInput_pingpy.input.input.Input"><path codeLine="45" d="M415.06,624.3 C403.31,652.31 396.24,669.1834 387.15,690.8634 " fill="transparent" id="pingpy.input.UICorner.UICornerInput-to-pingpy.input.input.Input" style="stroke:#181818;stroke-width:1;"/><polygon fill="#181818" points="382.51,701.93,388.5189,697.9434,387.15,690.8634,381.1411,694.85,382.51,701.93" style="stroke:#181818;stroke-width:1;"/><text fill="#000000" font-family="sans-serif" font-size="13" lengthAdjust="spacing" textLength="52.7363" x="401.5" y="668.4951">UICorner</text></g><!--link pingpy.input.beamSwitch.BeamSwitchInput to pingpy.input.player.PlayerInput--><g id="link_pingpy.input.beamSwitch.BeamSwitchInput_pingpy.input.player.PlayerInput"><path codeLine="46" d="M100.99,278.16 C129.59,317.31 171.5411,374.7504 208.4711,425.3004 " fill="transparent" id="pingpy.input.beamSwitch.BeamSwitchInput-to-pingpy.input.player.PlayerInput" style="stroke:#181818;stroke-width:1;"/><polygon fill="#181818" points="215.55,434.99,215.2404,427.7855,208.4711,425.3004,208.7807,432.5048,215.55,434.99" style="stroke:#181818;stroke-width:1;"/><text fill="#000000" font-family="sans-serif" font-size="13" lengthAdjust="spacing" textLength="70.8081" x="155.5" y="348.4951">beamSwitch</text></g><!--link pingpy.input.gameController.GameControllerInput to pingpy.input.player.PlayerInput--><g id="link_pingpy.input.gameController.GameControllerInput_pingpy.input.player.PlayerInput"><path codeLine="47" d="M264.5,278.16 C264.5,317.31 264.5,372.44 264.5,422.99 " fill="transparent" id="pingpy.input.gameController.GameControllerInput-to-pingpy.input.player.PlayerInput" style="stroke:#181818;stroke-width:1;"/><polygon fill="#181818" points="264.5,434.99,268.5,428.99,264.5,422.99,260.5,428.99,264.5,434.99" style="stroke:#181818;stroke-width:1;"/><text fill="#000000" font-family="sans-serif" font-size="13" lengthAdjust="spacing" textLength="88.8735" x="265.5" y="348.4951">gameController</text></g><!--link pingpy.input.linearActuator.LinearActuatorInput to pingpy.input.player.PlayerInput--><g id="link_pingpy.input.linearActuator.LinearActuatorInput_pingpy.input.player.PlayerInput"><path codeLine="48" d="M415.07,304.19 C395.77,328.13 373.36,356.24 353.5,382 C340.43,398.95 333.6899,407.7927 320.8699,425.0727 " fill="transparent" id="pingpy.input.linearActuator.LinearActuatorInput-to-pingpy.input.player.PlayerInput" style="stroke:#181818;stroke-width:1;"/><polygon fill="#181818" points="313.72,434.71,320.5074,432.2746,320.8699,425.0727,314.0825,427.508,313.72,434.71" style="stroke:#181818;stroke-width:1;"/><text fill="#000000" font-family="sans-serif" font-size="13" lengthAdjust="spacing" textLength="80.209" x="389.5" y="348.4951">linearActuator</text></g><!--link pingpy.input.player.PlayerInput to pingpy.input.input.Input--><g id="link_pingpy.input.player.PlayerInput_pingpy.input.input.Input"><path codeLine="49" d="M292.79,571.05 C305.79,601.82 321.41,638.77 335.5,672 C339.6,681.67 339.333,681.0475 343.493,690.8275 " fill="transparent" id="pingpy.input.player.PlayerInput-to-pingpy.input.input.Input" style="stroke:#181818;stroke-width:1;"/><polygon fill="#181818" points="348.19,701.87,349.5223,694.783,343.493,690.8275,342.1606,697.9144,348.19,701.87" style="stroke:#181818;stroke-width:1;"/><text fill="#000000" font-family="sans-serif" font-size="13" lengthAdjust="spacing" textLength="52.749" x="336.5" y="668.4951">4 players</text></g><!--SRC=[fLHDQyCm3BtdLvWT1_5bE_KmM3iOXJB2ilq0DzCIWsC5M-aes_xxdAJDjsdABi5IfAVd9yaMY6cHWor40Z4KmWX2mpHg218bh6KtQn1v_2KfoRQwAEc62SiAgTFYo6NbuFisW8zYsNV0c2L1m5RinM6-7Gi8Vi_8pwxm1ZKPL0hCtReaGkqfaix5SZz2NJh1KbFZT0Ia9kTJy4dEs2CgPncPPZtJPeYjwU6vY22VoQafIVsOaApv38juO9jlb_- -tQ3HODonKEBe3Yt2JceGni6NLGyzU6eGn6To6kLAOq1JX7RGkaQ-dSmb3Tqv7boLaQwJk9PgL5FtK6pknNinDQLkp9mnLBlYDRX8fGwwVc-g0G3JDh-qUtVk4cCmKlIQS5RNm-pycm_YQdOA3g16KfrcQo3J1pn1CdLkzOmpAcqszRw20Z5kYm4Bj4ETHkvaP_vDiMgt7opEqD0CsW5LcO_s-N-R6eO_3zVkKh2aBs5uwr-cLRTAIr-p2TxCfAxwSthj0x6im6ZshrtlPKL6-tGfuOBKzwV7olu1]--></g></svg>