<?xml version="1.0" encoding="UTF-8" standalone="no"?><svg xmlns="http://www.w3.org/2000/svg" xmlns:xlink="http://www.w3.org/1999/xlink" contentScriptType="application/ecmascript" contentStyleType="text/css" height="1517px" preserveAspectRatio="none" style="width:1087px;height:1517px;" version="1.1" viewBox="0 0 1087 1517" width="1087px" zoomAndPan="magnify"><defs><filter height="300%" id="f198ne6h8fnx7e" width="300%" x="-1" y="-1"><feGaussianBlur result="blurOut" stdDeviation="2.0"/><feColorMatrix in="blurOut" result="blurOut2" type="matrix" values="0 0 0 0 0 0 0 0 0 0 0 0 0 0 0 0 0 0 .4 0"/><feOffset dx="4.0" dy="4.0" in="blurOut2" result="blurOut3"/><feBlend in="SourceGraphic" in2="blurOut3" mode="normal"/></filter></defs><g><!--MD5=[68fcd56d8725033e494281892f0f8fc2]
class BeamSwitch--><rect fill="#FEFECE" filter="url(#f198ne6h8fnx7e)" height="252.875" id="BeamSwitch" style="stroke: #A80036; stroke-width: 1.5;" width="263" x="6" y="946"/><ellipse cx="95.75" cy="962" fill="#ADD1B2" rx="11" ry="11" style="stroke: #A80036; stroke-width: 1.0;"/><path d="M98.7188,967.6406 Q98.1406,967.9375 97.5,968.0781 Q96.8594,968.2344 96.1563,968.2344 Q93.6563,968.2344 92.3281,966.5938 Q91.0156,964.9375 91.0156,961.8125 Q91.0156,958.6875 92.3281,957.0313 Q93.6563,955.375 96.1563,955.375 Q96.8594,955.375 97.5,955.5313 Q98.1563,955.6875 98.7188,955.9844 L98.7188,958.7031 Q98.0938,958.125 97.5,957.8594 Q96.9063,957.5781 96.2813,957.5781 Q94.9375,957.5781 94.25,958.6563 Q93.5625,959.7188 93.5625,961.8125 Q93.5625,963.9063 94.25,964.9844 Q94.9375,966.0469 96.2813,966.0469 Q96.9063,966.0469 97.5,965.7813 Q98.0938,965.5 98.7188,964.9219 L98.7188,967.6406 Z "/><text fill="#000000" font-family="sans-serif" font-size="12" lengthAdjust="spacingAndGlyphs" textLength="75" x="116.25" y="966.1543">BeamSwitch</text><line style="stroke: #A80036; stroke-width: 1.5;" x1="7" x2="268" y1="978" y2="978"/><rect fill="none" height="6" style="stroke: #C82930; stroke-width: 1.0;" width="6" x="14" y="986"/><text fill="#000000" font-family="sans-serif" font-size="11" lengthAdjust="spacingAndGlyphs" textLength="65" x="26" y="992.2104">state : bool</text><rect fill="none" height="6" style="stroke: #C82930; stroke-width: 1.0;" width="6" x="14" y="998.8047"/><text fill="#000000" font-family="sans-serif" font-size="11" lengthAdjust="spacingAndGlyphs" textLength="154" x="26" y="1005.0151">beamSwitchRPin : const int</text><rect fill="none" height="6" style="stroke: #C82930; stroke-width: 1.0;" width="6" x="14" y="1011.6094"/><text fill="#000000" font-family="sans-serif" font-size="11" lengthAdjust="spacingAndGlyphs" textLength="118" x="26" y="1017.8198">lastReceiveTime : int</text><rect fill="none" height="6" style="stroke: #C82930; stroke-width: 1.0;" width="6" x="14" y="1024.4141"/><text fill="#000000" font-family="sans-serif" font-size="11" lengthAdjust="spacingAndGlyphs" text-decoration="underline" textLength="234" x="26" y="1030.6245">checkAllTaskHandle : static TaskHandle_t</text><rect fill="none" height="6" style="stroke: #C82930; stroke-width: 1.0;" width="6" x="14" y="1037.2188"/><text fill="#000000" font-family="sans-serif" font-size="11" lengthAdjust="spacingAndGlyphs" text-decoration="underline" textLength="190" x="26" y="1043.4292">all : static Vector&lt;BeamSwitch*&gt;</text><rect fill="none" height="6" style="stroke: #C82930; stroke-width: 1.0;" width="6" x="14" y="1050.0234"/><text fill="#000000" font-family="sans-serif" font-size="11" lengthAdjust="spacingAndGlyphs" text-decoration="underline" textLength="96" x="26" y="1056.2339">emit : static bool</text><line style="stroke: #A80036; stroke-width: 1.5;" x1="7" x2="268" y1="1062.8281" y2="1062.8281"/><ellipse cx="17" cy="1073.8281" fill="#84BE84" rx="3" ry="3" style="stroke: #038048; stroke-width: 1.0;"/><text fill="#000000" font-family="sans-serif" font-size="11" lengthAdjust="spacingAndGlyphs" textLength="189" x="26" y="1077.0386">BeamSwitch(int beamSwitchRPin)</text><ellipse cx="17" cy="1086.6328" fill="#84BE84" rx="3" ry="3" style="stroke: #038048; stroke-width: 1.0;"/><text fill="#000000" font-family="sans-serif" font-size="11" lengthAdjust="spacingAndGlyphs" textLength="87" x="26" y="1089.8433">~BeamSwitch()</text><rect fill="#F24D5C" height="6" style="stroke: #C82930; stroke-width: 1.0;" width="6" x="14" y="1096.4375"/><text fill="#000000" font-family="sans-serif" font-size="11" lengthAdjust="spacingAndGlyphs" textLength="194" x="26" y="1102.6479">check(uint64_t currentTime) : bool</text><ellipse cx="17" cy="1112.2422" fill="#84BE84" rx="3" ry="3" style="stroke: #038048; stroke-width: 1.0;"/><text fill="#000000" font-family="sans-serif" font-size="11" lengthAdjust="spacingAndGlyphs" textLength="97" x="26" y="1115.4526">get_state() : bool</text><rect fill="#F24D5C" height="6" style="stroke: #C82930; stroke-width: 1.0;" width="6" x="14" y="1122.0469"/><text fill="#000000" font-family="sans-serif" font-size="11" lengthAdjust="spacingAndGlyphs" text-decoration="underline" textLength="212" x="26" y="1128.2573">check_all(uint64_t currentTime) : void</text><rect fill="#F24D5C" height="6" style="stroke: #C82930; stroke-width: 1.0;" width="6" x="14" y="1134.8516"/><text fill="#000000" font-family="sans-serif" font-size="11" lengthAdjust="spacingAndGlyphs" text-decoration="underline" textLength="237" x="26" y="1141.062">check_all_task(void* pvParameters) : void</text><ellipse cx="17" cy="1150.6563" fill="#84BE84" rx="3" ry="3" style="stroke: #038048; stroke-width: 1.0;"/><text fill="#000000" font-family="sans-serif" font-size="11" lengthAdjust="spacingAndGlyphs" textLength="75" x="26" y="1153.8667">setup() : void</text><ellipse cx="17" cy="1163.4609" fill="#84BE84" rx="3" ry="3" style="stroke: #038048; stroke-width: 1.0;"/><text fill="#000000" font-family="sans-serif" font-size="11" lengthAdjust="spacingAndGlyphs" text-decoration="underline" textLength="122" x="26" y="1166.6714">setup_emitter() : void</text><ellipse cx="17" cy="1176.2656" fill="#84BE84" rx="3" ry="3" style="stroke: #038048; stroke-width: 1.0;"/><text fill="#000000" font-family="sans-serif" font-size="11" lengthAdjust="spacingAndGlyphs" text-decoration="underline" textLength="101" x="26" y="1179.4761">start_emit() : void</text><ellipse cx="17" cy="1189.0703" fill="#84BE84" rx="3" ry="3" style="stroke: #038048; stroke-width: 1.0;"/><text fill="#000000" font-family="sans-serif" font-size="11" lengthAdjust="spacingAndGlyphs" text-decoration="underline" textLength="99" x="26" y="1192.2808">stop_emit() : void</text><!--MD5=[0ce16f4c3d7cb0b09c708de0157594c0]
class LinearActuator--><rect fill="#FEFECE" filter="url(#f198ne6h8fnx7e)" height="867.5" id="LinearActuator" style="stroke: #A80036; stroke-width: 1.5;" width="407" x="322" y="639"/><ellipse cx="475.25" cy="655" fill="#ADD1B2" rx="11" ry="11" style="stroke: #A80036; stroke-width: 1.0;"/><path d="M478.2188,660.6406 Q477.6406,660.9375 477,661.0781 Q476.3594,661.2344 475.6563,661.2344 Q473.1563,661.2344 471.8281,659.5938 Q470.5156,657.9375 470.5156,654.8125 Q470.5156,651.6875 471.8281,650.0313 Q473.1563,648.375 475.6563,648.375 Q476.3594,648.375 477,648.5313 Q477.6563,648.6875 478.2188,648.9844 L478.2188,651.7031 Q477.5938,651.125 477,650.8594 Q476.4063,650.5781 475.7813,650.5781 Q474.4375,650.5781 473.75,651.6563 Q473.0625,652.7188 473.0625,654.8125 Q473.0625,656.9063 473.75,657.9844 Q474.4375,659.0469 475.7813,659.0469 Q476.4063,659.0469 477,658.7813 Q477.5938,658.5 478.2188,657.9219 L478.2188,660.6406 Z "/><text fill="#000000" font-family="sans-serif" font-size="12" lengthAdjust="spacingAndGlyphs" textLength="92" x="495.75" y="659.1543">LinearActuator</text><line style="stroke: #A80036; stroke-width: 1.5;" x1="323" x2="728" y1="671" y2="671"/><rect fill="none" height="6" style="stroke: #C82930; stroke-width: 1.0;" width="6" x="330" y="679"/><text fill="#000000" font-family="sans-serif" font-size="11" lengthAdjust="spacingAndGlyphs" textLength="120" x="342" y="685.2104">motor : AccelStepper</text><rect fill="none" height="6" style="stroke: #C82930; stroke-width: 1.0;" width="6" x="330" y="691.8047"/><text fill="#000000" font-family="sans-serif" font-size="11" lengthAdjust="spacingAndGlyphs" textLength="142" x="342" y="698.0151">driver : TMC2209Stepper</text><rect fill="none" height="6" style="stroke: #C82930; stroke-width: 1.0;" width="6" x="330" y="704.6094"/><text fill="#000000" font-family="sans-serif" font-size="11" lengthAdjust="spacingAndGlyphs" textLength="134" x="342" y="710.8198">askForStallGuard : bool</text><rect fill="none" height="6" style="stroke: #C82930; stroke-width: 1.0;" width="6" x="330" y="717.4141"/><text fill="#000000" font-family="sans-serif" font-size="11" lengthAdjust="spacingAndGlyphs" textLength="95" x="342" y="723.6245">calibrating : bool</text><rect fill="none" height="6" style="stroke: #C82930; stroke-width: 1.0;" width="6" x="330" y="730.2188"/><text fill="#000000" font-family="sans-serif" font-size="11" lengthAdjust="spacingAndGlyphs" textLength="169" x="342" y="736.4292">newStallGuardAvailable : bool</text><rect fill="none" height="6" style="stroke: #C82930; stroke-width: 1.0;" width="6" x="330" y="743.0234"/><text fill="#000000" font-family="sans-serif" font-size="11" lengthAdjust="spacingAndGlyphs" textLength="79" x="342" y="749.2339">running : bool</text><rect fill="none" height="6" style="stroke: #C82930; stroke-width: 1.0;" width="6" x="330" y="755.8281"/><text fill="#000000" font-family="sans-serif" font-size="11" lengthAdjust="spacingAndGlyphs" textLength="65" x="342" y="762.0386">shaft : bool</text><rect fill="none" height="6" style="stroke: #C82930; stroke-width: 1.0;" width="6" x="330" y="768.6328"/><text fill="#000000" font-family="sans-serif" font-size="11" lengthAdjust="spacingAndGlyphs" textLength="95" x="342" y="774.8433">stallResult : bool</text><rect fill="none" height="6" style="stroke: #C82930; stroke-width: 1.0;" width="6" x="330" y="781.4375"/><text fill="#000000" font-family="sans-serif" font-size="11" lengthAdjust="spacingAndGlyphs" textLength="188" x="342" y="787.6479">calibrationFirstWallPosition : float</text><rect fill="none" height="6" style="stroke: #C82930; stroke-width: 1.0;" width="6" x="330" y="794.2422"/><text fill="#000000" font-family="sans-serif" font-size="11" lengthAdjust="spacingAndGlyphs" textLength="188" x="342" y="800.4526">calibrationFirstWallPosition : float</text><rect fill="none" height="6" style="stroke: #C82930; stroke-width: 1.0;" width="6" x="330" y="807.0469"/><text fill="#000000" font-family="sans-serif" font-size="11" lengthAdjust="spacingAndGlyphs" textLength="188" x="342" y="813.2573">calibrationFirstWallPosition : float</text><rect fill="none" height="6" style="stroke: #C82930; stroke-width: 1.0;" width="6" x="330" y="819.8516"/><text fill="#000000" font-family="sans-serif" font-size="11" lengthAdjust="spacingAndGlyphs" textLength="82" x="342" y="826.062">leftLimit : float</text><rect fill="none" height="6" style="stroke: #C82930; stroke-width: 1.0;" width="6" x="330" y="832.6563"/><text fill="#000000" font-family="sans-serif" font-size="11" lengthAdjust="spacingAndGlyphs" textLength="90" x="342" y="838.8667">rightLimit : float</text><rect fill="none" height="6" style="stroke: #C82930; stroke-width: 1.0;" width="6" x="330" y="845.4609"/><text fill="#000000" font-family="sans-serif" font-size="11" lengthAdjust="spacingAndGlyphs" textLength="165" x="342" y="851.6714">calibrationGoodSamples : int</text><rect fill="none" height="6" style="stroke: #C82930; stroke-width: 1.0;" width="6" x="330" y="858.2656"/><text fill="#000000" font-family="sans-serif" font-size="11" lengthAdjust="spacingAndGlyphs" textLength="161" x="342" y="864.4761">currentCalibrationSteps : int</text><rect fill="none" height="6" style="stroke: #C82930; stroke-width: 1.0;" width="6" x="330" y="871.0703"/><text fill="#000000" font-family="sans-serif" font-size="11" lengthAdjust="spacingAndGlyphs" textLength="89" x="342" y="877.2808">chrono : int64_t</text><rect fill="none" height="6" style="stroke: #C82930; stroke-width: 1.0;" width="6" x="330" y="883.875"/><text fill="#000000" font-family="sans-serif" font-size="11" lengthAdjust="spacingAndGlyphs" text-decoration="underline" textLength="202" x="342" y="890.0854">all : static Vector&lt;LinearActuator*&gt;</text><rect fill="none" height="6" style="stroke: #C82930; stroke-width: 1.0;" width="6" x="330" y="896.6797"/><text fill="#000000" font-family="sans-serif" font-size="11" lengthAdjust="spacingAndGlyphs" textLength="118" x="342" y="902.8901">updateSgTh : uint8_t</text><line style="stroke: #A80036; stroke-width: 1.5;" x1="323" x2="728" y1="909.4844" y2="909.4844"/><ellipse cx="333" cy="920.4844" fill="#84BE84" rx="3" ry="3" style="stroke: #038048; stroke-width: 1.0;"/><text fill="#000000" font-family="sans-serif" font-size="11" lengthAdjust="spacingAndGlyphs" textLength="381" x="342" y="923.6948">LinearActuator(int stepPin, int dirPin, uint8_t addresss, bool shaftt)</text><ellipse cx="333" cy="933.2891" fill="#84BE84" rx="3" ry="3" style="stroke: #038048; stroke-width: 1.0;"/><text fill="#000000" font-family="sans-serif" font-size="11" lengthAdjust="spacingAndGlyphs" textLength="99" x="342" y="936.4995">~LinearActuator()</text><rect fill="#F24D5C" height="6" style="stroke: #C82930; stroke-width: 1.0;" width="6" x="330" y="943.0938"/><text fill="#000000" font-family="sans-serif" font-size="11" lengthAdjust="spacingAndGlyphs" textLength="88" x="342" y="949.3042">c_step1() : bool</text><rect fill="#F24D5C" height="6" style="stroke: #C82930; stroke-width: 1.0;" width="6" x="330" y="955.8984"/><text fill="#000000" font-family="sans-serif" font-size="11" lengthAdjust="spacingAndGlyphs" textLength="162" x="342" y="962.1089">c_step10(int64_t time) : bool</text><rect fill="#F24D5C" height="6" style="stroke: #C82930; stroke-width: 1.0;" width="6" x="330" y="968.7031"/><text fill="#000000" font-family="sans-serif" font-size="11" lengthAdjust="spacingAndGlyphs" textLength="162" x="342" y="974.9136">c_step11(int64_t time) : bool</text><rect fill="#F24D5C" height="6" style="stroke: #C82930; stroke-width: 1.0;" width="6" x="330" y="981.5078"/><text fill="#000000" font-family="sans-serif" font-size="11" lengthAdjust="spacingAndGlyphs" textLength="95" x="342" y="987.7183">c_step12() : bool</text><rect fill="#F24D5C" height="6" style="stroke: #C82930; stroke-width: 1.0;" width="6" x="330" y="994.3125"/><text fill="#000000" font-family="sans-serif" font-size="11" lengthAdjust="spacingAndGlyphs" textLength="95" x="342" y="1000.5229">c_step13() : bool</text><rect fill="#F24D5C" height="6" style="stroke: #C82930; stroke-width: 1.0;" width="6" x="330" y="1007.1172"/><text fill="#000000" font-family="sans-serif" font-size="11" lengthAdjust="spacingAndGlyphs" textLength="162" x="342" y="1013.3276">c_step14(int64_t time) : bool</text><rect fill="#F24D5C" height="6" style="stroke: #C82930; stroke-width: 1.0;" width="6" x="330" y="1019.9219"/><text fill="#000000" font-family="sans-serif" font-size="11" lengthAdjust="spacingAndGlyphs" textLength="162" x="342" y="1026.1323">c_step15(int64_t time) : bool</text><rect fill="#F24D5C" height="6" style="stroke: #C82930; stroke-width: 1.0;" width="6" x="330" y="1032.7266"/><text fill="#000000" font-family="sans-serif" font-size="11" lengthAdjust="spacingAndGlyphs" textLength="95" x="342" y="1038.937">c_step16() : bool</text><rect fill="#F24D5C" height="6" style="stroke: #C82930; stroke-width: 1.0;" width="6" x="330" y="1045.5313"/><text fill="#000000" font-family="sans-serif" font-size="11" lengthAdjust="spacingAndGlyphs" textLength="155" x="342" y="1051.7417">c_step2(int64_t time) : bool</text><rect fill="#F24D5C" height="6" style="stroke: #C82930; stroke-width: 1.0;" width="6" x="330" y="1058.3359"/><text fill="#000000" font-family="sans-serif" font-size="11" lengthAdjust="spacingAndGlyphs" textLength="155" x="342" y="1064.5464">c_step3(int64_t time) : bool</text><rect fill="#F24D5C" height="6" style="stroke: #C82930; stroke-width: 1.0;" width="6" x="330" y="1071.1406"/><text fill="#000000" font-family="sans-serif" font-size="11" lengthAdjust="spacingAndGlyphs" textLength="88" x="342" y="1077.3511">c_step4() : bool</text><rect fill="#F24D5C" height="6" style="stroke: #C82930; stroke-width: 1.0;" width="6" x="330" y="1083.9453"/><text fill="#000000" font-family="sans-serif" font-size="11" lengthAdjust="spacingAndGlyphs" textLength="88" x="342" y="1090.1558">c_step5() : bool</text><rect fill="#F24D5C" height="6" style="stroke: #C82930; stroke-width: 1.0;" width="6" x="330" y="1096.75"/><text fill="#000000" font-family="sans-serif" font-size="11" lengthAdjust="spacingAndGlyphs" textLength="155" x="342" y="1102.9604">c_step6(int64_t time) : bool</text><rect fill="#F24D5C" height="6" style="stroke: #C82930; stroke-width: 1.0;" width="6" x="330" y="1109.5547"/><text fill="#000000" font-family="sans-serif" font-size="11" lengthAdjust="spacingAndGlyphs" textLength="155" x="342" y="1115.7651">c_step7(int64_t time) : bool</text><rect fill="#F24D5C" height="6" style="stroke: #C82930; stroke-width: 1.0;" width="6" x="330" y="1122.3594"/><text fill="#000000" font-family="sans-serif" font-size="11" lengthAdjust="spacingAndGlyphs" textLength="88" x="342" y="1128.5698">c_step8() : bool</text><rect fill="#F24D5C" height="6" style="stroke: #C82930; stroke-width: 1.0;" width="6" x="330" y="1135.1641"/><text fill="#000000" font-family="sans-serif" font-size="11" lengthAdjust="spacingAndGlyphs" textLength="88" x="342" y="1141.3745">c_step9() : bool</text><rect fill="#F24D5C" height="6" style="stroke: #C82930; stroke-width: 1.0;" width="6" x="330" y="1147.9688"/><text fill="#000000" font-family="sans-serif" font-size="11" lengthAdjust="spacingAndGlyphs" textLength="170" x="342" y="1154.1792">calibration(int64_t time) : bool</text><ellipse cx="333" cy="1163.7734" fill="#84BE84" rx="3" ry="3" style="stroke: #038048; stroke-width: 1.0;"/><text fill="#000000" font-family="sans-serif" font-size="11" lengthAdjust="spacingAndGlyphs" textLength="131" x="342" y="1166.9839">get_stall_result() : bool</text><ellipse cx="333" cy="1176.5781" fill="#84BE84" rx="3" ry="3" style="stroke: #038048; stroke-width: 1.0;"/><text fill="#000000" font-family="sans-serif" font-size="11" lengthAdjust="spacingAndGlyphs" textLength="116" x="342" y="1179.7886">is_calibrated() : bool</text><ellipse cx="333" cy="1189.3828" fill="#84BE84" rx="3" ry="3" style="stroke: #038048; stroke-width: 1.0;"/><text fill="#000000" font-family="sans-serif" font-size="11" lengthAdjust="spacingAndGlyphs" textLength="140" x="342" y="1192.5933">is_left_calibrated() : bool</text><ellipse cx="333" cy="1202.1875" fill="#84BE84" rx="3" ry="3" style="stroke: #038048; stroke-width: 1.0;"/><text fill="#000000" font-family="sans-serif" font-size="11" lengthAdjust="spacingAndGlyphs" textLength="148" x="342" y="1205.3979">is_right_calibrated() : bool</text><ellipse cx="333" cy="1214.9922" fill="#84BE84" rx="3" ry="3" style="stroke: #038048; stroke-width: 1.0;"/><text fill="#000000" font-family="sans-serif" font-size="11" lengthAdjust="spacingAndGlyphs" textLength="191" x="342" y="1218.2026">move(float relativePosition) : bool</text><ellipse cx="333" cy="1227.7969" fill="#84BE84" rx="3" ry="3" style="stroke: #038048; stroke-width: 1.0;"/><text fill="#000000" font-family="sans-serif" font-size="11" lengthAdjust="spacingAndGlyphs" textLength="166" x="342" y="1231.0073">move_to(float position) : bool</text><ellipse cx="333" cy="1240.6016" fill="#84BE84" rx="3" ry="3" style="stroke: #038048; stroke-width: 1.0;"/><text fill="#000000" font-family="sans-serif" font-size="11" lengthAdjust="spacingAndGlyphs" textLength="101" x="342" y="1243.812">amplitude() : float</text><ellipse cx="333" cy="1253.4063" fill="#84BE84" rx="3" ry="3" style="stroke: #038048; stroke-width: 1.0;"/><text fill="#000000" font-family="sans-serif" font-size="11" lengthAdjust="spacingAndGlyphs" textLength="137" x="342" y="1256.6167">current_position() : float</text><ellipse cx="333" cy="1266.2109" fill="#84BE84" rx="3" ry="3" style="stroke: #038048; stroke-width: 1.0;"/><text fill="#000000" font-family="sans-serif" font-size="11" lengthAdjust="spacingAndGlyphs" textLength="127" x="342" y="1269.4214">current_speed() : float</text><ellipse cx="333" cy="1279.0156" fill="#84BE84" rx="3" ry="3" style="stroke: #038048; stroke-width: 1.0;"/><text fill="#000000" font-family="sans-serif" font-size="11" lengthAdjust="spacingAndGlyphs" textLength="110" x="342" y="1282.2261">max_speed() : float</text><ellipse cx="333" cy="1291.8203" fill="#84BE84" rx="3" ry="3" style="stroke: #038048; stroke-width: 1.0;"/><text fill="#000000" font-family="sans-serif" font-size="11" lengthAdjust="spacingAndGlyphs" textLength="53" x="342" y="1295.0308">run() : int</text><ellipse cx="333" cy="1304.625" fill="#84BE84" rx="3" ry="3" style="stroke: #038048; stroke-width: 1.0;"/><text fill="#000000" font-family="sans-serif" font-size="11" lengthAdjust="spacingAndGlyphs" textLength="92" x="342" y="1307.8354">calibrate() : void</text><ellipse cx="333" cy="1317.4297" fill="#84BE84" rx="3" ry="3" style="stroke: #038048; stroke-width: 1.0;"/><text fill="#000000" font-family="sans-serif" font-size="11" lengthAdjust="spacingAndGlyphs" textLength="113" x="342" y="1320.6401">instant_stop() : void</text><ellipse cx="333" cy="1330.2344" fill="#84BE84" rx="3" ry="3" style="stroke: #038048; stroke-width: 1.0;"/><text fill="#000000" font-family="sans-serif" font-size="11" lengthAdjust="spacingAndGlyphs" textLength="132" x="342" y="1333.4448">invert(bool shaft) : void</text><ellipse cx="333" cy="1343.0391" fill="#84BE84" rx="3" ry="3" style="stroke: #038048; stroke-width: 1.0;"/><text fill="#000000" font-family="sans-serif" font-size="11" lengthAdjust="spacingAndGlyphs" text-decoration="underline" textLength="245" x="342" y="1346.2495">motor_run_task(void* pvParameters) : void</text><ellipse cx="333" cy="1355.8438" fill="#84BE84" rx="3" ry="3" style="stroke: #038048; stroke-width: 1.0;"/><text fill="#000000" font-family="sans-serif" font-size="11" lengthAdjust="spacingAndGlyphs" textLength="98" x="342" y="1359.0542">move_left() : void</text><ellipse cx="333" cy="1368.6484" fill="#84BE84" rx="3" ry="3" style="stroke: #038048; stroke-width: 1.0;"/><text fill="#000000" font-family="sans-serif" font-size="11" lengthAdjust="spacingAndGlyphs" textLength="106" x="342" y="1371.8589">move_right() : void</text><ellipse cx="333" cy="1381.4531" fill="#84BE84" rx="3" ry="3" style="stroke: #038048; stroke-width: 1.0;"/><text fill="#000000" font-family="sans-serif" font-size="11" lengthAdjust="spacingAndGlyphs" textLength="127" x="342" y="1384.6636">reset_left_limit() : void</text><ellipse cx="333" cy="1394.2578" fill="#84BE84" rx="3" ry="3" style="stroke: #038048; stroke-width: 1.0;"/><text fill="#000000" font-family="sans-serif" font-size="11" lengthAdjust="spacingAndGlyphs" textLength="135" x="342" y="1397.4683">reset_right_limit() : void</text><ellipse cx="333" cy="1407.0625" fill="#84BE84" rx="3" ry="3" style="stroke: #038048; stroke-width: 1.0;"/><text fill="#000000" font-family="sans-serif" font-size="11" lengthAdjust="spacingAndGlyphs" textLength="234" x="342" y="1410.2729">set_acceleration(float acceleration) : void</text><rect fill="#F24D5C" height="6" style="stroke: #C82930; stroke-width: 1.0;" width="6" x="330" y="1416.8672"/><text fill="#000000" font-family="sans-serif" font-size="11" lengthAdjust="spacingAndGlyphs" textLength="233" x="342" y="1423.0776">set_current_position(float position) : void</text><ellipse cx="333" cy="1432.6719" fill="#84BE84" rx="3" ry="3" style="stroke: #038048; stroke-width: 1.0;"/><text fill="#000000" font-family="sans-serif" font-size="11" lengthAdjust="spacingAndGlyphs" textLength="196" x="342" y="1435.8823">set_max_speed(float speed) : void</text><ellipse cx="333" cy="1445.4766" fill="#84BE84" rx="3" ry="3" style="stroke: #038048; stroke-width: 1.0;"/><text fill="#000000" font-family="sans-serif" font-size="11" lengthAdjust="spacingAndGlyphs" textLength="166" x="342" y="1448.687">set_speed(float speed) : void</text><ellipse cx="333" cy="1458.2813" fill="#84BE84" rx="3" ry="3" style="stroke: #038048; stroke-width: 1.0;"/><text fill="#000000" font-family="sans-serif" font-size="11" lengthAdjust="spacingAndGlyphs" textLength="75" x="342" y="1461.4917">setup() : void</text><ellipse cx="333" cy="1471.0859" fill="#84BE84" rx="3" ry="3" style="stroke: #038048; stroke-width: 1.0;"/><text fill="#000000" font-family="sans-serif" font-size="11" lengthAdjust="spacingAndGlyphs" text-decoration="underline" textLength="94" x="342" y="1474.2964">setup_all() : void</text><ellipse cx="333" cy="1483.8906" fill="#84BE84" rx="3" ry="3" style="stroke: #038048; stroke-width: 1.0;"/><text fill="#000000" font-family="sans-serif" font-size="11" lengthAdjust="spacingAndGlyphs" text-decoration="underline" textLength="249" x="342" y="1487.1011">stall_guard_task(void* pvParameters) : void</text><ellipse cx="333" cy="1496.6953" fill="#84BE84" rx="3" ry="3" style="stroke: #038048; stroke-width: 1.0;"/><text fill="#000000" font-family="sans-serif" font-size="11" lengthAdjust="spacingAndGlyphs" textLength="68" x="342" y="1499.9058">stop() : void</text><!--MD5=[31b2194eebf44df4ffa280c9796f03c1]
class PING--><rect fill="#FEFECE" filter="url(#f198ne6h8fnx7e)" height="176.0469" id="PING" style="stroke: #A80036; stroke-width: 1.5;" width="320" x="365.5" y="8"/><ellipse cx="506.75" cy="24" fill="#ADD1B2" rx="11" ry="11" style="stroke: #A80036; stroke-width: 1.0;"/><path d="M509.7188,29.6406 Q509.1406,29.9375 508.5,30.0781 Q507.8594,30.2344 507.1563,30.2344 Q504.6563,30.2344 503.3281,28.5938 Q502.0156,26.9375 502.0156,23.8125 Q502.0156,20.6875 503.3281,19.0313 Q504.6563,17.375 507.1563,17.375 Q507.8594,17.375 508.5,17.5313 Q509.1563,17.6875 509.7188,17.9844 L509.7188,20.7031 Q509.0938,20.125 508.5,19.8594 Q507.9063,19.5781 507.2813,19.5781 Q505.9375,19.5781 505.25,20.6563 Q504.5625,21.7188 504.5625,23.8125 Q504.5625,25.9063 505.25,26.9844 Q505.9375,28.0469 507.2813,28.0469 Q507.9063,28.0469 508.5,27.7813 Q509.0938,27.5 509.7188,26.9219 L509.7188,29.6406 Z "/><text fill="#000000" font-family="sans-serif" font-size="12" lengthAdjust="spacingAndGlyphs" textLength="29" x="527.25" y="28.1543">PING</text><line style="stroke: #A80036; stroke-width: 1.5;" x1="366.5" x2="684.5" y1="40" y2="40"/><rect fill="none" height="6" style="stroke: #C82930; stroke-width: 1.0;" width="6" x="373.5" y="48"/><text fill="#000000" font-family="sans-serif" font-size="11" lengthAdjust="spacingAndGlyphs" text-decoration="underline" textLength="124" x="385.5" y="54.2104">player1 : static Player</text><rect fill="none" height="6" style="stroke: #C82930; stroke-width: 1.0;" width="6" x="373.5" y="60.8047"/><text fill="#000000" font-family="sans-serif" font-size="11" lengthAdjust="spacingAndGlyphs" text-decoration="underline" textLength="124" x="385.5" y="67.0151">player2 : static Player</text><rect fill="none" height="6" style="stroke: #C82930; stroke-width: 1.0;" width="6" x="373.5" y="73.6094"/><text fill="#000000" font-family="sans-serif" font-size="11" lengthAdjust="spacingAndGlyphs" text-decoration="underline" textLength="124" x="385.5" y="79.8198">player3 : static Player</text><rect fill="none" height="6" style="stroke: #C82930; stroke-width: 1.0;" width="6" x="373.5" y="86.4141"/><text fill="#000000" font-family="sans-serif" font-size="11" lengthAdjust="spacingAndGlyphs" text-decoration="underline" textLength="124" x="385.5" y="92.6245">player4 : static Player</text><rect fill="none" height="6" style="stroke: #C82930; stroke-width: 1.0;" width="6" x="373.5" y="99.2188"/><text fill="#000000" font-family="sans-serif" font-size="11" lengthAdjust="spacingAndGlyphs" text-decoration="underline" textLength="275" x="385.5" y="105.4292">raspComManager : static RaspComManagement</text><rect fill="none" height="6" style="stroke: #C82930; stroke-width: 1.0;" width="6" x="373.5" y="112.0234"/><text fill="#000000" font-family="sans-serif" font-size="11" lengthAdjust="spacingAndGlyphs" text-decoration="underline" textLength="293" x="385.5" y="118.2339">solenoidOvertempTaskHandle : static TaskHandle_t</text><line style="stroke: #A80036; stroke-width: 1.5;" x1="366.5" x2="684.5" y1="124.8281" y2="124.8281"/><rect fill="#F24D5C" height="6" style="stroke: #C82930; stroke-width: 1.0;" width="6" x="373.5" y="132.8281"/><text fill="#000000" font-family="sans-serif" font-size="11" lengthAdjust="spacingAndGlyphs" textLength="35" x="385.5" y="139.0386">PING()</text><ellipse cx="376.5" cy="148.6328" fill="#84BE84" rx="3" ry="3" style="stroke: #038048; stroke-width: 1.0;"/><text fill="#000000" font-family="sans-serif" font-size="11" lengthAdjust="spacingAndGlyphs" textLength="44" x="385.5" y="151.8433">~PING()</text><ellipse cx="376.5" cy="161.4375" fill="#84BE84" rx="3" ry="3" style="stroke: #038048; stroke-width: 1.0;"/><text fill="#000000" font-family="sans-serif" font-size="11" lengthAdjust="spacingAndGlyphs" text-decoration="underline" textLength="75" x="385.5" y="164.6479">setup() : void</text><rect fill="#F24D5C" height="6" style="stroke: #C82930; stroke-width: 1.0;" width="6" x="373.5" y="171.2422"/><text fill="#000000" font-family="sans-serif" font-size="11" lengthAdjust="spacingAndGlyphs" text-decoration="underline" textLength="294" x="385.5" y="177.4526">solenoid_overtemp_task(void* pvParameters) : void</text><!--MD5=[2cb47ba637a0d19583e6199456f6ad0b]
class Player--><rect fill="#FEFECE" filter="url(#f198ne6h8fnx7e)" height="150.4375" id="Player" style="stroke: #A80036; stroke-width: 1.5;" width="594" x="228.5" y="429"/><ellipse cx="502.25" cy="445" fill="#ADD1B2" rx="11" ry="11" style="stroke: #A80036; stroke-width: 1.0;"/><path d="M505.2188,450.6406 Q504.6406,450.9375 504,451.0781 Q503.3594,451.2344 502.6563,451.2344 Q500.1563,451.2344 498.8281,449.5938 Q497.5156,447.9375 497.5156,444.8125 Q497.5156,441.6875 498.8281,440.0313 Q500.1563,438.375 502.6563,438.375 Q503.3594,438.375 504,438.5313 Q504.6563,438.6875 505.2188,438.9844 L505.2188,441.7031 Q504.5938,441.125 504,440.8594 Q503.4063,440.5781 502.7813,440.5781 Q501.4375,440.5781 500.75,441.6563 Q500.0625,442.7188 500.0625,444.8125 Q500.0625,446.9063 500.75,447.9844 Q501.4375,449.0469 502.7813,449.0469 Q503.4063,449.0469 504,448.7813 Q504.5938,448.5 505.2188,447.9219 L505.2188,450.6406 Z "/><text fill="#000000" font-family="sans-serif" font-size="12" lengthAdjust="spacingAndGlyphs" textLength="38" x="522.75" y="449.1543">Player</text><line style="stroke: #A80036; stroke-width: 1.5;" x1="229.5" x2="821.5" y1="461" y2="461"/><ellipse cx="239.5" cy="472" fill="none" rx="3" ry="3" style="stroke: #038048; stroke-width: 1.0;"/><text fill="#000000" font-family="sans-serif" font-size="11" lengthAdjust="spacingAndGlyphs" textLength="151" x="248.5" y="475.2104">beamSwitch : BeamSwitch</text><ellipse cx="239.5" cy="484.8047" fill="none" rx="3" ry="3" style="stroke: #038048; stroke-width: 1.0;"/><text fill="#000000" font-family="sans-serif" font-size="11" lengthAdjust="spacingAndGlyphs" textLength="141" x="248.5" y="488.0151">actuator : LinearActuator</text><ellipse cx="239.5" cy="497.6094" fill="none" rx="3" ry="3" style="stroke: #038048; stroke-width: 1.0;"/><text fill="#000000" font-family="sans-serif" font-size="11" lengthAdjust="spacingAndGlyphs" textLength="109" x="248.5" y="500.8198">solenoid : Solenoid</text><ellipse cx="239.5" cy="510.4141" fill="none" rx="3" ry="3" style="stroke: #038048; stroke-width: 1.0;"/><text fill="#000000" font-family="sans-serif" font-size="11" lengthAdjust="spacingAndGlyphs" text-decoration="underline" textLength="155" x="248.5" y="513.6245">all : static Vector&lt;Player*&gt;</text><line style="stroke: #A80036; stroke-width: 1.5;" x1="229.5" x2="821.5" y1="520.2188" y2="520.2188"/><ellipse cx="239.5" cy="531.2188" fill="#84BE84" rx="3" ry="3" style="stroke: #038048; stroke-width: 1.0;"/><text fill="#000000" font-family="sans-serif" font-size="11" lengthAdjust="spacingAndGlyphs" textLength="568" x="248.5" y="534.4292">Player(int stepPin, int dirPin, uint8_t address, bool motorShaft, int solenoidPin, int beamSwitchRPin)</text><ellipse cx="239.5" cy="544.0234" fill="#84BE84" rx="3" ry="3" style="stroke: #038048; stroke-width: 1.0;"/><text fill="#000000" font-family="sans-serif" font-size="11" lengthAdjust="spacingAndGlyphs" textLength="52" x="248.5" y="547.2339">~Player()</text><ellipse cx="239.5" cy="556.8281" fill="#84BE84" rx="3" ry="3" style="stroke: #038048; stroke-width: 1.0;"/><text fill="#000000" font-family="sans-serif" font-size="11" lengthAdjust="spacingAndGlyphs" textLength="58" x="248.5" y="560.0386">loop() : int</text><ellipse cx="239.5" cy="569.6328" fill="#84BE84" rx="3" ry="3" style="stroke: #038048; stroke-width: 1.0;"/><text fill="#000000" font-family="sans-serif" font-size="11" lengthAdjust="spacingAndGlyphs" textLength="66" x="248.5" y="572.8433">setup() : int</text><!--MD5=[760b531b568e8db29d8104fa603dea6e]
class RaspComManagement--><rect fill="#FEFECE" filter="url(#f198ne6h8fnx7e)" height="124.8281" id="RaspComManagement" style="stroke: #A80036; stroke-width: 1.5;" width="248" x="490.5" y="244"/><ellipse cx="540.25" cy="260" fill="#ADD1B2" rx="11" ry="11" style="stroke: #A80036; stroke-width: 1.0;"/><path d="M543.2188,265.6406 Q542.6406,265.9375 542,266.0781 Q541.3594,266.2344 540.6563,266.2344 Q538.1563,266.2344 536.8281,264.5938 Q535.5156,262.9375 535.5156,259.8125 Q535.5156,256.6875 536.8281,255.0313 Q538.1563,253.375 540.6563,253.375 Q541.3594,253.375 542,253.5313 Q542.6563,253.6875 543.2188,253.9844 L543.2188,256.7031 Q542.5938,256.125 542,255.8594 Q541.4063,255.5781 540.7813,255.5781 Q539.4375,255.5781 538.75,256.6563 Q538.0625,257.7188 538.0625,259.8125 Q538.0625,261.9063 538.75,262.9844 Q539.4375,264.0469 540.7813,264.0469 Q541.4063,264.0469 542,263.7813 Q542.5938,263.5 543.2188,262.9219 L543.2188,265.6406 Z "/><text fill="#000000" font-family="sans-serif" font-size="12" lengthAdjust="spacingAndGlyphs" textLength="140" x="560.75" y="264.1543">RaspComManagement</text><line style="stroke: #A80036; stroke-width: 1.5;" x1="491.5" x2="737.5" y1="276" y2="276"/><rect fill="none" height="6" style="stroke: #C82930; stroke-width: 1.0;" width="6" x="498.5" y="284"/><text fill="#000000" font-family="sans-serif" font-size="11" lengthAdjust="spacingAndGlyphs" textLength="155" x="510.5" y="290.2104">players : Vector&lt;Player*&gt;*</text><rect fill="none" height="6" style="stroke: #C82930; stroke-width: 1.0;" width="6" x="498.5" y="296.8047"/><text fill="#000000" font-family="sans-serif" font-size="11" lengthAdjust="spacingAndGlyphs" textLength="79" x="510.5" y="303.0151">baudRate : int</text><line style="stroke: #A80036; stroke-width: 1.5;" x1="491.5" x2="737.5" y1="309.6094" y2="309.6094"/><ellipse cx="501.5" cy="320.6094" fill="#84BE84" rx="3" ry="3" style="stroke: #038048; stroke-width: 1.0;"/><text fill="#000000" font-family="sans-serif" font-size="11" lengthAdjust="spacingAndGlyphs" textLength="206" x="510.5" y="323.8198">RaspComManagement(int baudRate)</text><ellipse cx="501.5" cy="333.4141" fill="#84BE84" rx="3" ry="3" style="stroke: #038048; stroke-width: 1.0;"/><text fill="#000000" font-family="sans-serif" font-size="11" lengthAdjust="spacingAndGlyphs" textLength="144" x="510.5" y="336.6245">~RaspComManagement()</text><ellipse cx="501.5" cy="346.2188" fill="#84BE84" rx="3" ry="3" style="stroke: #038048; stroke-width: 1.0;"/><text fill="#000000" font-family="sans-serif" font-size="11" lengthAdjust="spacingAndGlyphs" textLength="95" x="510.5" y="349.4292">readData() : void</text><ellipse cx="501.5" cy="359.0234" fill="#84BE84" rx="3" ry="3" style="stroke: #038048; stroke-width: 1.0;"/><text fill="#000000" font-family="sans-serif" font-size="11" lengthAdjust="spacingAndGlyphs" textLength="222" x="510.5" y="362.2339">setup(Vector&lt;Player*&gt;* players) : void</text><!--MD5=[774f4e82a168727ea092e2c64952d764]
class Solenoid--><rect fill="#FEFECE" filter="url(#f198ne6h8fnx7e)" height="240.0703" id="Solenoid" style="stroke: #A80036; stroke-width: 1.5;" width="294" x="782.5" y="952.5"/><ellipse cx="898.25" cy="968.5" fill="#ADD1B2" rx="11" ry="11" style="stroke: #A80036; stroke-width: 1.0;"/><path d="M901.2188,974.1406 Q900.6406,974.4375 900,974.5781 Q899.3594,974.7344 898.6563,974.7344 Q896.1563,974.7344 894.8281,973.0938 Q893.5156,971.4375 893.5156,968.3125 Q893.5156,965.1875 894.8281,963.5313 Q896.1563,961.875 898.6563,961.875 Q899.3594,961.875 900,962.0313 Q900.6563,962.1875 901.2188,962.4844 L901.2188,965.2031 Q900.5938,964.625 900,964.3594 Q899.4063,964.0781 898.7813,964.0781 Q897.4375,964.0781 896.75,965.1563 Q896.0625,966.2188 896.0625,968.3125 Q896.0625,970.4063 896.75,971.4844 Q897.4375,972.5469 898.7813,972.5469 Q899.4063,972.5469 900,972.2813 Q900.5938,972 901.2188,971.4219 L901.2188,974.1406 Z "/><text fill="#000000" font-family="sans-serif" font-size="12" lengthAdjust="spacingAndGlyphs" textLength="54" x="918.75" y="972.6543">Solenoid</text><line style="stroke: #A80036; stroke-width: 1.5;" x1="783.5" x2="1075.5" y1="984.5" y2="984.5"/><rect fill="none" height="6" style="stroke: #C82930; stroke-width: 1.0;" width="6" x="790.5" y="992.5"/><text fill="#000000" font-family="sans-serif" font-size="11" lengthAdjust="spacingAndGlyphs" textLength="110" x="802.5" y="998.7104">currentTemp : float</text><rect fill="none" height="6" style="stroke: #C82930; stroke-width: 1.0;" width="6" x="790.5" y="1005.3047"/><text fill="#000000" font-family="sans-serif" font-size="11" lengthAdjust="spacingAndGlyphs" textLength="66" x="802.5" y="1011.5151">state : float</text><rect fill="none" height="6" style="stroke: #C82930; stroke-width: 1.0;" width="6" x="790.5" y="1018.1094"/><text fill="#000000" font-family="sans-serif" font-size="11" lengthAdjust="spacingAndGlyphs" textLength="66" x="802.5" y="1024.3198">state : float</text><rect fill="none" height="6" style="stroke: #C82930; stroke-width: 1.0;" width="6" x="790.5" y="1030.9141"/><text fill="#000000" font-family="sans-serif" font-size="11" lengthAdjust="spacingAndGlyphs" textLength="66" x="802.5" y="1037.1245">state : float</text><rect fill="none" height="6" style="stroke: #C82930; stroke-width: 1.0;" width="6" x="790.5" y="1043.7188"/><text fill="#000000" font-family="sans-serif" font-size="11" lengthAdjust="spacingAndGlyphs" textLength="91" x="802.5" y="1049.9292">solenoidPin : int</text><rect fill="none" height="6" style="stroke: #C82930; stroke-width: 1.0;" width="6" x="790.5" y="1056.5234"/><text fill="#000000" font-family="sans-serif" font-size="11" lengthAdjust="spacingAndGlyphs" text-decoration="underline" textLength="128" x="802.5" y="1062.7339">maxTemp : static float</text><rect fill="none" height="6" style="stroke: #C82930; stroke-width: 1.0;" width="6" x="790.5" y="1069.3281"/><text fill="#000000" font-family="sans-serif" font-size="11" lengthAdjust="spacingAndGlyphs" textLength="144" x="802.5" y="1075.5386">lastTempCheck : uint64_t</text><line style="stroke: #A80036; stroke-width: 1.5;" x1="783.5" x2="1075.5" y1="1082.1328" y2="1082.1328"/><ellipse cx="793.5" cy="1093.1328" fill="#84BE84" rx="3" ry="3" style="stroke: #038048; stroke-width: 1.0;"/><text fill="#000000" font-family="sans-serif" font-size="11" lengthAdjust="spacingAndGlyphs" textLength="222" x="802.5" y="1096.3433">Solenoid(int solenoidPin ), ~Solenoid ()</text><ellipse cx="793.5" cy="1105.9375" fill="#84BE84" rx="3" ry="3" style="stroke: #038048; stroke-width: 1.0;"/><text fill="#000000" font-family="sans-serif" font-size="11" lengthAdjust="spacingAndGlyphs" textLength="268" x="802.5" y="1109.1479">over_temp_protect(uint64_t currentTime) : bool</text><ellipse cx="793.5" cy="1118.7422" fill="#84BE84" rx="3" ry="3" style="stroke: #038048; stroke-width: 1.0;"/><text fill="#000000" font-family="sans-serif" font-size="11" lengthAdjust="spacingAndGlyphs" textLength="104" x="802.5" y="1121.9526">get_power() : float</text><ellipse cx="793.5" cy="1131.5469" fill="#84BE84" rx="3" ry="3" style="stroke: #038048; stroke-width: 1.0;"/><text fill="#000000" font-family="sans-serif" font-size="11" lengthAdjust="spacingAndGlyphs" textLength="98" x="802.5" y="1134.7573">get_state() : float</text><ellipse cx="793.5" cy="1144.3516" fill="#84BE84" rx="3" ry="3" style="stroke: #038048; stroke-width: 1.0;"/><text fill="#000000" font-family="sans-serif" font-size="11" lengthAdjust="spacingAndGlyphs" textLength="87" x="802.5" y="1147.562">activate() : void</text><ellipse cx="793.5" cy="1157.1563" fill="#84BE84" rx="3" ry="3" style="stroke: #038048; stroke-width: 1.0;"/><text fill="#000000" font-family="sans-serif" font-size="11" lengthAdjust="spacingAndGlyphs" textLength="101" x="802.5" y="1160.3667">deactivate() : void</text><ellipse cx="793.5" cy="1169.9609" fill="#84BE84" rx="3" ry="3" style="stroke: #038048; stroke-width: 1.0;"/><text fill="#000000" font-family="sans-serif" font-size="11" lengthAdjust="spacingAndGlyphs" textLength="155" x="802.5" y="1173.1714">set_power(int power) : void</text><ellipse cx="793.5" cy="1182.7656" fill="#84BE84" rx="3" ry="3" style="stroke: #038048; stroke-width: 1.0;"/><text fill="#000000" font-family="sans-serif" font-size="11" lengthAdjust="spacingAndGlyphs" textLength="75" x="802.5" y="1185.9761">setup() : void</text><!--MD5=[318cb0c4fbc137e6ed4fa6d91664b070]
reverse link BeamSwitch to BeamSwitch--><path d="M279.14,983.73 C294.28,1000.88 304,1030.47 304,1072.5 C304,1123.25 289.82,1155.87 269.06,1170.34 " fill="none" id="BeamSwitch&lt;-BeamSwitch" style="stroke: #A80036; stroke-width: 1.0;"/><polygon fill="#FFFFFF" points="269.06,974.66,270.8456,981.6465,277.9815,982.6854,276.1959,975.6989,269.06,974.66" style="stroke: #A80036; stroke-width: 1.0;"/><!--MD5=[f01d345cbb021b883e3e68de17339e3b]
reverse link LinearActuator to LinearActuator--><path d="M738.89,993.72 C754.46,1011.46 764,1037.72 764,1072.5 C764,1114.1 750.35,1143.52 729.06,1160.74 " fill="none" id="LinearActuator&lt;-LinearActuator" style="stroke: #A80036; stroke-width: 1.0;"/><polygon fill="#FFFFFF" points="729.06,984.26,730.6113,991.3023,737.7085,992.5789,736.1572,985.5366,729.06,984.26" style="stroke: #A80036; stroke-width: 1.0;"/><!--MD5=[3d3440c247ea6d9549ddae07c5b26dc8]
reverse link PING to Player--><path d="M485.16,196.7 C480.33,212.3 476.17,228.42 473.5,244 C464.1,298.75 463.28,314.39 473.5,369 C477.24,388.99 483.87,409.83 491.17,428.96 " fill="none" id="PING&lt;-Player" style="stroke: #A80036; stroke-width: 1.0;"/><polygon fill="#A80036" points="489.16,184.32,483.5128,188.8043,485.4802,195.7419,491.1274,191.2575,489.16,184.32" style="stroke: #A80036; stroke-width: 1.0;"/><text fill="#000000" font-family="sans-serif" font-size="13" lengthAdjust="spacingAndGlyphs" textLength="8" x="477.9454" y="204.026">4</text><!--MD5=[e09b457801a70dba8834c32de8f4d06f]
reverse link PING to RaspComManagement--><path d="M567.99,196.54 C574.9,212.72 581.87,229.06 588.24,243.98 " fill="none" id="PING&lt;-RaspComManagement" style="stroke: #A80036; stroke-width: 1.0;"/><polygon fill="#A80036" points="562.73,184.21,561.4118,191.2996,567.4491,195.2431,568.7673,188.1535,562.73,184.21" style="stroke: #A80036; stroke-width: 1.0;"/><!--MD5=[8974d906f5436deded3f8d9665c498e8]
reverse link Player to BeamSwitch--><path d="M361.89,586.75 C340.76,602.07 320.83,619.5 304.5,639 C230.35,727.56 186.85,852.73 162.95,945.64 " fill="none" id="Player&lt;-BeamSwitch" style="stroke: #A80036; stroke-width: 1.0;"/><polygon fill="#A80036" points="372.7,579.16,365.4911,579.3381,362.8829,586.061,370.0918,585.8829,372.7,579.16" style="stroke: #A80036; stroke-width: 1.0;"/><!--MD5=[c8a40b61ed2cae938dabd67da6109521]
reverse link Player to LinearActuator--><path d="M525.5,592.34 C525.5,606.62 525.5,622.19 525.5,638.73 " fill="none" id="Player&lt;-LinearActuator" style="stroke: #A80036; stroke-width: 1.0;"/><polygon fill="#A80036" points="525.5,579.06,521.5,585.06,525.5,591.06,529.5,585.06,525.5,579.06" style="stroke: #A80036; stroke-width: 1.0;"/><!--MD5=[05b81ed7feba984e3b356b6eb6f8126f]
reverse link Player to Player--><path d="M835.23,481.14 C849.29,486.94 857.5,494.56 857.5,504 C857.5,515.96 844.31,525.01 822.75,531.13 " fill="none" id="Player&lt;-Player" style="stroke: #A80036; stroke-width: 1.0;"/><polygon fill="#FFFFFF" points="822.75,476.87,827.1296,482.5988,834.1022,480.7595,829.7226,475.0307,822.75,476.87" style="stroke: #A80036; stroke-width: 1.0;"/><!--MD5=[0df571f1bdc863a16490465303cac24b]
reverse link Player to Solenoid--><path d="M704.53,586.47 C726.62,601.71 747.4,619.2 764.5,639 C841.83,728.58 884.79,858.2 907.33,952.16 " fill="none" id="Player&lt;-Solenoid" style="stroke: #A80036; stroke-width: 1.0;"/><polygon fill="#A80036" points="693.59,579.17,696.3615,585.8272,703.5726,585.8294,700.8011,579.1722,693.59,579.17" style="stroke: #A80036; stroke-width: 1.0;"/><!--MD5=[4433b263405c5a756016b9a56be77536]
reverse link RaspComManagement to Player--><path d="M580.9,381.31 C573.84,396.81 566.39,413.17 559.33,428.69 " fill="none" id="RaspComManagement&lt;-Player" style="stroke: #A80036; stroke-width: 1.0;"/><polygon fill="#FFFFFF" points="586.46,369.09,580.335,372.8959,581.4924,380.0135,587.6174,376.2076,586.46,369.09" style="stroke: #A80036; stroke-width: 1.0;"/><!--MD5=[e94d3497a45b8fa8e83630e87b62a241]
@startuml






class BeamSwitch {
	+BeamSwitch(int beamSwitchRPin)
	+~BeamSwitch()
	-check(uint64_t currentTime) : bool
	+get_state() : bool
	-state : bool
	-beamSwitchRPin : const int
	-lastReceiveTime : int
	-{static} checkAllTaskHandle : static TaskHandle_t
	-{static} all : static Vector<BeamSwitch*>
	-{static} emit : static bool
	-{static} check_all(uint64_t currentTime) : void
	-{static} check_all_task(void* pvParameters) : void
	+setup() : void
	+{static} setup_emitter() : void
	+{static} start_emit() : void
	+{static} stop_emit() : void
}


class LinearActuator {
	+LinearActuator(int stepPin, int dirPin, uint8_t addresss, bool shaftt)
	+~LinearActuator()
	-motor : AccelStepper
	-driver : TMC2209Stepper
	-askForStallGuard : bool
	-c_step1() : bool
	-c_step10(int64_t time) : bool
	-c_step11(int64_t time) : bool
	-c_step12() : bool
	-c_step13() : bool
	-c_step14(int64_t time) : bool
	-c_step15(int64_t time) : bool
	-c_step16() : bool
	-c_step2(int64_t time) : bool
	-c_step3(int64_t time) : bool
	-c_step4() : bool
	-c_step5() : bool
	-c_step6(int64_t time) : bool
	-c_step7(int64_t time) : bool
	-c_step8() : bool
	-c_step9() : bool
	-calibrating : bool
	-calibration(int64_t time) : bool
	+get_stall_result() : bool
	+is_calibrated() : bool
	+is_left_calibrated() : bool
	+is_right_calibrated() : bool
	+move(float relativePosition) : bool
	+move_to(float position) : bool
	-newStallGuardAvailable : bool
	-running : bool
	-shaft : bool
	-stallResult : bool
	+amplitude() : float
	-calibrationFirstWallPosition : float
	-calibrationFirstWallPosition : float
	-calibrationFirstWallPosition : float
	+current_position() : float
	+current_speed() : float
	-leftLimit : float
	+max_speed() : float
	-rightLimit : float
	-calibrationGoodSamples : int
	-currentCalibrationSteps : int
	+run() : int
	-chrono : int64_t
	-{static} all : static Vector<LinearActuator*>
	-updateSgTh : uint8_t
	+calibrate() : void
	+instant_stop() : void
	+invert(bool shaft) : void
	+{static} motor_run_task(void* pvParameters) : void
	+move_left() : void
	+move_right() : void
	+reset_left_limit() : void
	+reset_right_limit() : void
	+set_acceleration(float acceleration) : void
	-set_current_position(float position) : void
	+set_max_speed(float speed) : void
	+set_speed(float speed) : void
	+setup() : void
	+{static} setup_all() : void
	+{static} stall_guard_task(void* pvParameters) : void
	+stop() : void
}


class PING {
	-PING()
	+~PING()
	-{static} player1 : static Player
	-{static} player2 : static Player
	-{static} player3 : static Player
	-{static} player4 : static Player
	-{static} raspComManager : static RaspComManagement
	-{static} solenoidOvertempTaskHandle : static TaskHandle_t
	+{static} setup() : void
	-{static} solenoid_overtemp_task(void* pvParameters) : void
}


class Player {
	+Player(int stepPin, int dirPin, uint8_t address, bool motorShaft, int solenoidPin, int beamSwitchRPin)
	+~Player()
	+beamSwitch : BeamSwitch
	+actuator : LinearActuator
	+solenoid : Solenoid
	+loop() : int
	+setup() : int
	+{static} all : static Vector<Player*>
}


class RaspComManagement {
	+RaspComManagement(int baudRate)
	+~RaspComManagement()
	-players : Vector<Player*>*
	-baudRate : int
	+readData() : void
	+setup(Vector<Player*>* players) : void
}


class Solenoid {
	+Solenoid(int solenoidPin ), ~Solenoid ()
	+over_temp_protect(uint64_t currentTime) : bool
	-currentTemp : float
	+get_power() : float
	+get_state() : float
	-state : float
	-state : float
	-state : float
	-solenoidPin : int
	-{static} maxTemp : static float
	-lastTempCheck : uint64_t
	+activate() : void
	+deactivate() : void
	+set_power(int power) : void
	+setup() : void
}










BeamSwitch o- - BeamSwitch


LinearActuator o- - LinearActuator


PING "4" *- - Player


PING *- - RaspComManagement


Player *- - BeamSwitch


Player *- - LinearActuator


Player o- - Player


Player *- - Solenoid


RaspComManagement o- - Player









@enduml

PlantUML version 1.2020.02(Sun Mar 01 10:22:07 UTC 2020)
(GPL source distribution)
Java Runtime: OpenJDK Runtime Environment
JVM: OpenJDK 64-Bit Server VM
Java Version: 17.0.13+11
Operating System: Linux
Default Encoding: UTF-8
Language: en
Country: null
--></g></svg>