<?xml version="1.0" encoding="UTF-8" standalone="no"?><svg xmlns="http://www.w3.org/2000/svg" xmlns:xlink="http://www.w3.org/1999/xlink" contentScriptType="application/ecmascript" contentStyleType="text/css" height="1458px" preserveAspectRatio="none" style="width:1100px;height:1458px;" version="1.1" viewBox="0 0 1100 1458" width="1100px" zoomAndPan="magnify"><defs><filter height="300%" id="fagyyrmma7qe3" width="300%" x="-1" y="-1"><feGaussianBlur result="blurOut" stdDeviation="2.0"/><feColorMatrix in="blurOut" result="blurOut2" type="matrix" values="0 0 0 0 0 0 0 0 0 0 0 0 0 0 0 0 0 0 .4 0"/><feOffset dx="4.0" dy="4.0" in="blurOut2" result="blurOut3"/><feBlend in="SourceGraphic" in2="blurOut3" mode="normal"/></filter></defs><g><!--MD5=[845caa0904f1411049f3b69efd709ed4]
cluster RunStatus--><polygon fill="#FFFFFF" filter="url(#fagyyrmma7qe3)" points="472.5,1309,558.5,1309,565.5,1331.2969,578.5,1331.2969,578.5,1446,472.5,1446,472.5,1309" style="stroke: #000000; stroke-width: 1.5;"/><line style="stroke: #000000; stroke-width: 1.5;" x1="472.5" x2="565.5" y1="1331.2969" y2="1331.2969"/><text fill="#000000" font-family="sans-serif" font-size="14" font-weight="bold" lengthAdjust="spacingAndGlyphs" textLength="80" x="476.5" y="1323.9951">RunStatus</text><!--MD5=[8af91c3b66a8a7491d8ba0f9fda35749]
class RunStatus.Status--><rect fill="#FEFECE" filter="url(#fagyyrmma7qe3)" height="86.4141" id="RunStatus.Status" style="stroke: #A80036; stroke-width: 1.5;" width="73" x="489" y="1344"/><ellipse cx="504" cy="1360" fill="#EB937F" rx="11" ry="11" style="stroke: #A80036; stroke-width: 1.0;"/><path d="M508.1094,1366 L500.3906,1366 L500.3906,1353.6094 L508.1094,1353.6094 L508.1094,1355.7656 L502.8438,1355.7656 L502.8438,1358.4375 L507.6094,1358.4375 L507.6094,1360.5938 L502.8438,1360.5938 L502.8438,1363.8438 L508.1094,1363.8438 L508.1094,1366 Z "/><text fill="#000000" font-family="sans-serif" font-size="12" lengthAdjust="spacingAndGlyphs" textLength="41" x="518" y="1364.1543">Status</text><line style="stroke: #A80036; stroke-width: 1.5;" x1="490" x2="561" y1="1376" y2="1376"/><text fill="#000000" font-family="sans-serif" font-size="11" lengthAdjust="spacingAndGlyphs" textLength="60" x="495" y="1390.2104">COLLISION</text><text fill="#000000" font-family="sans-serif" font-size="11" lengthAdjust="spacingAndGlyphs" textLength="24" x="495" y="1403.0151">IDLE</text><text fill="#000000" font-family="sans-serif" font-size="11" lengthAdjust="spacingAndGlyphs" textLength="51" x="495" y="1415.8198">RUNNING</text><line style="stroke: #A80036; stroke-width: 1.5;" x1="490" x2="561" y1="1422.4141" y2="1422.4141"/><!--MD5=[68fcd56d8725033e494281892f0f8fc2]
class BeamSwitch--><rect fill="#FEFECE" filter="url(#fagyyrmma7qe3)" height="252.875" id="BeamSwitch" style="stroke: #A80036; stroke-width: 1.5;" width="263" x="6" y="736.5"/><ellipse cx="95.75" cy="752.5" fill="#ADD1B2" rx="11" ry="11" style="stroke: #A80036; stroke-width: 1.0;"/><path d="M98.7188,758.1406 Q98.1406,758.4375 97.5,758.5781 Q96.8594,758.7344 96.1563,758.7344 Q93.6563,758.7344 92.3281,757.0938 Q91.0156,755.4375 91.0156,752.3125 Q91.0156,749.1875 92.3281,747.5313 Q93.6563,745.875 96.1563,745.875 Q96.8594,745.875 97.5,746.0313 Q98.1563,746.1875 98.7188,746.4844 L98.7188,749.2031 Q98.0938,748.625 97.5,748.3594 Q96.9063,748.0781 96.2813,748.0781 Q94.9375,748.0781 94.25,749.1563 Q93.5625,750.2188 93.5625,752.3125 Q93.5625,754.4063 94.25,755.4844 Q94.9375,756.5469 96.2813,756.5469 Q96.9063,756.5469 97.5,756.2813 Q98.0938,756 98.7188,755.4219 L98.7188,758.1406 Z "/><text fill="#000000" font-family="sans-serif" font-size="12" lengthAdjust="spacingAndGlyphs" textLength="75" x="116.25" y="756.6543">BeamSwitch</text><line style="stroke: #A80036; stroke-width: 1.5;" x1="7" x2="268" y1="768.5" y2="768.5"/><rect fill="none" height="6" style="stroke: #C82930; stroke-width: 1.0;" width="6" x="14" y="776.5"/><text fill="#000000" font-family="sans-serif" font-size="11" lengthAdjust="spacingAndGlyphs" textLength="65" x="26" y="782.7104">state : bool</text><rect fill="none" height="6" style="stroke: #C82930; stroke-width: 1.0;" width="6" x="14" y="789.3047"/><text fill="#000000" font-family="sans-serif" font-size="11" lengthAdjust="spacingAndGlyphs" textLength="154" x="26" y="795.5151">beamSwitchRPin : const int</text><rect fill="none" height="6" style="stroke: #C82930; stroke-width: 1.0;" width="6" x="14" y="802.1094"/><text fill="#000000" font-family="sans-serif" font-size="11" lengthAdjust="spacingAndGlyphs" textLength="118" x="26" y="808.3198">lastReceiveTime : int</text><rect fill="none" height="6" style="stroke: #C82930; stroke-width: 1.0;" width="6" x="14" y="814.9141"/><text fill="#000000" font-family="sans-serif" font-size="11" lengthAdjust="spacingAndGlyphs" text-decoration="underline" textLength="234" x="26" y="821.1245">checkAllTaskHandle : static TaskHandle_t</text><rect fill="none" height="6" style="stroke: #C82930; stroke-width: 1.0;" width="6" x="14" y="827.7188"/><text fill="#000000" font-family="sans-serif" font-size="11" lengthAdjust="spacingAndGlyphs" text-decoration="underline" textLength="190" x="26" y="833.9292">all : static Vector&lt;BeamSwitch*&gt;</text><rect fill="none" height="6" style="stroke: #C82930; stroke-width: 1.0;" width="6" x="14" y="840.5234"/><text fill="#000000" font-family="sans-serif" font-size="11" lengthAdjust="spacingAndGlyphs" text-decoration="underline" textLength="96" x="26" y="846.7339">emit : static bool</text><line style="stroke: #A80036; stroke-width: 1.5;" x1="7" x2="268" y1="853.3281" y2="853.3281"/><ellipse cx="17" cy="864.3281" fill="#84BE84" rx="3" ry="3" style="stroke: #038048; stroke-width: 1.0;"/><text fill="#000000" font-family="sans-serif" font-size="11" lengthAdjust="spacingAndGlyphs" textLength="189" x="26" y="867.5386">BeamSwitch(int beamSwitchRPin)</text><ellipse cx="17" cy="877.1328" fill="#84BE84" rx="3" ry="3" style="stroke: #038048; stroke-width: 1.0;"/><text fill="#000000" font-family="sans-serif" font-size="11" lengthAdjust="spacingAndGlyphs" textLength="87" x="26" y="880.3433">~BeamSwitch()</text><rect fill="#F24D5C" height="6" style="stroke: #C82930; stroke-width: 1.0;" width="6" x="14" y="886.9375"/><text fill="#000000" font-family="sans-serif" font-size="11" lengthAdjust="spacingAndGlyphs" textLength="194" x="26" y="893.1479">check(uint64_t currentTime) : bool</text><ellipse cx="17" cy="902.7422" fill="#84BE84" rx="3" ry="3" style="stroke: #038048; stroke-width: 1.0;"/><text fill="#000000" font-family="sans-serif" font-size="11" lengthAdjust="spacingAndGlyphs" textLength="97" x="26" y="905.9526">get_state() : bool</text><rect fill="#F24D5C" height="6" style="stroke: #C82930; stroke-width: 1.0;" width="6" x="14" y="912.5469"/><text fill="#000000" font-family="sans-serif" font-size="11" lengthAdjust="spacingAndGlyphs" text-decoration="underline" textLength="212" x="26" y="918.7573">check_all(uint64_t currentTime) : void</text><rect fill="#F24D5C" height="6" style="stroke: #C82930; stroke-width: 1.0;" width="6" x="14" y="925.3516"/><text fill="#000000" font-family="sans-serif" font-size="11" lengthAdjust="spacingAndGlyphs" text-decoration="underline" textLength="237" x="26" y="931.562">check_all_task(void* pvParameters) : void</text><ellipse cx="17" cy="941.1563" fill="#84BE84" rx="3" ry="3" style="stroke: #038048; stroke-width: 1.0;"/><text fill="#000000" font-family="sans-serif" font-size="11" lengthAdjust="spacingAndGlyphs" textLength="75" x="26" y="944.3667">setup() : void</text><ellipse cx="17" cy="953.9609" fill="#84BE84" rx="3" ry="3" style="stroke: #038048; stroke-width: 1.0;"/><text fill="#000000" font-family="sans-serif" font-size="11" lengthAdjust="spacingAndGlyphs" text-decoration="underline" textLength="122" x="26" y="957.1714">setup_emitter() : void</text><ellipse cx="17" cy="966.7656" fill="#84BE84" rx="3" ry="3" style="stroke: #038048; stroke-width: 1.0;"/><text fill="#000000" font-family="sans-serif" font-size="11" lengthAdjust="spacingAndGlyphs" text-decoration="underline" textLength="101" x="26" y="969.9761">start_emit() : void</text><ellipse cx="17" cy="979.5703" fill="#84BE84" rx="3" ry="3" style="stroke: #038048; stroke-width: 1.0;"/><text fill="#000000" font-family="sans-serif" font-size="11" lengthAdjust="spacingAndGlyphs" text-decoration="underline" textLength="99" x="26" y="982.7808">stop_emit() : void</text><!--MD5=[0ce16f4c3d7cb0b09c708de0157594c0]
class LinearActuator--><rect fill="#FEFECE" filter="url(#fagyyrmma7qe3)" height="841.8906" id="LinearActuator" style="stroke: #A80036; stroke-width: 1.5;" width="407" x="322" y="442"/><ellipse cx="475.25" cy="458" fill="#ADD1B2" rx="11" ry="11" style="stroke: #A80036; stroke-width: 1.0;"/><path d="M478.2188,463.6406 Q477.6406,463.9375 477,464.0781 Q476.3594,464.2344 475.6563,464.2344 Q473.1563,464.2344 471.8281,462.5938 Q470.5156,460.9375 470.5156,457.8125 Q470.5156,454.6875 471.8281,453.0313 Q473.1563,451.375 475.6563,451.375 Q476.3594,451.375 477,451.5313 Q477.6563,451.6875 478.2188,451.9844 L478.2188,454.7031 Q477.5938,454.125 477,453.8594 Q476.4063,453.5781 475.7813,453.5781 Q474.4375,453.5781 473.75,454.6563 Q473.0625,455.7188 473.0625,457.8125 Q473.0625,459.9063 473.75,460.9844 Q474.4375,462.0469 475.7813,462.0469 Q476.4063,462.0469 477,461.7813 Q477.5938,461.5 478.2188,460.9219 L478.2188,463.6406 Z "/><text fill="#000000" font-family="sans-serif" font-size="12" lengthAdjust="spacingAndGlyphs" textLength="92" x="495.75" y="462.1543">LinearActuator</text><line style="stroke: #A80036; stroke-width: 1.5;" x1="323" x2="728" y1="474" y2="474"/><rect fill="none" height="6" style="stroke: #C82930; stroke-width: 1.0;" width="6" x="330" y="482"/><text fill="#000000" font-family="sans-serif" font-size="11" lengthAdjust="spacingAndGlyphs" textLength="120" x="342" y="488.2104">motor : AccelStepper</text><rect fill="none" height="6" style="stroke: #C82930; stroke-width: 1.0;" width="6" x="330" y="494.8047"/><text fill="#000000" font-family="sans-serif" font-size="11" lengthAdjust="spacingAndGlyphs" textLength="151" x="342" y="501.0151">status : RunStatus::Status</text><rect fill="none" height="6" style="stroke: #C82930; stroke-width: 1.0;" width="6" x="330" y="507.6094"/><text fill="#000000" font-family="sans-serif" font-size="11" lengthAdjust="spacingAndGlyphs" textLength="142" x="342" y="513.8198">driver : TMC2209Stepper</text><rect fill="none" height="6" style="stroke: #C82930; stroke-width: 1.0;" width="6" x="330" y="520.4141"/><text fill="#000000" font-family="sans-serif" font-size="11" lengthAdjust="spacingAndGlyphs" textLength="134" x="342" y="526.6245">askForStallGuard : bool</text><rect fill="none" height="6" style="stroke: #C82930; stroke-width: 1.0;" width="6" x="330" y="533.2188"/><text fill="#000000" font-family="sans-serif" font-size="11" lengthAdjust="spacingAndGlyphs" textLength="169" x="342" y="539.4292">newStallGuardAvailable : bool</text><rect fill="none" height="6" style="stroke: #C82930; stroke-width: 1.0;" width="6" x="330" y="546.0234"/><text fill="#000000" font-family="sans-serif" font-size="11" lengthAdjust="spacingAndGlyphs" textLength="65" x="342" y="552.2339">shaft : bool</text><rect fill="none" height="6" style="stroke: #C82930; stroke-width: 1.0;" width="6" x="330" y="558.8281"/><text fill="#000000" font-family="sans-serif" font-size="11" lengthAdjust="spacingAndGlyphs" textLength="188" x="342" y="565.0386">calibrationFirstWallPosition : float</text><rect fill="none" height="6" style="stroke: #C82930; stroke-width: 1.0;" width="6" x="330" y="571.6328"/><text fill="#000000" font-family="sans-serif" font-size="11" lengthAdjust="spacingAndGlyphs" textLength="188" x="342" y="577.8433">calibrationFirstWallPosition : float</text><rect fill="none" height="6" style="stroke: #C82930; stroke-width: 1.0;" width="6" x="330" y="584.4375"/><text fill="#000000" font-family="sans-serif" font-size="11" lengthAdjust="spacingAndGlyphs" textLength="188" x="342" y="590.6479">calibrationFirstWallPosition : float</text><rect fill="none" height="6" style="stroke: #C82930; stroke-width: 1.0;" width="6" x="330" y="597.2422"/><text fill="#000000" font-family="sans-serif" font-size="11" lengthAdjust="spacingAndGlyphs" textLength="82" x="342" y="603.4526">leftLimit : float</text><rect fill="none" height="6" style="stroke: #C82930; stroke-width: 1.0;" width="6" x="330" y="610.0469"/><text fill="#000000" font-family="sans-serif" font-size="11" lengthAdjust="spacingAndGlyphs" textLength="90" x="342" y="616.2573">rightLimit : float</text><rect fill="none" height="6" style="stroke: #C82930; stroke-width: 1.0;" width="6" x="330" y="622.8516"/><text fill="#000000" font-family="sans-serif" font-size="11" lengthAdjust="spacingAndGlyphs" textLength="165" x="342" y="629.062">calibrationGoodSamples : int</text><rect fill="none" height="6" style="stroke: #C82930; stroke-width: 1.0;" width="6" x="330" y="635.6563"/><text fill="#000000" font-family="sans-serif" font-size="11" lengthAdjust="spacingAndGlyphs" textLength="161" x="342" y="641.8667">currentCalibrationSteps : int</text><rect fill="none" height="6" style="stroke: #C82930; stroke-width: 1.0;" width="6" x="330" y="648.4609"/><text fill="#000000" font-family="sans-serif" font-size="11" lengthAdjust="spacingAndGlyphs" textLength="140" x="342" y="654.6714">stallGuardValue : int16_t</text><rect fill="none" height="6" style="stroke: #C82930; stroke-width: 1.0;" width="6" x="330" y="661.2656"/><text fill="#000000" font-family="sans-serif" font-size="11" lengthAdjust="spacingAndGlyphs" textLength="89" x="342" y="667.4761">chrono : int64_t</text><rect fill="none" height="6" style="stroke: #C82930; stroke-width: 1.0;" width="6" x="330" y="674.0703"/><text fill="#000000" font-family="sans-serif" font-size="11" lengthAdjust="spacingAndGlyphs" text-decoration="underline" textLength="202" x="342" y="680.2808">all : static Vector&lt;LinearActuator*&gt;</text><line style="stroke: #A80036; stroke-width: 1.5;" x1="323" x2="728" y1="686.875" y2="686.875"/><ellipse cx="333" cy="697.875" fill="#84BE84" rx="3" ry="3" style="stroke: #038048; stroke-width: 1.0;"/><text fill="#000000" font-family="sans-serif" font-size="11" lengthAdjust="spacingAndGlyphs" textLength="381" x="342" y="701.0854">LinearActuator(int stepPin, int dirPin, uint8_t addresss, bool shaftt)</text><ellipse cx="333" cy="710.6797" fill="#84BE84" rx="3" ry="3" style="stroke: #038048; stroke-width: 1.0;"/><text fill="#000000" font-family="sans-serif" font-size="11" lengthAdjust="spacingAndGlyphs" textLength="99" x="342" y="713.8901">~LinearActuator()</text><rect fill="#F24D5C" height="6" style="stroke: #C82930; stroke-width: 1.0;" width="6" x="330" y="720.4844"/><text fill="#000000" font-family="sans-serif" font-size="11" lengthAdjust="spacingAndGlyphs" textLength="88" x="342" y="726.6948">c_step1() : bool</text><rect fill="#F24D5C" height="6" style="stroke: #C82930; stroke-width: 1.0;" width="6" x="330" y="733.2891"/><text fill="#000000" font-family="sans-serif" font-size="11" lengthAdjust="spacingAndGlyphs" textLength="162" x="342" y="739.4995">c_step10(int64_t time) : bool</text><rect fill="#F24D5C" height="6" style="stroke: #C82930; stroke-width: 1.0;" width="6" x="330" y="746.0938"/><text fill="#000000" font-family="sans-serif" font-size="11" lengthAdjust="spacingAndGlyphs" textLength="162" x="342" y="752.3042">c_step11(int64_t time) : bool</text><rect fill="#F24D5C" height="6" style="stroke: #C82930; stroke-width: 1.0;" width="6" x="330" y="758.8984"/><text fill="#000000" font-family="sans-serif" font-size="11" lengthAdjust="spacingAndGlyphs" textLength="95" x="342" y="765.1089">c_step12() : bool</text><rect fill="#F24D5C" height="6" style="stroke: #C82930; stroke-width: 1.0;" width="6" x="330" y="771.7031"/><text fill="#000000" font-family="sans-serif" font-size="11" lengthAdjust="spacingAndGlyphs" textLength="95" x="342" y="777.9136">c_step13() : bool</text><rect fill="#F24D5C" height="6" style="stroke: #C82930; stroke-width: 1.0;" width="6" x="330" y="784.5078"/><text fill="#000000" font-family="sans-serif" font-size="11" lengthAdjust="spacingAndGlyphs" textLength="162" x="342" y="790.7183">c_step14(int64_t time) : bool</text><rect fill="#F24D5C" height="6" style="stroke: #C82930; stroke-width: 1.0;" width="6" x="330" y="797.3125"/><text fill="#000000" font-family="sans-serif" font-size="11" lengthAdjust="spacingAndGlyphs" textLength="162" x="342" y="803.5229">c_step15(int64_t time) : bool</text><rect fill="#F24D5C" height="6" style="stroke: #C82930; stroke-width: 1.0;" width="6" x="330" y="810.1172"/><text fill="#000000" font-family="sans-serif" font-size="11" lengthAdjust="spacingAndGlyphs" textLength="95" x="342" y="816.3276">c_step16() : bool</text><rect fill="#F24D5C" height="6" style="stroke: #C82930; stroke-width: 1.0;" width="6" x="330" y="822.9219"/><text fill="#000000" font-family="sans-serif" font-size="11" lengthAdjust="spacingAndGlyphs" textLength="155" x="342" y="829.1323">c_step2(int64_t time) : bool</text><rect fill="#F24D5C" height="6" style="stroke: #C82930; stroke-width: 1.0;" width="6" x="330" y="835.7266"/><text fill="#000000" font-family="sans-serif" font-size="11" lengthAdjust="spacingAndGlyphs" textLength="155" x="342" y="841.937">c_step3(int64_t time) : bool</text><rect fill="#F24D5C" height="6" style="stroke: #C82930; stroke-width: 1.0;" width="6" x="330" y="848.5313"/><text fill="#000000" font-family="sans-serif" font-size="11" lengthAdjust="spacingAndGlyphs" textLength="88" x="342" y="854.7417">c_step4() : bool</text><rect fill="#F24D5C" height="6" style="stroke: #C82930; stroke-width: 1.0;" width="6" x="330" y="861.3359"/><text fill="#000000" font-family="sans-serif" font-size="11" lengthAdjust="spacingAndGlyphs" textLength="88" x="342" y="867.5464">c_step5() : bool</text><rect fill="#F24D5C" height="6" style="stroke: #C82930; stroke-width: 1.0;" width="6" x="330" y="874.1406"/><text fill="#000000" font-family="sans-serif" font-size="11" lengthAdjust="spacingAndGlyphs" textLength="155" x="342" y="880.3511">c_step6(int64_t time) : bool</text><rect fill="#F24D5C" height="6" style="stroke: #C82930; stroke-width: 1.0;" width="6" x="330" y="886.9453"/><text fill="#000000" font-family="sans-serif" font-size="11" lengthAdjust="spacingAndGlyphs" textLength="155" x="342" y="893.1558">c_step7(int64_t time) : bool</text><rect fill="#F24D5C" height="6" style="stroke: #C82930; stroke-width: 1.0;" width="6" x="330" y="899.75"/><text fill="#000000" font-family="sans-serif" font-size="11" lengthAdjust="spacingAndGlyphs" textLength="88" x="342" y="905.9604">c_step8() : bool</text><rect fill="#F24D5C" height="6" style="stroke: #C82930; stroke-width: 1.0;" width="6" x="330" y="912.5547"/><text fill="#000000" font-family="sans-serif" font-size="11" lengthAdjust="spacingAndGlyphs" textLength="88" x="342" y="918.7651">c_step9() : bool</text><rect fill="#F24D5C" height="6" style="stroke: #C82930; stroke-width: 1.0;" width="6" x="330" y="925.3594"/><text fill="#000000" font-family="sans-serif" font-size="11" lengthAdjust="spacingAndGlyphs" textLength="170" x="342" y="931.5698">calibration(int64_t time) : bool</text><ellipse cx="333" cy="941.1641" fill="#84BE84" rx="3" ry="3" style="stroke: #038048; stroke-width: 1.0;"/><text fill="#000000" font-family="sans-serif" font-size="11" lengthAdjust="spacingAndGlyphs" textLength="116" x="342" y="944.3745">is_calibrated() : bool</text><ellipse cx="333" cy="953.9688" fill="#84BE84" rx="3" ry="3" style="stroke: #038048; stroke-width: 1.0;"/><text fill="#000000" font-family="sans-serif" font-size="11" lengthAdjust="spacingAndGlyphs" textLength="140" x="342" y="957.1792">is_left_calibrated() : bool</text><ellipse cx="333" cy="966.7734" fill="#84BE84" rx="3" ry="3" style="stroke: #038048; stroke-width: 1.0;"/><text fill="#000000" font-family="sans-serif" font-size="11" lengthAdjust="spacingAndGlyphs" textLength="148" x="342" y="969.9839">is_right_calibrated() : bool</text><ellipse cx="333" cy="979.5781" fill="#84BE84" rx="3" ry="3" style="stroke: #038048; stroke-width: 1.0;"/><text fill="#000000" font-family="sans-serif" font-size="11" lengthAdjust="spacingAndGlyphs" textLength="191" x="342" y="982.7886">move(float relativePosition) : bool</text><ellipse cx="333" cy="992.3828" fill="#84BE84" rx="3" ry="3" style="stroke: #038048; stroke-width: 1.0;"/><text fill="#000000" font-family="sans-serif" font-size="11" lengthAdjust="spacingAndGlyphs" textLength="166" x="342" y="995.5933">move_to(float position) : bool</text><ellipse cx="333" cy="1005.1875" fill="#84BE84" rx="3" ry="3" style="stroke: #038048; stroke-width: 1.0;"/><text fill="#000000" font-family="sans-serif" font-size="11" lengthAdjust="spacingAndGlyphs" textLength="101" x="342" y="1008.3979">amplitude() : float</text><ellipse cx="333" cy="1017.9922" fill="#84BE84" rx="3" ry="3" style="stroke: #038048; stroke-width: 1.0;"/><text fill="#000000" font-family="sans-serif" font-size="11" lengthAdjust="spacingAndGlyphs" textLength="137" x="342" y="1021.2026">current_position() : float</text><ellipse cx="333" cy="1030.7969" fill="#84BE84" rx="3" ry="3" style="stroke: #038048; stroke-width: 1.0;"/><text fill="#000000" font-family="sans-serif" font-size="11" lengthAdjust="spacingAndGlyphs" textLength="127" x="342" y="1034.0073">current_speed() : float</text><ellipse cx="333" cy="1043.6016" fill="#84BE84" rx="3" ry="3" style="stroke: #038048; stroke-width: 1.0;"/><text fill="#000000" font-family="sans-serif" font-size="11" lengthAdjust="spacingAndGlyphs" textLength="110" x="342" y="1046.812">max_speed() : float</text><ellipse cx="333" cy="1056.4063" fill="#84BE84" rx="3" ry="3" style="stroke: #038048; stroke-width: 1.0;"/><text fill="#000000" font-family="sans-serif" font-size="11" lengthAdjust="spacingAndGlyphs" textLength="107" x="342" y="1059.6167">calibrate_left() : int</text><ellipse cx="333" cy="1069.2109" fill="#84BE84" rx="3" ry="3" style="stroke: #038048; stroke-width: 1.0;"/><text fill="#000000" font-family="sans-serif" font-size="11" lengthAdjust="spacingAndGlyphs" textLength="115" x="342" y="1072.4214">calibrate_right() : int</text><ellipse cx="333" cy="1082.0156" fill="#84BE84" rx="3" ry="3" style="stroke: #038048; stroke-width: 1.0;"/><text fill="#000000" font-family="sans-serif" font-size="11" lengthAdjust="spacingAndGlyphs" textLength="53" x="342" y="1085.2261">run() : int</text><ellipse cx="333" cy="1094.8203" fill="#84BE84" rx="3" ry="3" style="stroke: #038048; stroke-width: 1.0;"/><text fill="#000000" font-family="sans-serif" font-size="11" lengthAdjust="spacingAndGlyphs" textLength="179" x="342" y="1098.0308">get_stallGuardValue() : uint16_t</text><ellipse cx="333" cy="1107.625" fill="#84BE84" rx="3" ry="3" style="stroke: #038048; stroke-width: 1.0;"/><text fill="#000000" font-family="sans-serif" font-size="11" lengthAdjust="spacingAndGlyphs" textLength="113" x="342" y="1110.8354">instant_stop() : void</text><ellipse cx="333" cy="1120.4297" fill="#84BE84" rx="3" ry="3" style="stroke: #038048; stroke-width: 1.0;"/><text fill="#000000" font-family="sans-serif" font-size="11" lengthAdjust="spacingAndGlyphs" textLength="132" x="342" y="1123.6401">invert(bool shaft) : void</text><ellipse cx="333" cy="1133.2344" fill="#84BE84" rx="3" ry="3" style="stroke: #038048; stroke-width: 1.0;"/><text fill="#000000" font-family="sans-serif" font-size="11" lengthAdjust="spacingAndGlyphs" textLength="98" x="342" y="1136.4448">move_left() : void</text><ellipse cx="333" cy="1146.0391" fill="#84BE84" rx="3" ry="3" style="stroke: #038048; stroke-width: 1.0;"/><text fill="#000000" font-family="sans-serif" font-size="11" lengthAdjust="spacingAndGlyphs" textLength="106" x="342" y="1149.2495">move_right() : void</text><ellipse cx="333" cy="1158.8438" fill="#84BE84" rx="3" ry="3" style="stroke: #038048; stroke-width: 1.0;"/><text fill="#000000" font-family="sans-serif" font-size="11" lengthAdjust="spacingAndGlyphs" textLength="127" x="342" y="1162.0542">reset_left_limit() : void</text><ellipse cx="333" cy="1171.6484" fill="#84BE84" rx="3" ry="3" style="stroke: #038048; stroke-width: 1.0;"/><text fill="#000000" font-family="sans-serif" font-size="11" lengthAdjust="spacingAndGlyphs" textLength="135" x="342" y="1174.8589">reset_right_limit() : void</text><ellipse cx="333" cy="1184.4531" fill="#84BE84" rx="3" ry="3" style="stroke: #038048; stroke-width: 1.0;"/><text fill="#000000" font-family="sans-serif" font-size="11" lengthAdjust="spacingAndGlyphs" textLength="234" x="342" y="1187.6636">set_acceleration(float acceleration) : void</text><rect fill="#F24D5C" height="6" style="stroke: #C82930; stroke-width: 1.0;" width="6" x="330" y="1194.2578"/><text fill="#000000" font-family="sans-serif" font-size="11" lengthAdjust="spacingAndGlyphs" textLength="233" x="342" y="1200.4683">set_current_position(float position) : void</text><ellipse cx="333" cy="1210.0625" fill="#84BE84" rx="3" ry="3" style="stroke: #038048; stroke-width: 1.0;"/><text fill="#000000" font-family="sans-serif" font-size="11" lengthAdjust="spacingAndGlyphs" textLength="196" x="342" y="1213.2729">set_max_speed(float speed) : void</text><ellipse cx="333" cy="1222.8672" fill="#84BE84" rx="3" ry="3" style="stroke: #038048; stroke-width: 1.0;"/><text fill="#000000" font-family="sans-serif" font-size="11" lengthAdjust="spacingAndGlyphs" textLength="166" x="342" y="1226.0776">set_speed(float speed) : void</text><ellipse cx="333" cy="1235.6719" fill="#84BE84" rx="3" ry="3" style="stroke: #038048; stroke-width: 1.0;"/><text fill="#000000" font-family="sans-serif" font-size="11" lengthAdjust="spacingAndGlyphs" textLength="75" x="342" y="1238.8823">setup() : void</text><ellipse cx="333" cy="1248.4766" fill="#84BE84" rx="3" ry="3" style="stroke: #038048; stroke-width: 1.0;"/><text fill="#000000" font-family="sans-serif" font-size="11" lengthAdjust="spacingAndGlyphs" text-decoration="underline" textLength="114" x="342" y="1251.687">setup_Serial() : void</text><ellipse cx="333" cy="1261.2813" fill="#84BE84" rx="3" ry="3" style="stroke: #038048; stroke-width: 1.0;"/><text fill="#000000" font-family="sans-serif" font-size="11" lengthAdjust="spacingAndGlyphs" text-decoration="underline" textLength="242" x="342" y="1264.4917">stallGuardTask(void* pvParameters) : void</text><ellipse cx="333" cy="1274.0859" fill="#84BE84" rx="3" ry="3" style="stroke: #038048; stroke-width: 1.0;"/><text fill="#000000" font-family="sans-serif" font-size="11" lengthAdjust="spacingAndGlyphs" textLength="68" x="342" y="1277.2964">stop() : void</text><!--MD5=[31b2194eebf44df4ffa280c9796f03c1]
class PING--><rect fill="#FEFECE" filter="url(#fagyyrmma7qe3)" height="176.0469" id="PING" style="stroke: #A80036; stroke-width: 1.5;" width="320" x="589.5" y="8"/><ellipse cx="730.75" cy="24" fill="#ADD1B2" rx="11" ry="11" style="stroke: #A80036; stroke-width: 1.0;"/><path d="M733.7188,29.6406 Q733.1406,29.9375 732.5,30.0781 Q731.8594,30.2344 731.1563,30.2344 Q728.6563,30.2344 727.3281,28.5938 Q726.0156,26.9375 726.0156,23.8125 Q726.0156,20.6875 727.3281,19.0313 Q728.6563,17.375 731.1563,17.375 Q731.8594,17.375 732.5,17.5313 Q733.1563,17.6875 733.7188,17.9844 L733.7188,20.7031 Q733.0938,20.125 732.5,19.8594 Q731.9063,19.5781 731.2813,19.5781 Q729.9375,19.5781 729.25,20.6563 Q728.5625,21.7188 728.5625,23.8125 Q728.5625,25.9063 729.25,26.9844 Q729.9375,28.0469 731.2813,28.0469 Q731.9063,28.0469 732.5,27.7813 Q733.0938,27.5 733.7188,26.9219 L733.7188,29.6406 Z "/><text fill="#000000" font-family="sans-serif" font-size="12" lengthAdjust="spacingAndGlyphs" textLength="29" x="751.25" y="28.1543">PING</text><line style="stroke: #A80036; stroke-width: 1.5;" x1="590.5" x2="908.5" y1="40" y2="40"/><rect fill="none" height="6" style="stroke: #C82930; stroke-width: 1.0;" width="6" x="597.5" y="48"/><text fill="#000000" font-family="sans-serif" font-size="11" lengthAdjust="spacingAndGlyphs" text-decoration="underline" textLength="124" x="609.5" y="54.2104">player1 : static Player</text><rect fill="none" height="6" style="stroke: #C82930; stroke-width: 1.0;" width="6" x="597.5" y="60.8047"/><text fill="#000000" font-family="sans-serif" font-size="11" lengthAdjust="spacingAndGlyphs" text-decoration="underline" textLength="124" x="609.5" y="67.0151">player2 : static Player</text><rect fill="none" height="6" style="stroke: #C82930; stroke-width: 1.0;" width="6" x="597.5" y="73.6094"/><text fill="#000000" font-family="sans-serif" font-size="11" lengthAdjust="spacingAndGlyphs" text-decoration="underline" textLength="124" x="609.5" y="79.8198">player3 : static Player</text><rect fill="none" height="6" style="stroke: #C82930; stroke-width: 1.0;" width="6" x="597.5" y="86.4141"/><text fill="#000000" font-family="sans-serif" font-size="11" lengthAdjust="spacingAndGlyphs" text-decoration="underline" textLength="124" x="609.5" y="92.6245">player4 : static Player</text><rect fill="none" height="6" style="stroke: #C82930; stroke-width: 1.0;" width="6" x="597.5" y="99.2188"/><text fill="#000000" font-family="sans-serif" font-size="11" lengthAdjust="spacingAndGlyphs" text-decoration="underline" textLength="275" x="609.5" y="105.4292">raspComManager : static RaspComManagement</text><rect fill="none" height="6" style="stroke: #C82930; stroke-width: 1.0;" width="6" x="597.5" y="112.0234"/><text fill="#000000" font-family="sans-serif" font-size="11" lengthAdjust="spacingAndGlyphs" text-decoration="underline" textLength="293" x="609.5" y="118.2339">solenoidOvertempTaskHandle : static TaskHandle_t</text><line style="stroke: #A80036; stroke-width: 1.5;" x1="590.5" x2="908.5" y1="124.8281" y2="124.8281"/><rect fill="#F24D5C" height="6" style="stroke: #C82930; stroke-width: 1.0;" width="6" x="597.5" y="132.8281"/><text fill="#000000" font-family="sans-serif" font-size="11" lengthAdjust="spacingAndGlyphs" textLength="35" x="609.5" y="139.0386">PING()</text><ellipse cx="600.5" cy="148.6328" fill="#84BE84" rx="3" ry="3" style="stroke: #038048; stroke-width: 1.0;"/><text fill="#000000" font-family="sans-serif" font-size="11" lengthAdjust="spacingAndGlyphs" textLength="44" x="609.5" y="151.8433">~PING()</text><ellipse cx="600.5" cy="161.4375" fill="#84BE84" rx="3" ry="3" style="stroke: #038048; stroke-width: 1.0;"/><text fill="#000000" font-family="sans-serif" font-size="11" lengthAdjust="spacingAndGlyphs" text-decoration="underline" textLength="75" x="609.5" y="164.6479">setup() : void</text><rect fill="#F24D5C" height="6" style="stroke: #C82930; stroke-width: 1.0;" width="6" x="597.5" y="171.2422"/><text fill="#000000" font-family="sans-serif" font-size="11" lengthAdjust="spacingAndGlyphs" text-decoration="underline" textLength="294" x="609.5" y="177.4526">solenoid_overtemp_task(void* pvParameters) : void</text><!--MD5=[2cb47ba637a0d19583e6199456f6ad0b]
class Player--><rect fill="#FEFECE" filter="url(#fagyyrmma7qe3)" height="137.6328" id="Player" style="stroke: #A80036; stroke-width: 1.5;" width="594" x="228.5" y="244"/><ellipse cx="502.25" cy="260" fill="#ADD1B2" rx="11" ry="11" style="stroke: #A80036; stroke-width: 1.0;"/><path d="M505.2188,265.6406 Q504.6406,265.9375 504,266.0781 Q503.3594,266.2344 502.6563,266.2344 Q500.1563,266.2344 498.8281,264.5938 Q497.5156,262.9375 497.5156,259.8125 Q497.5156,256.6875 498.8281,255.0313 Q500.1563,253.375 502.6563,253.375 Q503.3594,253.375 504,253.5313 Q504.6563,253.6875 505.2188,253.9844 L505.2188,256.7031 Q504.5938,256.125 504,255.8594 Q503.4063,255.5781 502.7813,255.5781 Q501.4375,255.5781 500.75,256.6563 Q500.0625,257.7188 500.0625,259.8125 Q500.0625,261.9063 500.75,262.9844 Q501.4375,264.0469 502.7813,264.0469 Q503.4063,264.0469 504,263.7813 Q504.5938,263.5 505.2188,262.9219 L505.2188,265.6406 Z "/><text fill="#000000" font-family="sans-serif" font-size="12" lengthAdjust="spacingAndGlyphs" textLength="38" x="522.75" y="264.1543">Player</text><line style="stroke: #A80036; stroke-width: 1.5;" x1="229.5" x2="821.5" y1="276" y2="276"/><ellipse cx="239.5" cy="287" fill="none" rx="3" ry="3" style="stroke: #038048; stroke-width: 1.0;"/><text fill="#000000" font-family="sans-serif" font-size="11" lengthAdjust="spacingAndGlyphs" textLength="151" x="248.5" y="290.2104">beamSwitch : BeamSwitch</text><ellipse cx="239.5" cy="299.8047" fill="none" rx="3" ry="3" style="stroke: #038048; stroke-width: 1.0;"/><text fill="#000000" font-family="sans-serif" font-size="11" lengthAdjust="spacingAndGlyphs" textLength="141" x="248.5" y="303.0151">actuator : LinearActuator</text><ellipse cx="239.5" cy="312.6094" fill="none" rx="3" ry="3" style="stroke: #038048; stroke-width: 1.0;"/><text fill="#000000" font-family="sans-serif" font-size="11" lengthAdjust="spacingAndGlyphs" textLength="109" x="248.5" y="315.8198">solenoid : Solenoid</text><line style="stroke: #A80036; stroke-width: 1.5;" x1="229.5" x2="821.5" y1="322.4141" y2="322.4141"/><ellipse cx="239.5" cy="333.4141" fill="#84BE84" rx="3" ry="3" style="stroke: #038048; stroke-width: 1.0;"/><text fill="#000000" font-family="sans-serif" font-size="11" lengthAdjust="spacingAndGlyphs" textLength="568" x="248.5" y="336.6245">Player(int stepPin, int dirPin, uint8_t address, bool motorShaft, int solenoidPin, int beamSwitchRPin)</text><ellipse cx="239.5" cy="346.2188" fill="#84BE84" rx="3" ry="3" style="stroke: #038048; stroke-width: 1.0;"/><text fill="#000000" font-family="sans-serif" font-size="11" lengthAdjust="spacingAndGlyphs" textLength="52" x="248.5" y="349.4292">~Player()</text><ellipse cx="239.5" cy="359.0234" fill="#84BE84" rx="3" ry="3" style="stroke: #038048; stroke-width: 1.0;"/><text fill="#000000" font-family="sans-serif" font-size="11" lengthAdjust="spacingAndGlyphs" textLength="58" x="248.5" y="362.2339">loop() : int</text><ellipse cx="239.5" cy="371.8281" fill="#84BE84" rx="3" ry="3" style="stroke: #038048; stroke-width: 1.0;"/><text fill="#000000" font-family="sans-serif" font-size="11" lengthAdjust="spacingAndGlyphs" textLength="66" x="248.5" y="375.0386">setup() : int</text><!--MD5=[760b531b568e8db29d8104fa603dea6e]
class RaspComManagement--><rect fill="#FEFECE" filter="url(#fagyyrmma7qe3)" height="86.4141" id="RaspComManagement" style="stroke: #A80036; stroke-width: 1.5;" width="232" x="857.5" y="270"/><ellipse cx="899.5" cy="286" fill="#ADD1B2" rx="11" ry="11" style="stroke: #A80036; stroke-width: 1.0;"/><path d="M902.4688,291.6406 Q901.8906,291.9375 901.25,292.0781 Q900.6094,292.2344 899.9063,292.2344 Q897.4063,292.2344 896.0781,290.5938 Q894.7656,288.9375 894.7656,285.8125 Q894.7656,282.6875 896.0781,281.0313 Q897.4063,279.375 899.9063,279.375 Q900.6094,279.375 901.25,279.5313 Q901.9063,279.6875 902.4688,279.9844 L902.4688,282.7031 Q901.8438,282.125 901.25,281.8594 Q900.6563,281.5781 900.0313,281.5781 Q898.6875,281.5781 898,282.6563 Q897.3125,283.7188 897.3125,285.8125 Q897.3125,287.9063 898,288.9844 Q898.6875,290.0469 900.0313,290.0469 Q900.6563,290.0469 901.25,289.7813 Q901.8438,289.5 902.4688,288.9219 L902.4688,291.6406 Z "/><text fill="#000000" font-family="sans-serif" font-size="12" lengthAdjust="spacingAndGlyphs" textLength="140" x="919.5" y="290.1543">RaspComManagement</text><line style="stroke: #A80036; stroke-width: 1.5;" x1="858.5" x2="1088.5" y1="302" y2="302"/><line style="stroke: #A80036; stroke-width: 1.5;" x1="858.5" x2="1088.5" y1="310" y2="310"/><ellipse cx="868.5" cy="321" fill="#84BE84" rx="3" ry="3" style="stroke: #038048; stroke-width: 1.0;"/><text fill="#000000" font-family="sans-serif" font-size="11" lengthAdjust="spacingAndGlyphs" textLength="206" x="877.5" y="324.2104">RaspComManagement(int baudRate)</text><ellipse cx="868.5" cy="333.8047" fill="#84BE84" rx="3" ry="3" style="stroke: #038048; stroke-width: 1.0;"/><text fill="#000000" font-family="sans-serif" font-size="11" lengthAdjust="spacingAndGlyphs" textLength="144" x="877.5" y="337.0151">~RaspComManagement()</text><ellipse cx="868.5" cy="346.6094" fill="#84BE84" rx="3" ry="3" style="stroke: #038048; stroke-width: 1.0;"/><text fill="#000000" font-family="sans-serif" font-size="11" lengthAdjust="spacingAndGlyphs" textLength="75" x="877.5" y="349.8198">setup() : void</text><!--MD5=[774f4e82a168727ea092e2c64952d764]
class Solenoid--><rect fill="#FEFECE" filter="url(#fagyyrmma7qe3)" height="240.0703" id="Solenoid" style="stroke: #A80036; stroke-width: 1.5;" width="294" x="782.5" y="743"/><ellipse cx="898.25" cy="759" fill="#ADD1B2" rx="11" ry="11" style="stroke: #A80036; stroke-width: 1.0;"/><path d="M901.2188,764.6406 Q900.6406,764.9375 900,765.0781 Q899.3594,765.2344 898.6563,765.2344 Q896.1563,765.2344 894.8281,763.5938 Q893.5156,761.9375 893.5156,758.8125 Q893.5156,755.6875 894.8281,754.0313 Q896.1563,752.375 898.6563,752.375 Q899.3594,752.375 900,752.5313 Q900.6563,752.6875 901.2188,752.9844 L901.2188,755.7031 Q900.5938,755.125 900,754.8594 Q899.4063,754.5781 898.7813,754.5781 Q897.4375,754.5781 896.75,755.6563 Q896.0625,756.7188 896.0625,758.8125 Q896.0625,760.9063 896.75,761.9844 Q897.4375,763.0469 898.7813,763.0469 Q899.4063,763.0469 900,762.7813 Q900.5938,762.5 901.2188,761.9219 L901.2188,764.6406 Z "/><text fill="#000000" font-family="sans-serif" font-size="12" lengthAdjust="spacingAndGlyphs" textLength="54" x="918.75" y="763.1543">Solenoid</text><line style="stroke: #A80036; stroke-width: 1.5;" x1="783.5" x2="1075.5" y1="775" y2="775"/><rect fill="none" height="6" style="stroke: #C82930; stroke-width: 1.0;" width="6" x="790.5" y="783"/><text fill="#000000" font-family="sans-serif" font-size="11" lengthAdjust="spacingAndGlyphs" textLength="110" x="802.5" y="789.2104">currentTemp : float</text><rect fill="none" height="6" style="stroke: #C82930; stroke-width: 1.0;" width="6" x="790.5" y="795.8047"/><text fill="#000000" font-family="sans-serif" font-size="11" lengthAdjust="spacingAndGlyphs" textLength="66" x="802.5" y="802.0151">state : float</text><rect fill="none" height="6" style="stroke: #C82930; stroke-width: 1.0;" width="6" x="790.5" y="808.6094"/><text fill="#000000" font-family="sans-serif" font-size="11" lengthAdjust="spacingAndGlyphs" textLength="66" x="802.5" y="814.8198">state : float</text><rect fill="none" height="6" style="stroke: #C82930; stroke-width: 1.0;" width="6" x="790.5" y="821.4141"/><text fill="#000000" font-family="sans-serif" font-size="11" lengthAdjust="spacingAndGlyphs" textLength="66" x="802.5" y="827.6245">state : float</text><rect fill="none" height="6" style="stroke: #C82930; stroke-width: 1.0;" width="6" x="790.5" y="834.2188"/><text fill="#000000" font-family="sans-serif" font-size="11" lengthAdjust="spacingAndGlyphs" textLength="91" x="802.5" y="840.4292">solenoidPin : int</text><rect fill="none" height="6" style="stroke: #C82930; stroke-width: 1.0;" width="6" x="790.5" y="847.0234"/><text fill="#000000" font-family="sans-serif" font-size="11" lengthAdjust="spacingAndGlyphs" text-decoration="underline" textLength="128" x="802.5" y="853.2339">maxTemp : static float</text><rect fill="none" height="6" style="stroke: #C82930; stroke-width: 1.0;" width="6" x="790.5" y="859.8281"/><text fill="#000000" font-family="sans-serif" font-size="11" lengthAdjust="spacingAndGlyphs" textLength="144" x="802.5" y="866.0386">lastTempCheck : uint64_t</text><line style="stroke: #A80036; stroke-width: 1.5;" x1="783.5" x2="1075.5" y1="872.6328" y2="872.6328"/><ellipse cx="793.5" cy="883.6328" fill="#84BE84" rx="3" ry="3" style="stroke: #038048; stroke-width: 1.0;"/><text fill="#000000" font-family="sans-serif" font-size="11" lengthAdjust="spacingAndGlyphs" textLength="222" x="802.5" y="886.8433">Solenoid(int solenoidPin ), ~Solenoid ()</text><ellipse cx="793.5" cy="896.4375" fill="#84BE84" rx="3" ry="3" style="stroke: #038048; stroke-width: 1.0;"/><text fill="#000000" font-family="sans-serif" font-size="11" lengthAdjust="spacingAndGlyphs" textLength="268" x="802.5" y="899.6479">over_temp_protect(uint64_t currentTime) : bool</text><ellipse cx="793.5" cy="909.2422" fill="#84BE84" rx="3" ry="3" style="stroke: #038048; stroke-width: 1.0;"/><text fill="#000000" font-family="sans-serif" font-size="11" lengthAdjust="spacingAndGlyphs" textLength="104" x="802.5" y="912.4526">get_power() : float</text><ellipse cx="793.5" cy="922.0469" fill="#84BE84" rx="3" ry="3" style="stroke: #038048; stroke-width: 1.0;"/><text fill="#000000" font-family="sans-serif" font-size="11" lengthAdjust="spacingAndGlyphs" textLength="98" x="802.5" y="925.2573">get_state() : float</text><ellipse cx="793.5" cy="934.8516" fill="#84BE84" rx="3" ry="3" style="stroke: #038048; stroke-width: 1.0;"/><text fill="#000000" font-family="sans-serif" font-size="11" lengthAdjust="spacingAndGlyphs" textLength="87" x="802.5" y="938.062">activate() : void</text><ellipse cx="793.5" cy="947.6563" fill="#84BE84" rx="3" ry="3" style="stroke: #038048; stroke-width: 1.0;"/><text fill="#000000" font-family="sans-serif" font-size="11" lengthAdjust="spacingAndGlyphs" textLength="101" x="802.5" y="950.8667">deactivate() : void</text><ellipse cx="793.5" cy="960.4609" fill="#84BE84" rx="3" ry="3" style="stroke: #038048; stroke-width: 1.0;"/><text fill="#000000" font-family="sans-serif" font-size="11" lengthAdjust="spacingAndGlyphs" textLength="155" x="802.5" y="963.6714">set_power(int power) : void</text><ellipse cx="793.5" cy="973.2656" fill="#84BE84" rx="3" ry="3" style="stroke: #038048; stroke-width: 1.0;"/><text fill="#000000" font-family="sans-serif" font-size="11" lengthAdjust="spacingAndGlyphs" textLength="75" x="802.5" y="976.4761">setup() : void</text><!--MD5=[318cb0c4fbc137e6ed4fa6d91664b070]
reverse link BeamSwitch to BeamSwitch--><path d="M279.14,781.11 C294.28,796.93 304,824.23 304,863 C304,909.82 289.82,939.91 269.06,953.26 " fill="none" id="BeamSwitch&lt;-BeamSwitch" style="stroke: #A80036; stroke-width: 1.0;"/><polygon fill="#FFFFFF" points="269.06,772.74,271.1222,779.6499,278.2938,780.404,276.2316,773.4941,269.06,772.74" style="stroke: #A80036; stroke-width: 1.0;"/><!--MD5=[f01d345cbb021b883e3e68de17339e3b]
reverse link LinearActuator to LinearActuator--><path d="M738.89,790.32 C754.46,806.69 764,830.92 764,863 C764,901.38 750.35,928.51 729.06,944.41 " fill="none" id="LinearActuator&lt;-LinearActuator" style="stroke: #A80036; stroke-width: 1.0;"/><polygon fill="#FFFFFF" points="729.06,781.59,730.8946,788.5638,738.0376,789.5525,736.203,782.5787,729.06,781.59" style="stroke: #A80036; stroke-width: 1.0;"/><!--MD5=[8d8ed2d26b7338aefecda9fd8d1473bd]
reverse link LinearActuator to RunStatus.Status--><path d="M525.5,1297.26 C525.5,1314.87 525.5,1330.59 525.5,1343.73 " fill="none" id="LinearActuator&lt;-RunStatus.Status" style="stroke: #A80036; stroke-width: 1.0;"/><polygon fill="#A80036" points="525.5,1284.11,521.5,1290.11,525.5,1296.11,529.5,1290.11,525.5,1284.11" style="stroke: #A80036; stroke-width: 1.0;"/><!--MD5=[3d3440c247ea6d9549ddae07c5b26dc8]
reverse link PING to Player--><path d="M648.93,193.53 C631.23,210.52 613.14,227.88 596.46,243.89 " fill="none" id="PING&lt;-Player" style="stroke: #A80036; stroke-width: 1.0;"/><polygon fill="#A80036" points="658.71,184.14,651.6128,185.4166,650.0615,192.4589,657.1587,191.1823,658.71,184.14" style="stroke: #A80036; stroke-width: 1.0;"/><text fill="#000000" font-family="sans-serif" font-size="13" lengthAdjust="spacingAndGlyphs" textLength="8" x="642.8602" y="204.1306">4</text><!--MD5=[e09b457801a70dba8834c32de8f4d06f]
reverse link PING to RaspComManagement--><path d="M849.73,193.2 C877.72,220.07 906.7,247.89 929.58,269.84 " fill="none" id="PING&lt;-RaspComManagement" style="stroke: #A80036; stroke-width: 1.0;"/><polygon fill="#A80036" points="840.29,184.14,841.8413,191.1823,848.9385,192.4589,847.3872,185.4166,840.29,184.14" style="stroke: #A80036; stroke-width: 1.0;"/><!--MD5=[8974d906f5436deded3f8d9665c498e8]
reverse link Player to BeamSwitch--><path d="M365.01,389.33 C342.76,404.55 321.68,422.1 304.5,442 C231.69,526.35 188.27,646.35 164.04,736.49 " fill="none" id="Player&lt;-BeamSwitch" style="stroke: #A80036; stroke-width: 1.0;"/><polygon fill="#A80036" points="376.01,382.05,368.7989,382.028,366.0051,388.6759,373.2162,388.6979,376.01,382.05" style="stroke: #A80036; stroke-width: 1.0;"/><!--MD5=[c8a40b61ed2cae938dabd67da6109521]
reverse link Player to LinearActuator--><path d="M525.5,395.23 C525.5,409.48 525.5,425.13 525.5,441.81 " fill="none" id="Player&lt;-LinearActuator" style="stroke: #A80036; stroke-width: 1.0;"/><polygon fill="#A80036" points="525.5,382.02,521.5,388.02,525.5,394.02,529.5,388.02,525.5,382.02" style="stroke: #A80036; stroke-width: 1.0;"/><!--MD5=[0df571f1bdc863a16490465303cac24b]
reverse link Player to Solenoid--><path d="M701.42,389.12 C724.63,404.23 746.55,421.81 764.5,442 C840.37,527.34 883.33,651.64 906.26,742.88 " fill="none" id="Player&lt;-Solenoid" style="stroke: #A80036; stroke-width: 1.0;"/><polygon fill="#A80036" points="690.31,382.12,693.255,388.7023,700.4637,388.5155,697.5187,381.9332,690.31,382.12" style="stroke: #A80036; stroke-width: 1.0;"/><!--MD5=[0720b6c43c861d9a5a5f4a6839cad6d8]
@startuml






class BeamSwitch {
	+BeamSwitch(int beamSwitchRPin)
	+~BeamSwitch()
	-check(uint64_t currentTime) : bool
	+get_state() : bool
	-state : bool
	-beamSwitchRPin : const int
	-lastReceiveTime : int
	-{static} checkAllTaskHandle : static TaskHandle_t
	-{static} all : static Vector<BeamSwitch*>
	-{static} emit : static bool
	-{static} check_all(uint64_t currentTime) : void
	-{static} check_all_task(void* pvParameters) : void
	+setup() : void
	+{static} setup_emitter() : void
	+{static} start_emit() : void
	+{static} stop_emit() : void
}


class LinearActuator {
	+LinearActuator(int stepPin, int dirPin, uint8_t addresss, bool shaftt)
	+~LinearActuator()
	-motor : AccelStepper
	-status : RunStatus::Status
	-driver : TMC2209Stepper
	-askForStallGuard : bool
	-c_step1() : bool
	-c_step10(int64_t time) : bool
	-c_step11(int64_t time) : bool
	-c_step12() : bool
	-c_step13() : bool
	-c_step14(int64_t time) : bool
	-c_step15(int64_t time) : bool
	-c_step16() : bool
	-c_step2(int64_t time) : bool
	-c_step3(int64_t time) : bool
	-c_step4() : bool
	-c_step5() : bool
	-c_step6(int64_t time) : bool
	-c_step7(int64_t time) : bool
	-c_step8() : bool
	-c_step9() : bool
	-calibration(int64_t time) : bool
	+is_calibrated() : bool
	+is_left_calibrated() : bool
	+is_right_calibrated() : bool
	+move(float relativePosition) : bool
	+move_to(float position) : bool
	-newStallGuardAvailable : bool
	-shaft : bool
	+amplitude() : float
	-calibrationFirstWallPosition : float
	-calibrationFirstWallPosition : float
	-calibrationFirstWallPosition : float
	+current_position() : float
	+current_speed() : float
	-leftLimit : float
	+max_speed() : float
	-rightLimit : float
	+calibrate_left() : int
	+calibrate_right() : int
	-calibrationGoodSamples : int
	-currentCalibrationSteps : int
	+run() : int
	-stallGuardValue : int16_t
	-chrono : int64_t
	-{static} all : static Vector<LinearActuator*>
	+get_stallGuardValue() : uint16_t
	+instant_stop() : void
	+invert(bool shaft) : void
	+move_left() : void
	+move_right() : void
	+reset_left_limit() : void
	+reset_right_limit() : void
	+set_acceleration(float acceleration) : void
	-set_current_position(float position) : void
	+set_max_speed(float speed) : void
	+set_speed(float speed) : void
	+setup() : void
	+{static} setup_Serial() : void
	+{static} stallGuardTask(void* pvParameters) : void
	+stop() : void
}


class PING {
	-PING()
	+~PING()
	-{static} player1 : static Player
	-{static} player2 : static Player
	-{static} player3 : static Player
	-{static} player4 : static Player
	-{static} raspComManager : static RaspComManagement
	-{static} solenoidOvertempTaskHandle : static TaskHandle_t
	+{static} setup() : void
	-{static} solenoid_overtemp_task(void* pvParameters) : void
}


class Player {
	+Player(int stepPin, int dirPin, uint8_t address, bool motorShaft, int solenoidPin, int beamSwitchRPin)
	+~Player()
	+beamSwitch : BeamSwitch
	+actuator : LinearActuator
	+solenoid : Solenoid
	+loop() : int
	+setup() : int
}


class RaspComManagement {
	+RaspComManagement(int baudRate)
	+~RaspComManagement()
	+setup() : void
}


class Solenoid {
	+Solenoid(int solenoidPin ), ~Solenoid ()
	+over_temp_protect(uint64_t currentTime) : bool
	-currentTemp : float
	+get_power() : float
	+get_state() : float
	-state : float
	-state : float
	-state : float
	-solenoidPin : int
	-{static} maxTemp : static float
	-lastTempCheck : uint64_t
	+activate() : void
	+deactivate() : void
	+set_power(int power) : void
	+setup() : void
}


namespace RunStatus {
	enum Status {
		COLLISION
		IDLE
		RUNNING
	}
}










BeamSwitch o- - BeamSwitch


LinearActuator o- - LinearActuator


LinearActuator *- - RunStatus.Status


PING "4" *- - Player


PING *- - RaspComManagement


Player *- - BeamSwitch


Player *- - LinearActuator


Player *- - Solenoid









@enduml

PlantUML version 1.2020.02(Sun Mar 01 10:22:07 UTC 2020)
(GPL source distribution)
Java Runtime: OpenJDK Runtime Environment
JVM: OpenJDK 64-Bit Server VM
Java Version: 17.0.13+11
Operating System: Linux
Default Encoding: UTF-8
Language: en
Country: null
--></g></svg>