<?xml version="1.0" encoding="UTF-8" standalone="no"?><svg xmlns="http://www.w3.org/2000/svg" xmlns:xlink="http://www.w3.org/1999/xlink" contentScriptType="application/ecmascript" contentStyleType="text/css" height="1048px" preserveAspectRatio="none" style="width:1114px;height:1048px;" version="1.1" viewBox="0 0 1114 1048" width="1114px" zoomAndPan="magnify"><defs><filter height="300%" id="f15dnsjs714dll" width="300%" x="-1" y="-1"><feGaussianBlur result="blurOut" stdDeviation="2.0"/><feColorMatrix in="blurOut" result="blurOut2" type="matrix" values="0 0 0 0 0 0 0 0 0 0 0 0 0 0 0 0 0 0 .4 0"/><feOffset dx="4.0" dy="4.0" in="blurOut2" result="blurOut3"/><feBlend in="SourceGraphic" in2="blurOut3" mode="normal"/></filter></defs><g><!--MD5=[845caa0904f1411049f3b69efd709ed4]
cluster RunStatus--><polygon fill="#FFFFFF" filter="url(#f15dnsjs714dll)" points="485.5,899,571.5,899,578.5,921.2969,591.5,921.2969,591.5,1036,485.5,1036,485.5,899" style="stroke: #000000; stroke-width: 1.5;"/><line style="stroke: #000000; stroke-width: 1.5;" x1="485.5" x2="578.5" y1="921.2969" y2="921.2969"/><text fill="#000000" font-family="sans-serif" font-size="14" font-weight="bold" lengthAdjust="spacingAndGlyphs" textLength="80" x="489.5" y="913.9951">RunStatus</text><!--MD5=[8af91c3b66a8a7491d8ba0f9fda35749]
class RunStatus.Status--><rect fill="#FEFECE" filter="url(#f15dnsjs714dll)" height="86.4141" id="RunStatus.Status" style="stroke: #A80036; stroke-width: 1.5;" width="73" x="502" y="934"/><ellipse cx="517" cy="950" fill="#EB937F" rx="11" ry="11" style="stroke: #A80036; stroke-width: 1.0;"/><path d="M521.1094,956 L513.3906,956 L513.3906,943.6094 L521.1094,943.6094 L521.1094,945.7656 L515.8438,945.7656 L515.8438,948.4375 L520.6094,948.4375 L520.6094,950.5938 L515.8438,950.5938 L515.8438,953.8438 L521.1094,953.8438 L521.1094,956 Z "/><text fill="#000000" font-family="sans-serif" font-size="12" lengthAdjust="spacingAndGlyphs" textLength="41" x="531" y="954.1543">Status</text><line style="stroke: #A80036; stroke-width: 1.5;" x1="503" x2="574" y1="966" y2="966"/><text fill="#000000" font-family="sans-serif" font-size="11" lengthAdjust="spacingAndGlyphs" textLength="60" x="508" y="980.2104">COLLISION</text><text fill="#000000" font-family="sans-serif" font-size="11" lengthAdjust="spacingAndGlyphs" textLength="24" x="508" y="993.0151">IDLE</text><text fill="#000000" font-family="sans-serif" font-size="11" lengthAdjust="spacingAndGlyphs" textLength="51" x="508" y="1005.8198">RUNNING</text><line style="stroke: #A80036; stroke-width: 1.5;" x1="503" x2="574" y1="1012.4141" y2="1012.4141"/><!--MD5=[68fcd56d8725033e494281892f0f8fc2]
class BeamSwitch--><rect fill="#FEFECE" filter="url(#f15dnsjs714dll)" height="240.0703" id="BeamSwitch" style="stroke: #A80036; stroke-width: 1.5;" width="263" x="6" y="538"/><ellipse cx="95.75" cy="554" fill="#ADD1B2" rx="11" ry="11" style="stroke: #A80036; stroke-width: 1.0;"/><path d="M98.7188,559.6406 Q98.1406,559.9375 97.5,560.0781 Q96.8594,560.2344 96.1563,560.2344 Q93.6563,560.2344 92.3281,558.5938 Q91.0156,556.9375 91.0156,553.8125 Q91.0156,550.6875 92.3281,549.0313 Q93.6563,547.375 96.1563,547.375 Q96.8594,547.375 97.5,547.5313 Q98.1563,547.6875 98.7188,547.9844 L98.7188,550.7031 Q98.0938,550.125 97.5,549.8594 Q96.9063,549.5781 96.2813,549.5781 Q94.9375,549.5781 94.25,550.6563 Q93.5625,551.7188 93.5625,553.8125 Q93.5625,555.9063 94.25,556.9844 Q94.9375,558.0469 96.2813,558.0469 Q96.9063,558.0469 97.5,557.7813 Q98.0938,557.5 98.7188,556.9219 L98.7188,559.6406 Z "/><text fill="#000000" font-family="sans-serif" font-size="12" lengthAdjust="spacingAndGlyphs" textLength="75" x="116.25" y="558.1543">BeamSwitch</text><line style="stroke: #A80036; stroke-width: 1.5;" x1="7" x2="268" y1="570" y2="570"/><rect fill="none" height="6" style="stroke: #C82930; stroke-width: 1.0;" width="6" x="14" y="578"/><text fill="#000000" font-family="sans-serif" font-size="11" lengthAdjust="spacingAndGlyphs" textLength="65" x="26" y="584.2104">state : bool</text><rect fill="none" height="6" style="stroke: #C82930; stroke-width: 1.0;" width="6" x="14" y="590.8047"/><text fill="#000000" font-family="sans-serif" font-size="11" lengthAdjust="spacingAndGlyphs" textLength="154" x="26" y="597.0151">beamSwitchRPin : const int</text><rect fill="none" height="6" style="stroke: #C82930; stroke-width: 1.0;" width="6" x="14" y="603.6094"/><text fill="#000000" font-family="sans-serif" font-size="11" lengthAdjust="spacingAndGlyphs" textLength="118" x="26" y="609.8198">lastReceiveTime : int</text><rect fill="none" height="6" style="stroke: #C82930; stroke-width: 1.0;" width="6" x="14" y="616.4141"/><text fill="#000000" font-family="sans-serif" font-size="11" lengthAdjust="spacingAndGlyphs" text-decoration="underline" textLength="234" x="26" y="622.6245">checkAllTaskHandle : static TaskHandle_t</text><rect fill="none" height="6" style="stroke: #C82930; stroke-width: 1.0;" width="6" x="14" y="629.2188"/><text fill="#000000" font-family="sans-serif" font-size="11" lengthAdjust="spacingAndGlyphs" text-decoration="underline" textLength="190" x="26" y="635.4292">all : static Vector&lt;BeamSwitch*&gt;</text><rect fill="none" height="6" style="stroke: #C82930; stroke-width: 1.0;" width="6" x="14" y="642.0234"/><text fill="#000000" font-family="sans-serif" font-size="11" lengthAdjust="spacingAndGlyphs" text-decoration="underline" textLength="96" x="26" y="648.2339">emit : static bool</text><line style="stroke: #A80036; stroke-width: 1.5;" x1="7" x2="268" y1="654.8281" y2="654.8281"/><ellipse cx="17" cy="665.8281" fill="#84BE84" rx="3" ry="3" style="stroke: #038048; stroke-width: 1.0;"/><text fill="#000000" font-family="sans-serif" font-size="11" lengthAdjust="spacingAndGlyphs" textLength="189" x="26" y="669.0386">BeamSwitch(int beamSwitchRPin)</text><ellipse cx="17" cy="678.6328" fill="#84BE84" rx="3" ry="3" style="stroke: #038048; stroke-width: 1.0;"/><text fill="#000000" font-family="sans-serif" font-size="11" lengthAdjust="spacingAndGlyphs" textLength="87" x="26" y="681.8433">~BeamSwitch()</text><rect fill="#F24D5C" height="6" style="stroke: #C82930; stroke-width: 1.0;" width="6" x="14" y="688.4375"/><text fill="#000000" font-family="sans-serif" font-size="11" lengthAdjust="spacingAndGlyphs" textLength="194" x="26" y="694.6479">check(uint64_t currentTime) : bool</text><ellipse cx="17" cy="704.2422" fill="#84BE84" rx="3" ry="3" style="stroke: #038048; stroke-width: 1.0;"/><text fill="#000000" font-family="sans-serif" font-size="11" lengthAdjust="spacingAndGlyphs" textLength="97" x="26" y="707.4526">get_state() : bool</text><rect fill="#F24D5C" height="6" style="stroke: #C82930; stroke-width: 1.0;" width="6" x="14" y="714.0469"/><text fill="#000000" font-family="sans-serif" font-size="11" lengthAdjust="spacingAndGlyphs" text-decoration="underline" textLength="212" x="26" y="720.2573">check_all(uint64_t currentTime) : void</text><rect fill="#F24D5C" height="6" style="stroke: #C82930; stroke-width: 1.0;" width="6" x="14" y="726.8516"/><text fill="#000000" font-family="sans-serif" font-size="11" lengthAdjust="spacingAndGlyphs" text-decoration="underline" textLength="237" x="26" y="733.062">check_all_task(void* pvParameters) : void</text><ellipse cx="17" cy="742.6563" fill="#84BE84" rx="3" ry="3" style="stroke: #038048; stroke-width: 1.0;"/><text fill="#000000" font-family="sans-serif" font-size="11" lengthAdjust="spacingAndGlyphs" text-decoration="underline" textLength="75" x="26" y="745.8667">setup() : void</text><ellipse cx="17" cy="755.4609" fill="#84BE84" rx="3" ry="3" style="stroke: #038048; stroke-width: 1.0;"/><text fill="#000000" font-family="sans-serif" font-size="11" lengthAdjust="spacingAndGlyphs" text-decoration="underline" textLength="101" x="26" y="758.6714">start_emit() : void</text><ellipse cx="17" cy="768.2656" fill="#84BE84" rx="3" ry="3" style="stroke: #038048; stroke-width: 1.0;"/><text fill="#000000" font-family="sans-serif" font-size="11" lengthAdjust="spacingAndGlyphs" text-decoration="underline" textLength="99" x="26" y="771.4761">stop_emit() : void</text><!--MD5=[0ce16f4c3d7cb0b09c708de0157594c0]
class LinearActuator--><rect fill="#FEFECE" filter="url(#f15dnsjs714dll)" height="432.1406" id="LinearActuator" style="stroke: #A80036; stroke-width: 1.5;" width="433" x="322" y="442"/><ellipse cx="488.25" cy="458" fill="#ADD1B2" rx="11" ry="11" style="stroke: #A80036; stroke-width: 1.0;"/><path d="M491.2188,463.6406 Q490.6406,463.9375 490,464.0781 Q489.3594,464.2344 488.6563,464.2344 Q486.1563,464.2344 484.8281,462.5938 Q483.5156,460.9375 483.5156,457.8125 Q483.5156,454.6875 484.8281,453.0313 Q486.1563,451.375 488.6563,451.375 Q489.3594,451.375 490,451.5313 Q490.6563,451.6875 491.2188,451.9844 L491.2188,454.7031 Q490.5938,454.125 490,453.8594 Q489.4063,453.5781 488.7813,453.5781 Q487.4375,453.5781 486.75,454.6563 Q486.0625,455.7188 486.0625,457.8125 Q486.0625,459.9063 486.75,460.9844 Q487.4375,462.0469 488.7813,462.0469 Q489.4063,462.0469 490,461.7813 Q490.5938,461.5 491.2188,460.9219 L491.2188,463.6406 Z "/><text fill="#000000" font-family="sans-serif" font-size="12" lengthAdjust="spacingAndGlyphs" textLength="92" x="508.75" y="462.1543">LinearActuator</text><line style="stroke: #A80036; stroke-width: 1.5;" x1="323" x2="754" y1="474" y2="474"/><rect fill="none" height="6" style="stroke: #C82930; stroke-width: 1.0;" width="6" x="330" y="482"/><text fill="#000000" font-family="sans-serif" font-size="11" lengthAdjust="spacingAndGlyphs" textLength="120" x="342" y="488.2104">motor : AccelStepper</text><rect fill="none" height="6" style="stroke: #C82930; stroke-width: 1.0;" width="6" x="330" y="494.8047"/><text fill="#000000" font-family="sans-serif" font-size="11" lengthAdjust="spacingAndGlyphs" textLength="151" x="342" y="501.0151">status : RunStatus::Status</text><rect fill="none" height="6" style="stroke: #C82930; stroke-width: 1.0;" width="6" x="330" y="507.6094"/><text fill="#000000" font-family="sans-serif" font-size="11" lengthAdjust="spacingAndGlyphs" textLength="97" x="342" y="513.8198">driver : TMC2209</text><rect fill="none" height="6" style="stroke: #C82930; stroke-width: 1.0;" width="6" x="330" y="520.4141"/><text fill="#000000" font-family="sans-serif" font-size="11" lengthAdjust="spacingAndGlyphs" textLength="82" x="342" y="526.6245">leftLimit : float</text><rect fill="none" height="6" style="stroke: #C82930; stroke-width: 1.0;" width="6" x="330" y="533.2188"/><text fill="#000000" font-family="sans-serif" font-size="11" lengthAdjust="spacingAndGlyphs" textLength="90" x="342" y="539.4292">rightLimit : float</text><line style="stroke: #A80036; stroke-width: 1.5;" x1="323" x2="754" y1="546.0234" y2="546.0234"/><ellipse cx="333" cy="557.0234" fill="#84BE84" rx="3" ry="3" style="stroke: #038048; stroke-width: 1.0;"/><text fill="#000000" font-family="sans-serif" font-size="11" lengthAdjust="spacingAndGlyphs" textLength="407" x="342" y="560.2339">LinearActuator(int stepPin, int dirPin, TMC2209::SerialAddress address)</text><ellipse cx="333" cy="569.8281" fill="#84BE84" rx="3" ry="3" style="stroke: #038048; stroke-width: 1.0;"/><text fill="#000000" font-family="sans-serif" font-size="11" lengthAdjust="spacingAndGlyphs" textLength="99" x="342" y="573.0386">~LinearActuator()</text><ellipse cx="333" cy="582.6328" fill="#84BE84" rx="3" ry="3" style="stroke: #038048; stroke-width: 1.0;"/><text fill="#000000" font-family="sans-serif" font-size="11" lengthAdjust="spacingAndGlyphs" textLength="117" x="342" y="585.8433">calibrate_left() : bool</text><ellipse cx="333" cy="595.4375" fill="#84BE84" rx="3" ry="3" style="stroke: #038048; stroke-width: 1.0;"/><text fill="#000000" font-family="sans-serif" font-size="11" lengthAdjust="spacingAndGlyphs" textLength="125" x="342" y="598.6479">calibrate_right() : bool</text><ellipse cx="333" cy="608.2422" fill="#84BE84" rx="3" ry="3" style="stroke: #038048; stroke-width: 1.0;"/><text fill="#000000" font-family="sans-serif" font-size="11" lengthAdjust="spacingAndGlyphs" textLength="173" x="342" y="611.4526">check_right_calibration() : bool</text><ellipse cx="333" cy="621.0469" fill="#84BE84" rx="3" ry="3" style="stroke: #038048; stroke-width: 1.0;"/><text fill="#000000" font-family="sans-serif" font-size="11" lengthAdjust="spacingAndGlyphs" textLength="116" x="342" y="624.2573">is_calibrated() : bool</text><ellipse cx="333" cy="633.8516" fill="#84BE84" rx="3" ry="3" style="stroke: #038048; stroke-width: 1.0;"/><text fill="#000000" font-family="sans-serif" font-size="11" lengthAdjust="spacingAndGlyphs" textLength="140" x="342" y="637.062">is_left_calibrated() : bool</text><ellipse cx="333" cy="646.6563" fill="#84BE84" rx="3" ry="3" style="stroke: #038048; stroke-width: 1.0;"/><text fill="#000000" font-family="sans-serif" font-size="11" lengthAdjust="spacingAndGlyphs" textLength="148" x="342" y="649.8667">is_right_calibrated() : bool</text><ellipse cx="333" cy="659.4609" fill="#84BE84" rx="3" ry="3" style="stroke: #038048; stroke-width: 1.0;"/><text fill="#000000" font-family="sans-serif" font-size="11" lengthAdjust="spacingAndGlyphs" textLength="166" x="342" y="662.6714">move_to(float position) : bool</text><ellipse cx="333" cy="672.2656" fill="#84BE84" rx="3" ry="3" style="stroke: #038048; stroke-width: 1.0;"/><text fill="#000000" font-family="sans-serif" font-size="11" lengthAdjust="spacingAndGlyphs" textLength="101" x="342" y="675.4761">amplitude() : float</text><ellipse cx="333" cy="685.0703" fill="#84BE84" rx="3" ry="3" style="stroke: #038048; stroke-width: 1.0;"/><text fill="#000000" font-family="sans-serif" font-size="11" lengthAdjust="spacingAndGlyphs" textLength="161" x="342" y="688.2808">current_acceleration() : float</text><ellipse cx="333" cy="697.875" fill="#84BE84" rx="3" ry="3" style="stroke: #038048; stroke-width: 1.0;"/><text fill="#000000" font-family="sans-serif" font-size="11" lengthAdjust="spacingAndGlyphs" textLength="137" x="342" y="701.0854">current_position() : float</text><ellipse cx="333" cy="710.6797" fill="#84BE84" rx="3" ry="3" style="stroke: #038048; stroke-width: 1.0;"/><text fill="#000000" font-family="sans-serif" font-size="11" lengthAdjust="spacingAndGlyphs" textLength="127" x="342" y="713.8901">current_speed() : float</text><ellipse cx="333" cy="723.4844" fill="#84BE84" rx="3" ry="3" style="stroke: #038048; stroke-width: 1.0;"/><text fill="#000000" font-family="sans-serif" font-size="11" lengthAdjust="spacingAndGlyphs" textLength="110" x="342" y="726.6948">max_speed() : float</text><ellipse cx="333" cy="736.2891" fill="#84BE84" rx="3" ry="3" style="stroke: #038048; stroke-width: 1.0;"/><text fill="#000000" font-family="sans-serif" font-size="11" lengthAdjust="spacingAndGlyphs" textLength="53" x="342" y="739.4995">run() : int</text><ellipse cx="333" cy="749.0938" fill="#84BE84" rx="3" ry="3" style="stroke: #038048; stroke-width: 1.0;"/><text fill="#000000" font-family="sans-serif" font-size="11" lengthAdjust="spacingAndGlyphs" textLength="113" x="342" y="752.3042">instant_stop() : void</text><ellipse cx="333" cy="761.8984" fill="#84BE84" rx="3" ry="3" style="stroke: #038048; stroke-width: 1.0;"/><text fill="#000000" font-family="sans-serif" font-size="11" lengthAdjust="spacingAndGlyphs" textLength="98" x="342" y="765.1089">move_left() : void</text><ellipse cx="333" cy="774.7031" fill="#84BE84" rx="3" ry="3" style="stroke: #038048; stroke-width: 1.0;"/><text fill="#000000" font-family="sans-serif" font-size="11" lengthAdjust="spacingAndGlyphs" textLength="106" x="342" y="777.9136">move_right() : void</text><ellipse cx="333" cy="787.5078" fill="#84BE84" rx="3" ry="3" style="stroke: #038048; stroke-width: 1.0;"/><text fill="#000000" font-family="sans-serif" font-size="11" lengthAdjust="spacingAndGlyphs" textLength="234" x="342" y="790.7183">set_acceleration(float acceleration) : void</text><rect fill="#F24D5C" height="6" style="stroke: #C82930; stroke-width: 1.0;" width="6" x="330" y="797.3125"/><text fill="#000000" font-family="sans-serif" font-size="11" lengthAdjust="spacingAndGlyphs" textLength="233" x="342" y="803.5229">set_current_position(float position) : void</text><ellipse cx="333" cy="813.1172" fill="#84BE84" rx="3" ry="3" style="stroke: #038048; stroke-width: 1.0;"/><text fill="#000000" font-family="sans-serif" font-size="11" lengthAdjust="spacingAndGlyphs" textLength="196" x="342" y="816.3276">set_max_speed(float speed) : void</text><ellipse cx="333" cy="825.9219" fill="#84BE84" rx="3" ry="3" style="stroke: #038048; stroke-width: 1.0;"/><text fill="#000000" font-family="sans-serif" font-size="11" lengthAdjust="spacingAndGlyphs" textLength="166" x="342" y="829.1323">set_speed(float speed) : void</text><ellipse cx="333" cy="838.7266" fill="#84BE84" rx="3" ry="3" style="stroke: #038048; stroke-width: 1.0;"/><text fill="#000000" font-family="sans-serif" font-size="11" lengthAdjust="spacingAndGlyphs" textLength="75" x="342" y="841.937">setup() : void</text><ellipse cx="333" cy="851.5313" fill="#84BE84" rx="3" ry="3" style="stroke: #038048; stroke-width: 1.0;"/><text fill="#000000" font-family="sans-serif" font-size="11" lengthAdjust="spacingAndGlyphs" text-decoration="underline" textLength="114" x="342" y="854.7417">setup_Serial() : void</text><ellipse cx="333" cy="864.3359" fill="#84BE84" rx="3" ry="3" style="stroke: #038048; stroke-width: 1.0;"/><text fill="#000000" font-family="sans-serif" font-size="11" lengthAdjust="spacingAndGlyphs" textLength="68" x="342" y="867.5464">stop() : void</text><!--MD5=[31b2194eebf44df4ffa280c9796f03c1]
class PING--><rect fill="#FEFECE" filter="url(#f15dnsjs714dll)" height="176.0469" id="PING" style="stroke: #A80036; stroke-width: 1.5;" width="320" x="602.5" y="8"/><ellipse cx="743.75" cy="24" fill="#ADD1B2" rx="11" ry="11" style="stroke: #A80036; stroke-width: 1.0;"/><path d="M746.7188,29.6406 Q746.1406,29.9375 745.5,30.0781 Q744.8594,30.2344 744.1563,30.2344 Q741.6563,30.2344 740.3281,28.5938 Q739.0156,26.9375 739.0156,23.8125 Q739.0156,20.6875 740.3281,19.0313 Q741.6563,17.375 744.1563,17.375 Q744.8594,17.375 745.5,17.5313 Q746.1563,17.6875 746.7188,17.9844 L746.7188,20.7031 Q746.0938,20.125 745.5,19.8594 Q744.9063,19.5781 744.2813,19.5781 Q742.9375,19.5781 742.25,20.6563 Q741.5625,21.7188 741.5625,23.8125 Q741.5625,25.9063 742.25,26.9844 Q742.9375,28.0469 744.2813,28.0469 Q744.9063,28.0469 745.5,27.7813 Q746.0938,27.5 746.7188,26.9219 L746.7188,29.6406 Z "/><text fill="#000000" font-family="sans-serif" font-size="12" lengthAdjust="spacingAndGlyphs" textLength="29" x="764.25" y="28.1543">PING</text><line style="stroke: #A80036; stroke-width: 1.5;" x1="603.5" x2="921.5" y1="40" y2="40"/><rect fill="none" height="6" style="stroke: #C82930; stroke-width: 1.0;" width="6" x="610.5" y="48"/><text fill="#000000" font-family="sans-serif" font-size="11" lengthAdjust="spacingAndGlyphs" text-decoration="underline" textLength="124" x="622.5" y="54.2104">player1 : static Player</text><rect fill="none" height="6" style="stroke: #C82930; stroke-width: 1.0;" width="6" x="610.5" y="60.8047"/><text fill="#000000" font-family="sans-serif" font-size="11" lengthAdjust="spacingAndGlyphs" text-decoration="underline" textLength="124" x="622.5" y="67.0151">player2 : static Player</text><rect fill="none" height="6" style="stroke: #C82930; stroke-width: 1.0;" width="6" x="610.5" y="73.6094"/><text fill="#000000" font-family="sans-serif" font-size="11" lengthAdjust="spacingAndGlyphs" text-decoration="underline" textLength="124" x="622.5" y="79.8198">player3 : static Player</text><rect fill="none" height="6" style="stroke: #C82930; stroke-width: 1.0;" width="6" x="610.5" y="86.4141"/><text fill="#000000" font-family="sans-serif" font-size="11" lengthAdjust="spacingAndGlyphs" text-decoration="underline" textLength="124" x="622.5" y="92.6245">player4 : static Player</text><rect fill="none" height="6" style="stroke: #C82930; stroke-width: 1.0;" width="6" x="610.5" y="99.2188"/><text fill="#000000" font-family="sans-serif" font-size="11" lengthAdjust="spacingAndGlyphs" text-decoration="underline" textLength="275" x="622.5" y="105.4292">raspComManager : static RaspComManagement</text><rect fill="none" height="6" style="stroke: #C82930; stroke-width: 1.0;" width="6" x="610.5" y="112.0234"/><text fill="#000000" font-family="sans-serif" font-size="11" lengthAdjust="spacingAndGlyphs" text-decoration="underline" textLength="293" x="622.5" y="118.2339">solenoidOvertempTaskHandle : static TaskHandle_t</text><line style="stroke: #A80036; stroke-width: 1.5;" x1="603.5" x2="921.5" y1="124.8281" y2="124.8281"/><rect fill="#F24D5C" height="6" style="stroke: #C82930; stroke-width: 1.0;" width="6" x="610.5" y="132.8281"/><text fill="#000000" font-family="sans-serif" font-size="11" lengthAdjust="spacingAndGlyphs" textLength="35" x="622.5" y="139.0386">PING()</text><ellipse cx="613.5" cy="148.6328" fill="#84BE84" rx="3" ry="3" style="stroke: #038048; stroke-width: 1.0;"/><text fill="#000000" font-family="sans-serif" font-size="11" lengthAdjust="spacingAndGlyphs" textLength="44" x="622.5" y="151.8433">~PING()</text><ellipse cx="613.5" cy="161.4375" fill="#84BE84" rx="3" ry="3" style="stroke: #038048; stroke-width: 1.0;"/><text fill="#000000" font-family="sans-serif" font-size="11" lengthAdjust="spacingAndGlyphs" text-decoration="underline" textLength="75" x="622.5" y="164.6479">setup() : void</text><rect fill="#F24D5C" height="6" style="stroke: #C82930; stroke-width: 1.0;" width="6" x="610.5" y="171.2422"/><text fill="#000000" font-family="sans-serif" font-size="11" lengthAdjust="spacingAndGlyphs" text-decoration="underline" textLength="294" x="622.5" y="177.4526">solenoid_overtemp_task(void* pvParameters) : void</text><!--MD5=[2cb47ba637a0d19583e6199456f6ad0b]
class Player--><rect fill="#FEFECE" filter="url(#f15dnsjs714dll)" height="137.6328" id="Player" style="stroke: #A80036; stroke-width: 1.5;" width="596" x="240.5" y="244"/><ellipse cx="515.25" cy="260" fill="#ADD1B2" rx="11" ry="11" style="stroke: #A80036; stroke-width: 1.0;"/><path d="M518.2188,265.6406 Q517.6406,265.9375 517,266.0781 Q516.3594,266.2344 515.6563,266.2344 Q513.1563,266.2344 511.8281,264.5938 Q510.5156,262.9375 510.5156,259.8125 Q510.5156,256.6875 511.8281,255.0313 Q513.1563,253.375 515.6563,253.375 Q516.3594,253.375 517,253.5313 Q517.6563,253.6875 518.2188,253.9844 L518.2188,256.7031 Q517.5938,256.125 517,255.8594 Q516.4063,255.5781 515.7813,255.5781 Q514.4375,255.5781 513.75,256.6563 Q513.0625,257.7188 513.0625,259.8125 Q513.0625,261.9063 513.75,262.9844 Q514.4375,264.0469 515.7813,264.0469 Q516.4063,264.0469 517,263.7813 Q517.5938,263.5 518.2188,262.9219 L518.2188,265.6406 Z "/><text fill="#000000" font-family="sans-serif" font-size="12" lengthAdjust="spacingAndGlyphs" textLength="38" x="535.75" y="264.1543">Player</text><line style="stroke: #A80036; stroke-width: 1.5;" x1="241.5" x2="835.5" y1="276" y2="276"/><ellipse cx="251.5" cy="287" fill="none" rx="3" ry="3" style="stroke: #038048; stroke-width: 1.0;"/><text fill="#000000" font-family="sans-serif" font-size="11" lengthAdjust="spacingAndGlyphs" textLength="151" x="260.5" y="290.2104">beamSwitch : BeamSwitch</text><ellipse cx="251.5" cy="299.8047" fill="none" rx="3" ry="3" style="stroke: #038048; stroke-width: 1.0;"/><text fill="#000000" font-family="sans-serif" font-size="11" lengthAdjust="spacingAndGlyphs" textLength="141" x="260.5" y="303.0151">actuator : LinearActuator</text><ellipse cx="251.5" cy="312.6094" fill="none" rx="3" ry="3" style="stroke: #038048; stroke-width: 1.0;"/><text fill="#000000" font-family="sans-serif" font-size="11" lengthAdjust="spacingAndGlyphs" textLength="109" x="260.5" y="315.8198">solenoid : Solenoid</text><line style="stroke: #A80036; stroke-width: 1.5;" x1="241.5" x2="835.5" y1="322.4141" y2="322.4141"/><ellipse cx="251.5" cy="333.4141" fill="#84BE84" rx="3" ry="3" style="stroke: #038048; stroke-width: 1.0;"/><text fill="#000000" font-family="sans-serif" font-size="11" lengthAdjust="spacingAndGlyphs" textLength="570" x="260.5" y="336.6245">Player(int stepPin, int dirPin, TMC2209::SerialAddress address, int solenoidPin, int beamSwitchRPin)</text><ellipse cx="251.5" cy="346.2188" fill="#84BE84" rx="3" ry="3" style="stroke: #038048; stroke-width: 1.0;"/><text fill="#000000" font-family="sans-serif" font-size="11" lengthAdjust="spacingAndGlyphs" textLength="52" x="260.5" y="349.4292">~Player()</text><ellipse cx="251.5" cy="359.0234" fill="#84BE84" rx="3" ry="3" style="stroke: #038048; stroke-width: 1.0;"/><text fill="#000000" font-family="sans-serif" font-size="11" lengthAdjust="spacingAndGlyphs" textLength="58" x="260.5" y="362.2339">loop() : int</text><ellipse cx="251.5" cy="371.8281" fill="#84BE84" rx="3" ry="3" style="stroke: #038048; stroke-width: 1.0;"/><text fill="#000000" font-family="sans-serif" font-size="11" lengthAdjust="spacingAndGlyphs" textLength="66" x="260.5" y="375.0386">setup() : int</text><!--MD5=[760b531b568e8db29d8104fa603dea6e]
class RaspComManagement--><rect fill="#FEFECE" filter="url(#f15dnsjs714dll)" height="86.4141" id="RaspComManagement" style="stroke: #A80036; stroke-width: 1.5;" width="232" x="871.5" y="270"/><ellipse cx="913.5" cy="286" fill="#ADD1B2" rx="11" ry="11" style="stroke: #A80036; stroke-width: 1.0;"/><path d="M916.4688,291.6406 Q915.8906,291.9375 915.25,292.0781 Q914.6094,292.2344 913.9063,292.2344 Q911.4063,292.2344 910.0781,290.5938 Q908.7656,288.9375 908.7656,285.8125 Q908.7656,282.6875 910.0781,281.0313 Q911.4063,279.375 913.9063,279.375 Q914.6094,279.375 915.25,279.5313 Q915.9063,279.6875 916.4688,279.9844 L916.4688,282.7031 Q915.8438,282.125 915.25,281.8594 Q914.6563,281.5781 914.0313,281.5781 Q912.6875,281.5781 912,282.6563 Q911.3125,283.7188 911.3125,285.8125 Q911.3125,287.9063 912,288.9844 Q912.6875,290.0469 914.0313,290.0469 Q914.6563,290.0469 915.25,289.7813 Q915.8438,289.5 916.4688,288.9219 L916.4688,291.6406 Z "/><text fill="#000000" font-family="sans-serif" font-size="12" lengthAdjust="spacingAndGlyphs" textLength="140" x="933.5" y="290.1543">RaspComManagement</text><line style="stroke: #A80036; stroke-width: 1.5;" x1="872.5" x2="1102.5" y1="302" y2="302"/><line style="stroke: #A80036; stroke-width: 1.5;" x1="872.5" x2="1102.5" y1="310" y2="310"/><ellipse cx="882.5" cy="321" fill="#84BE84" rx="3" ry="3" style="stroke: #038048; stroke-width: 1.0;"/><text fill="#000000" font-family="sans-serif" font-size="11" lengthAdjust="spacingAndGlyphs" textLength="206" x="891.5" y="324.2104">RaspComManagement(int baudRate)</text><ellipse cx="882.5" cy="333.8047" fill="#84BE84" rx="3" ry="3" style="stroke: #038048; stroke-width: 1.0;"/><text fill="#000000" font-family="sans-serif" font-size="11" lengthAdjust="spacingAndGlyphs" textLength="144" x="891.5" y="337.0151">~RaspComManagement()</text><ellipse cx="882.5" cy="346.6094" fill="#84BE84" rx="3" ry="3" style="stroke: #038048; stroke-width: 1.0;"/><text fill="#000000" font-family="sans-serif" font-size="11" lengthAdjust="spacingAndGlyphs" textLength="75" x="891.5" y="349.8198">setup() : void</text><!--MD5=[774f4e82a168727ea092e2c64952d764]
class Solenoid--><rect fill="#FEFECE" filter="url(#f15dnsjs714dll)" height="240.0703" id="Solenoid" style="stroke: #A80036; stroke-width: 1.5;" width="294" x="790.5" y="538"/><ellipse cx="906.25" cy="554" fill="#ADD1B2" rx="11" ry="11" style="stroke: #A80036; stroke-width: 1.0;"/><path d="M909.2188,559.6406 Q908.6406,559.9375 908,560.0781 Q907.3594,560.2344 906.6563,560.2344 Q904.1563,560.2344 902.8281,558.5938 Q901.5156,556.9375 901.5156,553.8125 Q901.5156,550.6875 902.8281,549.0313 Q904.1563,547.375 906.6563,547.375 Q907.3594,547.375 908,547.5313 Q908.6563,547.6875 909.2188,547.9844 L909.2188,550.7031 Q908.5938,550.125 908,549.8594 Q907.4063,549.5781 906.7813,549.5781 Q905.4375,549.5781 904.75,550.6563 Q904.0625,551.7188 904.0625,553.8125 Q904.0625,555.9063 904.75,556.9844 Q905.4375,558.0469 906.7813,558.0469 Q907.4063,558.0469 908,557.7813 Q908.5938,557.5 909.2188,556.9219 L909.2188,559.6406 Z "/><text fill="#000000" font-family="sans-serif" font-size="12" lengthAdjust="spacingAndGlyphs" textLength="54" x="926.75" y="558.1543">Solenoid</text><line style="stroke: #A80036; stroke-width: 1.5;" x1="791.5" x2="1083.5" y1="570" y2="570"/><rect fill="none" height="6" style="stroke: #C82930; stroke-width: 1.0;" width="6" x="798.5" y="578"/><text fill="#000000" font-family="sans-serif" font-size="11" lengthAdjust="spacingAndGlyphs" textLength="110" x="810.5" y="584.2104">currentTemp : float</text><rect fill="none" height="6" style="stroke: #C82930; stroke-width: 1.0;" width="6" x="798.5" y="590.8047"/><text fill="#000000" font-family="sans-serif" font-size="11" lengthAdjust="spacingAndGlyphs" textLength="66" x="810.5" y="597.0151">state : float</text><rect fill="none" height="6" style="stroke: #C82930; stroke-width: 1.0;" width="6" x="798.5" y="603.6094"/><text fill="#000000" font-family="sans-serif" font-size="11" lengthAdjust="spacingAndGlyphs" textLength="66" x="810.5" y="609.8198">state : float</text><rect fill="none" height="6" style="stroke: #C82930; stroke-width: 1.0;" width="6" x="798.5" y="616.4141"/><text fill="#000000" font-family="sans-serif" font-size="11" lengthAdjust="spacingAndGlyphs" textLength="66" x="810.5" y="622.6245">state : float</text><rect fill="none" height="6" style="stroke: #C82930; stroke-width: 1.0;" width="6" x="798.5" y="629.2188"/><text fill="#000000" font-family="sans-serif" font-size="11" lengthAdjust="spacingAndGlyphs" textLength="91" x="810.5" y="635.4292">solenoidPin : int</text><rect fill="none" height="6" style="stroke: #C82930; stroke-width: 1.0;" width="6" x="798.5" y="642.0234"/><text fill="#000000" font-family="sans-serif" font-size="11" lengthAdjust="spacingAndGlyphs" text-decoration="underline" textLength="128" x="810.5" y="648.2339">maxTemp : static float</text><rect fill="none" height="6" style="stroke: #C82930; stroke-width: 1.0;" width="6" x="798.5" y="654.8281"/><text fill="#000000" font-family="sans-serif" font-size="11" lengthAdjust="spacingAndGlyphs" textLength="144" x="810.5" y="661.0386">lastTempCheck : uint64_t</text><line style="stroke: #A80036; stroke-width: 1.5;" x1="791.5" x2="1083.5" y1="667.6328" y2="667.6328"/><ellipse cx="801.5" cy="678.6328" fill="#84BE84" rx="3" ry="3" style="stroke: #038048; stroke-width: 1.0;"/><text fill="#000000" font-family="sans-serif" font-size="11" lengthAdjust="spacingAndGlyphs" textLength="222" x="810.5" y="681.8433">Solenoid(int solenoidPin ), ~Solenoid ()</text><ellipse cx="801.5" cy="691.4375" fill="#84BE84" rx="3" ry="3" style="stroke: #038048; stroke-width: 1.0;"/><text fill="#000000" font-family="sans-serif" font-size="11" lengthAdjust="spacingAndGlyphs" textLength="268" x="810.5" y="694.6479">over_temp_protect(uint64_t currentTime) : bool</text><ellipse cx="801.5" cy="704.2422" fill="#84BE84" rx="3" ry="3" style="stroke: #038048; stroke-width: 1.0;"/><text fill="#000000" font-family="sans-serif" font-size="11" lengthAdjust="spacingAndGlyphs" textLength="104" x="810.5" y="707.4526">get_power() : float</text><ellipse cx="801.5" cy="717.0469" fill="#84BE84" rx="3" ry="3" style="stroke: #038048; stroke-width: 1.0;"/><text fill="#000000" font-family="sans-serif" font-size="11" lengthAdjust="spacingAndGlyphs" textLength="98" x="810.5" y="720.2573">get_state() : float</text><ellipse cx="801.5" cy="729.8516" fill="#84BE84" rx="3" ry="3" style="stroke: #038048; stroke-width: 1.0;"/><text fill="#000000" font-family="sans-serif" font-size="11" lengthAdjust="spacingAndGlyphs" textLength="87" x="810.5" y="733.062">activate() : void</text><ellipse cx="801.5" cy="742.6563" fill="#84BE84" rx="3" ry="3" style="stroke: #038048; stroke-width: 1.0;"/><text fill="#000000" font-family="sans-serif" font-size="11" lengthAdjust="spacingAndGlyphs" textLength="101" x="810.5" y="745.8667">deactivate() : void</text><ellipse cx="801.5" cy="755.4609" fill="#84BE84" rx="3" ry="3" style="stroke: #038048; stroke-width: 1.0;"/><text fill="#000000" font-family="sans-serif" font-size="11" lengthAdjust="spacingAndGlyphs" textLength="155" x="810.5" y="758.6714">set_power(int power) : void</text><ellipse cx="801.5" cy="768.2656" fill="#84BE84" rx="3" ry="3" style="stroke: #038048; stroke-width: 1.0;"/><text fill="#000000" font-family="sans-serif" font-size="11" lengthAdjust="spacingAndGlyphs" textLength="75" x="810.5" y="771.4761">setup() : void</text><!--MD5=[318cb0c4fbc137e6ed4fa6d91664b070]
reverse link BeamSwitch to BeamSwitch--><path d="M280.83,609.42 C295,619.16 304,635.36 304,658 C304,686.42 289.82,704.67 269.06,712.78 " fill="none" id="BeamSwitch&lt;-BeamSwitch" style="stroke: #A80036; stroke-width: 1.0;"/><polygon fill="#FFFFFF" points="269.06,603.22,272.5107,609.5519,279.6827,608.8019,276.232,602.47,269.06,603.22" style="stroke: #A80036; stroke-width: 1.0;"/><!--MD5=[8d8ed2d26b7338aefecda9fd8d1473bd]
reverse link LinearActuator to RunStatus.Status--><path d="M538.5,887.45 C538.5,904.63 538.5,920.44 538.5,933.8 " fill="none" id="LinearActuator&lt;-RunStatus.Status" style="stroke: #A80036; stroke-width: 1.0;"/><polygon fill="#A80036" points="538.5,874.39,534.5,880.39,538.5,886.39,542.5,880.39,538.5,874.39" style="stroke: #A80036; stroke-width: 1.0;"/><!--MD5=[3d3440c247ea6d9549ddae07c5b26dc8]
reverse link PING to Player--><path d="M661.93,193.53 C644.23,210.52 626.14,227.88 609.46,243.89 " fill="none" id="PING&lt;-Player" style="stroke: #A80036; stroke-width: 1.0;"/><polygon fill="#A80036" points="671.71,184.14,664.6128,185.4166,663.0615,192.4589,670.1587,191.1823,671.71,184.14" style="stroke: #A80036; stroke-width: 1.0;"/><text fill="#000000" font-family="sans-serif" font-size="13" lengthAdjust="spacingAndGlyphs" textLength="8" x="655.8602" y="204.1306">4</text><!--MD5=[e09b457801a70dba8834c32de8f4d06f]
reverse link PING to RaspComManagement--><path d="M863.18,193.2 C891.29,220.07 920.4,247.89 943.38,269.84 " fill="none" id="PING&lt;-RaspComManagement" style="stroke: #A80036; stroke-width: 1.0;"/><polygon fill="#A80036" points="853.69,184.14,855.2687,191.1762,862.3709,192.4251,860.7921,185.3889,853.69,184.14" style="stroke: #A80036; stroke-width: 1.0;"/><!--MD5=[8974d906f5436deded3f8d9665c498e8]
reverse link Player to BeamSwitch--><path d="M380.59,388.71 C353.93,404.52 327.48,422.43 304.5,442 C272.12,469.58 241.86,504.34 216.24,537.83 " fill="none" id="Player&lt;-BeamSwitch" style="stroke: #A80036; stroke-width: 1.0;"/><polygon fill="#A80036" points="392.02,382.06,384.8227,381.6139,381.6427,388.0859,388.84,388.5321,392.02,382.06" style="stroke: #A80036; stroke-width: 1.0;"/><!--MD5=[c8a40b61ed2cae938dabd67da6109521]
reverse link Player to LinearActuator--><path d="M538.5,395.19 C538.5,409.76 538.5,425.54 538.5,441.89 " fill="none" id="Player&lt;-LinearActuator" style="stroke: #A80036; stroke-width: 1.0;"/><polygon fill="#A80036" points="538.5,382.18,534.5,388.18,538.5,394.18,542.5,388.18,538.5,382.18" style="stroke: #A80036; stroke-width: 1.0;"/><!--MD5=[0df571f1bdc863a16490465303cac24b]
reverse link Player to Solenoid--><path d="M696.77,388.76 C723.33,404.54 749.65,422.43 772.5,442 C804.66,469.55 834.6,504.3 859.91,537.79 " fill="none" id="Player&lt;-Solenoid" style="stroke: #A80036; stroke-width: 1.0;"/><polygon fill="#A80036" points="685.38,382.12,688.5441,388.5998,695.7425,388.1714,692.5784,381.6915,685.38,382.12" style="stroke: #A80036; stroke-width: 1.0;"/><!--MD5=[007d68dfa73035bfd3887616e303e21e]
@startuml






class BeamSwitch {
	+BeamSwitch(int beamSwitchRPin)
	+~BeamSwitch()
	-check(uint64_t currentTime) : bool
	+get_state() : bool
	-state : bool
	-beamSwitchRPin : const int
	-lastReceiveTime : int
	-{static} checkAllTaskHandle : static TaskHandle_t
	-{static} all : static Vector<BeamSwitch*>
	-{static} emit : static bool
	-{static} check_all(uint64_t currentTime) : void
	-{static} check_all_task(void* pvParameters) : void
	+{static} setup() : void
	+{static} start_emit() : void
	+{static} stop_emit() : void
}


class LinearActuator {
	+LinearActuator(int stepPin, int dirPin, TMC2209::SerialAddress address)
	+~LinearActuator()
	-motor : AccelStepper
	-status : RunStatus::Status
	-driver : TMC2209
	+calibrate_left() : bool
	+calibrate_right() : bool
	+check_right_calibration() : bool
	+is_calibrated() : bool
	+is_left_calibrated() : bool
	+is_right_calibrated() : bool
	+move_to(float position) : bool
	+amplitude() : float
	+current_acceleration() : float
	+current_position() : float
	+current_speed() : float
	-leftLimit : float
	+max_speed() : float
	-rightLimit : float
	+run() : int
	+instant_stop() : void
	+move_left() : void
	+move_right() : void
	+set_acceleration(float acceleration) : void
	-set_current_position(float position) : void
	+set_max_speed(float speed) : void
	+set_speed(float speed) : void
	+setup() : void
	+{static} setup_Serial() : void
	+stop() : void
}


class PING {
	-PING()
	+~PING()
	-{static} player1 : static Player
	-{static} player2 : static Player
	-{static} player3 : static Player
	-{static} player4 : static Player
	-{static} raspComManager : static RaspComManagement
	-{static} solenoidOvertempTaskHandle : static TaskHandle_t
	+{static} setup() : void
	-{static} solenoid_overtemp_task(void* pvParameters) : void
}


class Player {
	+Player(int stepPin, int dirPin, TMC2209::SerialAddress address, int solenoidPin, int beamSwitchRPin)
	+~Player()
	+beamSwitch : BeamSwitch
	+actuator : LinearActuator
	+solenoid : Solenoid
	+loop() : int
	+setup() : int
}


class RaspComManagement {
	+RaspComManagement(int baudRate)
	+~RaspComManagement()
	+setup() : void
}


class Solenoid {
	+Solenoid(int solenoidPin ), ~Solenoid ()
	+over_temp_protect(uint64_t currentTime) : bool
	-currentTemp : float
	+get_power() : float
	+get_state() : float
	-state : float
	-state : float
	-state : float
	-solenoidPin : int
	-{static} maxTemp : static float
	-lastTempCheck : uint64_t
	+activate() : void
	+deactivate() : void
	+set_power(int power) : void
	+setup() : void
}


namespace RunStatus {
	enum Status {
		COLLISION
		IDLE
		RUNNING
	}
}










BeamSwitch o- - BeamSwitch


LinearActuator *- - RunStatus.Status


PING "4" *- - Player


PING *- - RaspComManagement


Player *- - BeamSwitch


Player *- - LinearActuator


Player *- - Solenoid









@enduml

PlantUML version 1.2020.02(Sun Mar 01 10:22:07 UTC 2020)
(GPL source distribution)
Java Runtime: OpenJDK Runtime Environment
JVM: OpenJDK 64-Bit Server VM
Java Version: 17.0.13+11
Operating System: Linux
Default Encoding: UTF-8
Language: en
Country: null
--></g></svg>